{
.appVersion = "1143";
DisplayStrings = (
"/ain-ar/number-ar/number-ar.2/number-ar.3/reh-ar/decimalseparator-ar ,/comma-ar/comma-ar.downward/quoteright/thousandseparator-ar */asterisk-ar/parenleft-ar/parenright-ar \012/seen-ar.medi/year-ar/year-ar.2/year-ar.3/year-ar.4 \012/footnotemarker-ar/footnotemarker-ar/footnotemarker-ar.2/fehDotless-ar \012/sad-ar/pagenumber-ar/pagenumber-ar.2/pagenumber-ar.3/pagenumber-ar.4  /sad-ar  /seen-ar/samvat-ar/samvat-ar/samvat-ar.2/samvat-ar.3/samvat-ar.4  /seen-ar/afghani-ar/fehDotless-ar \012/endofayah-ar/endofayah-ar.2/endofayah-ar.3 \012/endofayah-ar.alt 5/three-ar/endofayah-ar.altB/endofayah-ar.alt.2/endofayah-ar.alt.3/endofayah-ar.altB.2/endofayah-ar.altB.3",

glyphs = (
{
glyphname = .notdef;
layers = (
{
layerId = UUID0;
paths = (
{
closed = 1;
nodes = (
"274 -367 LINE",
"274 1203 LINE",
"1416 1203 LINE",
"1416 -367 LINE"
);
},
{
closed = 1;
nodes = (
"223 1254 LINE",
"223 -418 LINE",
"1467 -418 LINE",
"1467 1254 LINE"
);
},
{
closed = 1;
nodes = (
"955 1012 OFFCURVE",
"773 1012 CURVE SMOOTH",
"680 1012 OFFCURVE",
"597 962 OFFCURVE",
"497 838 CURVE",
"507 828 OFFCURVE",
"518 816 OFFCURVE",
"546 798 CURVE",
"641 854 OFFCURVE",
"685 869 OFFCURVE",
"731 869 CURVE SMOOTH",
"860 869 OFFCURVE",
"946 753 OFFCURVE",
"1053 647 CURVE",
"1016 652 OFFCURVE",
"981 654 OFFCURVE",
"947 654 CURVE SMOOTH",
"613 654 OFFCURVE",
"420 442 OFFCURVE",
"420 201 CURVE SMOOTH",
"420 -12 OFFCURVE",
"582 -219 OFFCURVE",
"917 -219 CURVE SMOOTH",
"955 -219 OFFCURVE",
"978 -215 OFFCURVE",
"996 -209 CURVE",
"1019 -182 OFFCURVE",
"1046 -130 OFFCURVE",
"1054 -80 CURVE",
"1018 -87 OFFCURVE",
"946 -90 OFFCURVE",
"918 -90 CURVE SMOOTH",
"696 -90 OFFCURVE",
"546 47 OFFCURVE",
"546 216 CURVE SMOOTH",
"546 434 OFFCURVE",
"740 528 OFFCURVE",
"960 528 CURVE SMOOTH",
"1040 528 OFFCURVE",
"1123 517 OFFCURVE",
"1201 494 CURVE",
"1227 508 OFFCURVE",
"1268 553 OFFCURVE",
"1283 585 CURVE",
"1070 791 OFFCURVE"
);
}
);
width = 1690;
},
{
layerId = "58C4FD73-E369-47FC-BB2E-BA826F97CEB5";
paths = (
{
closed = 1;
nodes = (
"274 -367 LINE",
"274 1203 LINE",
"1416 1203 LINE",
"1416 -367 LINE"
);
},
{
closed = 1;
nodes = (
"223 1254 LINE",
"223 -418 LINE",
"1467 -418 LINE",
"1467 1254 LINE"
);
},
{
closed = 1;
nodes = (
"955 1012 OFFCURVE",
"773 1012 CURVE SMOOTH",
"680 1012 OFFCURVE",
"597 962 OFFCURVE",
"497 838 CURVE",
"507 828 OFFCURVE",
"518 816 OFFCURVE",
"546 798 CURVE",
"641 854 OFFCURVE",
"685 869 OFFCURVE",
"731 869 CURVE SMOOTH",
"860 869 OFFCURVE",
"946 753 OFFCURVE",
"1053 647 CURVE",
"1016 652 OFFCURVE",
"981 654 OFFCURVE",
"947 654 CURVE SMOOTH",
"613 654 OFFCURVE",
"420 442 OFFCURVE",
"420 201 CURVE SMOOTH",
"420 -12 OFFCURVE",
"582 -219 OFFCURVE",
"917 -219 CURVE SMOOTH",
"955 -219 OFFCURVE",
"978 -215 OFFCURVE",
"996 -209 CURVE",
"1019 -182 OFFCURVE",
"1046 -130 OFFCURVE",
"1054 -80 CURVE",
"1018 -87 OFFCURVE",
"946 -90 OFFCURVE",
"918 -90 CURVE SMOOTH",
"696 -90 OFFCURVE",
"546 47 OFFCURVE",
"546 216 CURVE SMOOTH",
"546 434 OFFCURVE",
"740 528 OFFCURVE",
"960 528 CURVE SMOOTH",
"1040 528 OFFCURVE",
"1123 517 OFFCURVE",
"1201 494 CURVE",
"1227 508 OFFCURVE",
"1268 553 OFFCURVE",
"1283 585 CURVE",
"1070 791 OFFCURVE"
);
}
);
width = 1690;
}
);
},
{
glyphname = exclam;
layers = (
{
layerId = UUID0;
paths = (
{
closed = 1;
nodes = (
"342 547 OFFCURVE",
"338 807 OFFCURVE",
"367 1132 CURVE",
"176 1132 LINE",
"204 807 OFFCURVE",
"201 547 OFFCURVE",
"206 330 CURVE",
"337 330 LINE"
);
},
{
closed = 1;
nodes = (
"168 27 OFFCURVE",
"214 -18 OFFCURVE",
"270 -18 CURVE SMOOTH",
"325 -18 OFFCURVE",
"371 27 OFFCURVE",
"371 82 CURVE SMOOTH",
"371 138 OFFCURVE",
"325 183 OFFCURVE",
"270 183 CURVE SMOOTH",
"214 183 OFFCURVE",
"168 138 OFFCURVE",
"168 82 CURVE SMOOTH"
);
}
);
width = 573;
},
{
layerId = "58C4FD73-E369-47FC-BB2E-BA826F97CEB5";
paths = (
{
closed = 1;
nodes = (
"402 592 OFFCURVE",
"398 807 OFFCURVE",
"427 1132 CURVE",
"176 1132 LINE",
"204 807 OFFCURVE",
"201 592 OFFCURVE",
"206 375 CURVE",
"397 375 LINE"
);
},
{
closed = 1;
nodes = (
"172 34 OFFCURVE",
"228 -18 OFFCURVE",
"303 -18 CURVE SMOOTH",
"380 -18 OFFCURVE",
"435 34 OFFCURVE",
"435 112 CURVE SMOOTH",
"435 189 OFFCURVE",
"380 243 OFFCURVE",
"303 243 CURVE SMOOTH",
"228 243 OFFCURVE",
"172 189 OFFCURVE",
"172 112 CURVE SMOOTH"
);
}
);
width = 585;
}
);
unicode = 0021;
},
{
glyphname = quotedbl;
layers = (
{
layerId = UUID0;
paths = (
{
closed = 1;
nodes = (
"307 889 OFFCURVE",
"312 1004 OFFCURVE",
"333 1188 CURVE",
"180 1188 LINE",
"203 1004 OFFCURVE",
"207 889 OFFCURVE",
"210 783 CURVE",
"303 783 LINE"
);
},
{
closed = 1;
nodes = (
"562 889 OFFCURVE",
"567 1004 OFFCURVE",
"588 1188 CURVE",
"435 1188 LINE",
"458 1004 OFFCURVE",
"462 889 OFFCURVE",
"465 783 CURVE",
"558 783 LINE"
);
}
);
width = 768;
},
{
layerId = "58C4FD73-E369-47FC-BB2E-BA826F97CEB5";
paths = (
{
closed = 1;
nodes = (
"341 889 OFFCURVE",
"342 1004 OFFCURVE",
"363 1188 CURVE",
"180 1188 LINE",
"203 1004 OFFCURVE",
"203 889 OFFCURVE",
"206 783 CURVE",
"337 783 LINE"
);
},
{
closed = 1;
nodes = (
"611 889 OFFCURVE",
"612 1004 OFFCURVE",
"633 1188 CURVE",
"450 1188 LINE",
"473 1004 OFFCURVE",
"473 889 OFFCURVE",
"476 783 CURVE",
"607 783 LINE"
);
}
);
width = 813;
}
);
unicode = 0022;
},
{
glyphname = numbersign;
layers = (
{
layerId = UUID0;
paths = (
{
closed = 1;
nodes = (
"95 150 LINE",
"207 150 LINE",
"477 1095 LINE",
"365 1095 LINE"
);
},
{
closed = 1;
nodes = (
"837 431 LINE",
"837 543 LINE",
"18 543 LINE",
"18 431 LINE"
);
},
{
closed = 1;
nodes = (
"881 720 LINE",
"881 832 LINE",
"63 832 LINE",
"63 720 LINE"
);
},
{
closed = 1;
nodes = (
"414 150 LINE",
"526 150 LINE",
"796 1095 LINE",
"684 1095 LINE"
);
}
);
width = 900;
},
{
layerId = "58C4FD73-E369-47FC-BB2E-BA826F97CEB5";
paths = (
{
closed = 1;
nodes = (
"46 75 LINE",
"211 75 LINE",
"481 1020 LINE",
"316 1020 LINE"
);
},
{
closed = 1;
nodes = (
"833 318 LINE",
"833 476 LINE",
"15 476 LINE",
"15 318 LINE"
);
},
{
closed = 1;
nodes = (
"877 637 LINE",
"877 795 LINE",
"59 795 LINE",
"59 637 LINE"
);
},
{
closed = 1;
nodes = (
"402 75 LINE",
"567 75 LINE",
"837 1020 LINE",
"672 1020 LINE"
);
}
);
width = 930;
}
);
unicode = 0023;
},
{
glyphname = dollar;
layers = (
{
layerId = UUID0;
paths = (
{
closed = 1;
nodes = (
"414 -165 LINE",
"512 -165 LINE",
"512 1200 LINE",
"414 1200 LINE"
);
},
{
closed = 1;
nodes = (
"649 1023 OFFCURVE",
"573 1041 OFFCURVE",
"467 1041 CURVE SMOOTH",
"237 1041 OFFCURVE",
"142 879 OFFCURVE",
"142 762 CURVE SMOOTH",
"142 645 OFFCURVE",
"189 554 OFFCURVE",
"405 489 CURVE SMOOTH",
"620 425 OFFCURVE",
"653 369 OFFCURVE",
"653 297 CURVE SMOOTH",
"653 185 OFFCURVE",
"550 120 OFFCURVE",
"439 120 CURVE SMOOTH",
"337 120 OFFCURVE",
"237 155 OFFCURVE",
"146 234 CURVE",
"114 93 LINE",
"185 39 OFFCURVE",
"306 0 OFFCURVE",
"439 0 CURVE SMOOTH",
"627 0 OFFCURVE",
"784 125 OFFCURVE",
"784 310 CURVE SMOOTH",
"784 459 OFFCURVE",
"684 543 OFFCURVE",
"501 597 CURVE SMOOTH",
"304 654 OFFCURVE",
"273 696 OFFCURVE",
"273 772 CURVE SMOOTH",
"273 849 OFFCURVE",
"349 921 OFFCURVE",
"459 921 CURVE SMOOTH",
"548 921 OFFCURVE",
"613 900 OFFCURVE",
"711 845 CURVE",
"739 979 LINE"
);
}
);
width = 900;
},
{
layerId = "58C4FD73-E369-47FC-BB2E-BA826F97CEB5";
paths = (
{
closed = 1;
nodes = (
"679 1030 OFFCURVE",
"588 1041 OFFCURVE",
"482 1041 CURVE SMOOTH",
"252 1041 OFFCURVE",
"127 902 OFFCURVE",
"127 762 CURVE SMOOTH",
"127 622 OFFCURVE",
"221 547 OFFCURVE",
"420 467 CURVE SMOOTH",
"616 387 OFFCURVE",
"653 354 OFFCURVE",
"653 289 CURVE SMOOTH",
"653 200 OFFCURVE",
"573 158 OFFCURVE",
"454 158 CURVE SMOOTH",
"345 158 OFFCURVE",
"237 210 OFFCURVE",
"161 287 CURVE",
"107 93 LINE",
"177 36 OFFCURVE",
"306 0 OFFCURVE",
"454 0 CURVE SMOOTH",
"650 0 OFFCURVE",
"829 110 OFFCURVE",
"829 310 CURVE SMOOTH",
"829 474 OFFCURVE",
"710 542 OFFCURVE",
"524 619 CURVE SMOOTH",
"338 696 OFFCURVE",
"303 726 OFFCURVE",
"303 780 CURVE SMOOTH",
"303 849 OFFCURVE",
"364 891 OFFCURVE",
"474 891 CURVE SMOOTH",
"570 891 OFFCURVE",
"672 865 OFFCURVE",
"726 807 CURVE",
"769 987 LINE"
);
},
{
closed = 1;
nodes = (
"426 591 LINE",
"403 544 LINE",
"403 -165 LINE",
"531 -165 LINE",
"531 501 LINE",
"553 550 LINE",
"553 1200 LINE",
"426 1200 LINE"
);
}
);
width = 930;
}
);
unicode = 0024;
},
{
glyphname = percent;
layers = (
{
layerId = UUID0;
paths = (
{
closed = 1;
nodes = (
"945 136 OFFCURVE",
"912 86 OFFCURVE",
"847 86 CURVE SMOOTH",
"780 86 OFFCURVE",
"750 135 OFFCURVE",
"750 285 CURVE SMOOTH",
"750 423 OFFCURVE",
"782 472 OFFCURVE",
"847 472 CURVE SMOOTH",
"915 472 OFFCURVE",
"945 424 OFFCURVE",
"945 274 CURVE SMOOTH"
);
},
{
closed = 1;
nodes = (
"1069 489 OFFCURVE",
"982 577 OFFCURVE",
"851 577 CURVE SMOOTH",
"720 577 OFFCURVE",
"627 487 OFFCURVE",
"627 276 CURVE SMOOTH",
"627 64 OFFCURVE",
"713 -18 OFFCURVE",
"844 -18 CURVE SMOOTH",
"975 -18 OFFCURVE",
"1069 63 OFFCURVE",
"1069 284 CURVE SMOOTH"
);
},
{
closed = 1;
nodes = (
"218 -18 LINE",
"344 -18 LINE",
"929 1110 LINE",
"804 1110 LINE"
);
},
{
closed = 1;
nodes = (
"393 669 OFFCURVE",
"360 618 OFFCURVE",
"295 618 CURVE SMOOTH",
"228 618 OFFCURVE",
"198 668 OFFCURVE",
"198 818 CURVE SMOOTH",
"198 956 OFFCURVE",
"230 1005 OFFCURVE",
"295 1005 CURVE SMOOTH",
"363 1005 OFFCURVE",
"393 957 OFFCURVE",
"393 807 CURVE SMOOTH"
);
},
{
closed = 1;
nodes = (
"517 1021 OFFCURVE",
"430 1110 OFFCURVE",
"299 1110 CURVE SMOOTH",
"168 1110 OFFCURVE",
"75 1020 OFFCURVE",
"75 808 CURVE SMOOTH",
"75 597 OFFCURVE",
"161 513 OFFCURVE",
"292 513 CURVE SMOOTH",
"423 513 OFFCURVE",
"517 595 OFFCURVE",
"517 816 CURVE SMOOTH"
);
}
);
width = 1144;
},
{
layerId = "58C4FD73-E369-47FC-BB2E-BA826F97CEB5";
paths = (
{
closed = 1;
nodes = (
"218 -18 LINE",
"374 -18 LINE",
"959 1110 LINE",
"804 1110 LINE"
);
},
{
closed = 1;
nodes = (
"383 669 OFFCURVE",
"352 611 OFFCURVE",
"295 611 CURVE SMOOTH",
"236 611 OFFCURVE",
"209 668 OFFCURVE",
"209 818 CURVE SMOOTH",
"209 956 OFFCURVE",
"237 1012 OFFCURVE",
"295 1012 CURVE SMOOTH",
"356 1012 OFFCURVE",
"383 957 OFFCURVE",
"383 807 CURVE SMOOTH"
);
},
{
closed = 1;
nodes = (
"540 1021 OFFCURVE",
"438 1110 OFFCURVE",
"299 1110 CURVE SMOOTH",
"161 1110 OFFCURVE",
"51 1020 OFFCURVE",
"51 808 CURVE SMOOTH",
"51 597 OFFCURVE",
"153 513 OFFCURVE",
"292 513 CURVE SMOOTH",
"431 513 OFFCURVE",
"540 595 OFFCURVE",
"540 816 CURVE SMOOTH"
);
},
{
closed = 1;
nodes = (
"964 136 OFFCURVE",
"933 78 OFFCURVE",
"876 78 CURVE SMOOTH",
"817 78 OFFCURVE",
"790 135 OFFCURVE",
"790 285 CURVE SMOOTH",
"790 423 OFFCURVE",
"819 480 OFFCURVE",
"876 480 CURVE SMOOTH",
"937 480 OFFCURVE",
"964 424 OFFCURVE",
"964 274 CURVE SMOOTH"
);
},
{
closed = 1;
nodes = (
"1122 489 OFFCURVE",
"1019 577 OFFCURVE",
"880 577 CURVE SMOOTH",
"742 577 OFFCURVE",
"633 487 OFFCURVE",
"633 276 CURVE SMOOTH",
"633 64 OFFCURVE",
"735 -18 OFFCURVE",
"873 -18 CURVE SMOOTH",
"1012 -18 OFFCURVE",
"1122 63 OFFCURVE",
"1122 284 CURVE SMOOTH"
);
}
);
width = 1173;
}
);
unicode = 0025;
},
{
glyphname = ampersand;
layers = (
{
layerId = UUID0;
paths = (
{
closed = 1;
nodes = (
"248 1113 OFFCURVE",
"116 1059 OFFCURVE",
"116 892 CURVE SMOOTH",
"116 757 OFFCURVE",
"271 611 OFFCURVE",
"401 427 CURVE SMOOTH",
"595 151 OFFCURVE",
"729 -18 OFFCURVE",
"768 -18 CURVE SMOOTH",
"795 -18 OFFCURVE",
"853 28 OFFCURVE",
"881 52 CURVE",
"810 82 OFFCURVE",
"685 222 OFFCURVE",
"487 510 CURVE SMOOTH",
"370 679 OFFCURVE",
"236 806 OFFCURVE",
"236 900 CURVE SMOOTH",
"236 968 OFFCURVE",
"298 1012 OFFCURVE",
"356 1012 CURVE SMOOTH",
"416 1012 OFFCURVE",
"472 970 OFFCURVE",
"472 903 CURVE SMOOTH",
"472 837 OFFCURVE",
"392 750 OFFCURVE",
"262 630 CURVE SMOOTH",
"109 488 OFFCURVE",
"41 395 OFFCURVE",
"41 281 CURVE SMOOTH",
"41 113 OFFCURVE",
"162 -18 OFFCURVE",
"330 -18 CURVE SMOOTH",
"534 -18 OFFCURVE",
"751 205 OFFCURVE",
"810 326 CURVE",
"731 427 LINE",
"683 302 OFFCURVE",
"472 112 OFFCURVE",
"341 112 CURVE SMOOTH",
"232 112 OFFCURVE",
"172 200 OFFCURVE",
"172 285 CURVE SMOOTH",
"172 367 OFFCURVE",
"222 440 OFFCURVE",
"352 555 CURVE SMOOTH",
"488 674 OFFCURVE",
"592 801 OFFCURVE",
"592 900 CURVE SMOOTH",
"592 1036 OFFCURVE",
"481 1113 OFFCURVE",
"367 1113 CURVE SMOOTH"
);
}
);
width = 916;
},
{
layerId = "58C4FD73-E369-47FC-BB2E-BA826F97CEB5";
paths = (
{
closed = 1;
nodes = (
"747 324 OFFCURVE",
"536 142 OFFCURVE",
"405 142 CURVE SMOOTH",
"318 142 OFFCURVE",
"251 192 OFFCURVE",
"251 277 CURVE SMOOTH",
"251 360 OFFCURVE",
"308 410 OFFCURVE",
"438 525 CURVE SMOOTH",
"574 644 OFFCURVE",
"693 786 OFFCURVE",
"693 892 CURVE SMOOTH",
"693 1029 OFFCURVE",
"582 1113 OFFCURVE",
"431 1113 CURVE SMOOTH",
"274 1113 OFFCURVE",
"142 1029 OFFCURVE",
"142 870 CURVE SMOOTH",
"142 750 OFFCURVE",
"305 588 OFFCURVE",
"442 405 CURVE SMOOTH",
"644 134 OFFCURVE",
"778 -18 OFFCURVE",
"817 -18 CURVE SMOOTH",
"843 -18 OFFCURVE",
"939 43 OFFCURVE",
"967 67 CURVE",
"896 97 OFFCURVE",
"795 228 OFFCURVE",
"588 510 CURVE SMOOTH",
"464 679 OFFCURVE",
"315 813 OFFCURVE",
"315 877 CURVE SMOOTH",
"315 930 OFFCURVE",
"362 982 OFFCURVE",
"420 982 CURVE SMOOTH",
"480 982 OFFCURVE",
"521 940 OFFCURVE",
"521 881 CURVE SMOOTH",
"521 829 OFFCURVE",
"471 750 OFFCURVE",
"341 630 CURVE SMOOTH",
"188 488 OFFCURVE",
"67 395 OFFCURVE",
"67 258 CURVE SMOOTH",
"67 90 OFFCURVE",
"181 -18 OFFCURVE",
"393 -18 CURVE SMOOTH",
"606 -18 OFFCURVE",
"837 198 OFFCURVE",
"896 318 CURVE",
"795 450 LINE"
);
}
);
width = 1016;
}
);
unicode = 0026;
},
{
glyphname = quotesingle;
layers = (
{
layerId = UUID0;
paths = (
{
closed = 1;
nodes = (
"277 889 OFFCURVE",
"282 1004 OFFCURVE",
"303 1188 CURVE",
"150 1188 LINE",
"173 1004 OFFCURVE",
"177 889 OFFCURVE",
"180 783 CURVE",
"273 783 LINE"
);
}
);
width = 453;
},
{
layerId = "58C4FD73-E369-47FC-BB2E-BA826F97CEB5";
paths = (
{
closed = 1;
nodes = (
"303 889 OFFCURVE",
"304 1004 OFFCURVE",
"326 1188 CURVE",
"142 1188 LINE",
"165 1004 OFFCURVE",
"165 889 OFFCURVE",
"168 783 CURVE",
"300 783 LINE"
);
}
);
width = 468;
}
);
unicode = 0027;
},
{
glyphname = parenleft;
layers = (
{
layerId = UUID0;
paths = (
{
closed = 1;
nodes = (
"86 163 OFFCURVE",
"195 -93 OFFCURVE",
"401 -307 CURVE",
"472 -198 LINE",
"296 -6 OFFCURVE",
"228 208 OFFCURVE",
"228 468 CURVE SMOOTH",
"228 736 OFFCURVE",
"296 960 OFFCURVE",
"472 1113 CURVE",
"416 1230 LINE",
"217 1083 OFFCURVE",
"86 796 OFFCURVE",
"86 468 CURVE SMOOTH"
);
}
);
width = 596;
},
{
layerId = "58C4FD73-E369-47FC-BB2E-BA826F97CEB5";
paths = (
{
closed = 1;
nodes = (
"217 1083 OFFCURVE",
"86 796 OFFCURVE",
"86 468 CURVE SMOOTH",
"86 163 OFFCURVE",
"195 -93 OFFCURVE",
"401 -307 CURVE",
"514 -180 LINE",
"346 8 OFFCURVE",
"282 251 OFFCURVE",
"282 476 CURVE SMOOTH",
"282 703 OFFCURVE",
"349 945 OFFCURVE",
"507 1091 CURVE",
"416 1230 LINE"
);
}
);
width = 645;
}
);
unicode = 0028;
},
{
glyphname = parenright;
layers = (
{
layerId = UUID0;
paths = (
{
closed = 1;
nodes = (
"510 796 OFFCURVE",
"378 1083 OFFCURVE",
"180 1230 CURVE",
"123 1113 LINE",
"292 960 OFFCURVE",
"367 721 OFFCURVE",
"367 468 CURVE SMOOTH",
"367 208 OFFCURVE",
"292 -6 OFFCURVE",
"123 -198 CURVE",
"195 -307 LINE",
"401 -93 OFFCURVE",
"510 163 OFFCURVE",
"510 468 CURVE SMOOTH"
);
}
);
width = 596;
},
{
layerId = "58C4FD73-E369-47FC-BB2E-BA826F97CEB5";
paths = (
{
closed = 1;
nodes = (
"296 945 OFFCURVE",
"363 703 OFFCURVE",
"363 476 CURVE SMOOTH",
"363 251 OFFCURVE",
"299 8 OFFCURVE",
"131 -180 CURVE",
"244 -307 LINE",
"450 -93 OFFCURVE",
"559 163 OFFCURVE",
"559 468 CURVE SMOOTH",
"559 796 OFFCURVE",
"428 1083 OFFCURVE",
"229 1230 CURVE",
"138 1091 LINE"
);
}
);
width = 645;
}
);
unicode = 0029;
},
{
glyphname = asterisk;
layers = (
{
layerId = UUID0;
paths = (
{
closed = 1;
nodes = (
"311 1200 LINE",
"325 1100 OFFCURVE",
"335 1040 OFFCURVE",
"337 975 CURVE",
"282 1008 OFFCURVE",
"231 1040 OFFCURVE",
"150 1098 CURVE",
"93 1005 LINE",
"187 967 OFFCURVE",
"245 945 OFFCURVE",
"303 915 CURVE",
"246 882 OFFCURVE",
"192 855 OFFCURVE",
"101 813 CURVE",
"153 720 LINE",
"232 781 OFFCURVE",
"282 820 OFFCURVE",
"337 855 CURVE",
"336 791 OFFCURVE",
"331 729 OFFCURVE",
"322 630 CURVE",
"427 630 LINE",
"412 729 OFFCURVE",
"408 789 OFFCURVE",
"405 855 CURVE",
"460 821 OFFCURVE",
"510 789 OFFCURVE",
"592 731 CURVE",
"648 825 LINE",
"554 861 OFFCURVE",
"497 884 OFFCURVE",
"438 915 CURVE",
"495 945 OFFCURVE",
"549 974 OFFCURVE",
"641 1016 CURVE",
"588 1110 LINE",
"510 1047 OFFCURVE",
"460 1011 OFFCURVE",
"405 975 CURVE",
"405 1040 OFFCURVE",
"410 1100 OFFCURVE",
"420 1200 CURVE"
);
}
);
width = 771;
},
{
layerId = "58C4FD73-E369-47FC-BB2E-BA826F97CEB5";
paths = (
{
closed = 1;
nodes = (
"560 1069 OFFCURVE",
"509 1025 OFFCURVE",
"445 981 CURVE",
"449 1053 OFFCURVE",
"456 1114 OFFCURVE",
"468 1200 CURVE",
"318 1200 LINE",
"333 1122 OFFCURVE",
"345 1059 OFFCURVE",
"351 981 CURVE",
"287 1020 OFFCURVE",
"234 1056 OFFCURVE",
"171 1107 CURVE",
"94 979 LINE",
"173 953 OFFCURVE",
"248 925 OFFCURVE",
"309 897 CURVE",
"246 864 OFFCURVE",
"182 840 OFFCURVE",
"102 807 CURVE",
"177 672 LINE",
"237 726 OFFCURVE",
"286 769 OFFCURVE",
"349 815 CURVE",
"344 737 OFFCURVE",
"336 672 OFFCURVE",
"323 594 CURVE",
"474 594 LINE",
"457 679 OFFCURVE",
"451 740 OFFCURVE",
"444 813 CURVE",
"511 770 OFFCURVE",
"560 735 OFFCURVE",
"622 685 CURVE",
"702 816 LINE",
"620 845 OFFCURVE",
"557 866 OFFCURVE",
"488 897 CURVE",
"553 930 OFFCURVE",
"615 957 OFFCURVE",
"693 990 CURVE",
"620 1119 LINE"
);
}
);
width = 780;
}
);
unicode = 002A;
},
{
glyphname = plus;
layers = (
{
layerId = UUID0;
paths = (
{
closed = 1;
nodes = (
"393 213 LINE",
"506 213 LINE",
"506 885 LINE",
"393 885 LINE"
);
},
{
closed = 1;
nodes = (
"783 495 LINE",
"783 607 LINE",
"116 607 LINE",
"116 495 LINE"
);
}
);
width = 900;
},
{
layerId = "58C4FD73-E369-47FC-BB2E-BA826F97CEB5";
paths = (
{
closed = 1;
nodes = (
"371 213 LINE",
"528 213 LINE",
"528 885 LINE",
"371 885 LINE"
);
},
{
closed = 1;
nodes = (
"783 472 LINE",
"783 630 LINE",
"116 630 LINE",
"116 472 LINE"
);
}
);
width = 900;
}
);
unicode = 002B;
},
{
glyphname = comma;
layers = (
{
layerId = UUID0;
paths = (
{
closed = 1;
nodes = (
"243 37 LINE",
"243 -38 OFFCURVE",
"186 -129 OFFCURVE",
"142 -172 CURVE",
"217 -202 LINE",
"305 -120 OFFCURVE",
"348 -27 OFFCURVE",
"348 63 CURVE SMOOTH",
"348 139 OFFCURVE",
"300 187 OFFCURVE",
"240 187 CURVE SMOOTH",
"197 187 OFFCURVE",
"148 159 OFFCURVE",
"138 112 CURVE",
"138 37 LINE"
);
}
);
width = 487;
},
{
layerId = "58C4FD73-E369-47FC-BB2E-BA826F97CEB5";
paths = (
{
closed = 1;
nodes = (
"251 37 LINE",
"251 -25 OFFCURVE",
"225 -114 OFFCURVE",
"146 -198 CURVE",
"232 -251 LINE",
"325 -171 OFFCURVE",
"405 -51 OFFCURVE",
"405 82 CURVE SMOOTH",
"405 175 OFFCURVE",
"351 240 OFFCURVE",
"266 240 CURVE SMOOTH",
"196 240 OFFCURVE",
"138 176 OFFCURVE",
"138 120 CURVE SMOOTH",
"138 37 LINE"
);
}
);
width = 498;
}
);
unicode = 002C;
},
{
glyphname = hyphentwo;
layers = (
{
anchors = (
{
name = U;
position = "{322, 825}";
}
);
layerId = UUID0;
paths = (
{
closed = 1;
nodes = (
"585 416 LINE",
"585 528 LINE",
"60 528 LINE",
"60 416 LINE"
);
}
);
width = 645;
},
{
anchors = (
{
name = U;
position = "{330, 825}";
}
);
layerId = "58C4FD73-E369-47FC-BB2E-BA826F97CEB5";
paths = (
{
closed = 1;
nodes = (
"607 397 LINE",
"607 547 LINE",
"52 547 LINE",
"52 397 LINE"
);
}
);
width = 660;
}
);
unicode = 2010;
},
{
glyphname = hyphen;
layers = (
{
anchors = (
{
name = U;
position = "{322, 825}";
}
);
layerId = UUID0;
paths = (
{
closed = 1;
nodes = (
"585 416 LINE",
"585 528 LINE",
"60 528 LINE",
"60 416 LINE"
);
}
);
width = 645;
},
{
anchors = (
{
name = U;
position = "{337, 825}";
}
);
layerId = "58C4FD73-E369-47FC-BB2E-BA826F97CEB5";
paths = (
{
closed = 1;
nodes = (
"611 397 LINE",
"611 547 LINE",
"60 547 LINE",
"60 397 LINE"
);
}
);
width = 671;
}
);
unicode = 002D;
},
{
glyphname = period;
layers = (
{
layerId = UUID0;
paths = (
{
closed = 1;
nodes = (
"138 27 OFFCURVE",
"184 -18 OFFCURVE",
"240 -18 CURVE SMOOTH",
"295 -18 OFFCURVE",
"341 27 OFFCURVE",
"341 82 CURVE SMOOTH",
"341 138 OFFCURVE",
"295 183 OFFCURVE",
"240 183 CURVE SMOOTH",
"184 183 OFFCURVE",
"138 138 OFFCURVE",
"138 82 CURVE SMOOTH"
);
}
);
width = 480;
},
{
layerId = "58C4FD73-E369-47FC-BB2E-BA826F97CEB5";
paths = (
{
closed = 1;
nodes = (
"150 34 OFFCURVE",
"205 -18 OFFCURVE",
"281 -18 CURVE SMOOTH",
"357 -18 OFFCURVE",
"412 34 OFFCURVE",
"412 112 CURVE SMOOTH",
"412 189 OFFCURVE",
"357 243 OFFCURVE",
"281 243 CURVE SMOOTH",
"205 243 OFFCURVE",
"150 189 OFFCURVE",
"150 112 CURVE SMOOTH"
);
}
);
width = 532;
}
);
unicode = 002E;
},
{
glyphname = period.test;
layers = (
{
layerId = UUID0;
paths = (
{
closed = 1;
nodes = (
"183 -19 OFFCURVE",
"239 -19 CURVE SMOOTH",
"294 -19 OFFCURVE",
"340 27 OFFCURVE",
"340 82 CURVE SMOOTH",
"340 138 OFFCURVE",
"294 183 OFFCURVE",
"239 183 CURVE SMOOTH",
"183 183 OFFCURVE",
"139 138 OFFCURVE",
"139 82 CURVE SMOOTH",
"139 27 OFFCURVE"
);
},
{
closed = 1;
nodes = (
"449 966 LINE",
"449 -371 LINE",
"30 -371 LINE",
"30 966 LINE"
);
}
);
width = 479;
},
{
layerId = "58C4FD73-E369-47FC-BB2E-BA826F97CEB5";
paths = (
{
closed = 1;
nodes = (
"183 -19 OFFCURVE",
"239 -19 CURVE SMOOTH",
"294 -19 OFFCURVE",
"340 27 OFFCURVE",
"340 82 CURVE SMOOTH",
"340 138 OFFCURVE",
"294 183 OFFCURVE",
"239 183 CURVE SMOOTH",
"183 183 OFFCURVE",
"139 138 OFFCURVE",
"139 82 CURVE SMOOTH",
"139 27 OFFCURVE"
);
},
{
closed = 1;
nodes = (
"449 966 LINE",
"449 -371 LINE",
"30 -371 LINE",
"30 966 LINE"
);
}
);
width = 479;
}
);
},
{
glyphname = slash;
layers = (
{
layerId = UUID0;
paths = (
{
closed = 1;
nodes = (
"7 -183 LINE",
"120 -183 LINE",
"742 1200 LINE",
"630 1200 LINE"
);
}
);
width = 750;
},
{
layerId = "58C4FD73-E369-47FC-BB2E-BA826F97CEB5";
paths = (
{
closed = 1;
nodes = (
"7 -183 LINE",
"180 -183 LINE",
"802 1200 LINE",
"630 1200 LINE"
);
}
);
width = 810;
}
);
unicode = 002F;
},
{
glyphname = zero;
layers = (
{
anchors = (
{
name = L;
position = "{453, -75}";
},
{
name = U;
position = "{453, 1147}";
}
);
layerId = UUID0;
paths = (
{
closed = 1;
nodes = (
"682 231 OFFCURVE",
"594 108 OFFCURVE",
"450 108 CURVE SMOOTH",
"301 108 OFFCURVE",
"217 228 OFFCURVE",
"217 558 CURVE SMOOTH",
"217 864 OFFCURVE",
"305 986 OFFCURVE",
"450 986 CURVE SMOOTH",
"601 986 OFFCURVE",
"682 867 OFFCURVE",
"682 536 CURVE SMOOTH"
);
},
{
closed = 1;
nodes = (
"832 964 OFFCURVE",
"675 1113 OFFCURVE",
"457 1113 CURVE SMOOTH",
"240 1113 OFFCURVE",
"67 962 OFFCURVE",
"67 540 CURVE SMOOTH",
"67 116 OFFCURVE",
"225 -18 OFFCURVE",
"442 -18 CURVE SMOOTH",
"660 -18 OFFCURVE",
"832 113 OFFCURVE",
"832 555 CURVE SMOOTH"
);
}
);
width = 900;
},
{
anchors = (
{
name = L;
position = "{468, -75}";
},
{
name = U;
position = "{468, 1147}";
}
);
layerId = "58C4FD73-E369-47FC-BB2E-BA826F97CEB5";
paths = (
{
closed = 1;
nodes = (
"652 276 OFFCURVE",
"586 153 OFFCURVE",
"465 153 CURVE SMOOTH",
"339 153 OFFCURVE",
"277 281 OFFCURVE",
"277 558 CURVE SMOOTH",
"277 819 OFFCURVE",
"342 941 OFFCURVE",
"465 941 CURVE SMOOTH",
"594 941 OFFCURVE",
"652 814 OFFCURVE",
"652 536 CURVE SMOOTH"
);
},
{
closed = 1;
nodes = (
"866 964 OFFCURVE",
"727 1113 OFFCURVE",
"472 1113 CURVE SMOOTH",
"233 1113 OFFCURVE",
"63 962 OFFCURVE",
"63 540 CURVE SMOOTH",
"63 123 OFFCURVE",
"218 -18 OFFCURVE",
"457 -18 CURVE SMOOTH",
"698 -18 OFFCURVE",
"866 120 OFFCURVE",
"866 555 CURVE SMOOTH"
);
}
);
width = 930;
}
);
unicode = 0030;
},
{
glyphname = zero.medium;
layers = (
{
anchors = (
{
name = _digit;
position = "{0, 0}";
},
{
name = digit;
position = "{674, 0}";
}
);
layerId = UUID0;
paths = (
{
closed = 1;
nodes = (
"446 331 OFFCURVE",
"337 331 CURVE SMOOTH",
"226 331 OFFCURVE",
"164 421 OFFCURVE",
"164 668 CURVE SMOOTH",
"164 897 OFFCURVE",
"229 987 OFFCURVE",
"337 987 CURVE SMOOTH",
"450 987 OFFCURVE",
"511 898 OFFCURVE",
"511 651 CURVE SMOOTH",
"511 423 OFFCURVE"
);
},
{
closed = 1;
nodes = (
"506 1083 OFFCURVE",
"343 1083 CURVE SMOOTH",
"181 1083 OFFCURVE",
"50 969 OFFCURVE",
"50 654 CURVE SMOOTH",
"50 337 OFFCURVE",
"170 236 OFFCURVE",
"332 236 CURVE SMOOTH",
"495 236 OFFCURVE",
"623 335 OFFCURVE",
"623 665 CURVE SMOOTH",
"623 971 OFFCURVE"
);
}
);
width = 674;
},
{
anchors = (
{
name = _digit;
position = "{0, 0}";
},
{
name = digit;
position = "{674, 0}";
}
);
layerId = "58C4FD73-E369-47FC-BB2E-BA826F97CEB5";
paths = (
{
closed = 1;
nodes = (
"446 331 OFFCURVE",
"337 331 CURVE SMOOTH",
"226 331 OFFCURVE",
"164 421 OFFCURVE",
"164 668 CURVE SMOOTH",
"164 897 OFFCURVE",
"229 987 OFFCURVE",
"337 987 CURVE SMOOTH",
"450 987 OFFCURVE",
"511 898 OFFCURVE",
"511 651 CURVE SMOOTH",
"511 423 OFFCURVE"
);
},
{
closed = 1;
nodes = (
"506 1083 OFFCURVE",
"343 1083 CURVE SMOOTH",
"181 1083 OFFCURVE",
"50 969 OFFCURVE",
"50 654 CURVE SMOOTH",
"50 337 OFFCURVE",
"170 236 OFFCURVE",
"332 236 CURVE SMOOTH",
"495 236 OFFCURVE",
"623 335 OFFCURVE",
"623 665 CURVE SMOOTH",
"623 971 OFFCURVE"
);
}
);
width = 674;
}
);
},
{
glyphname = zero.small;
layers = (
{
anchors = (
{
name = _digit;
position = "{0, 0}";
},
{
name = digit;
position = "{494, 0}";
}
);
layerId = UUID0;
paths = (
{
closed = 1;
nodes = (
"326 429 OFFCURVE",
"246 429 CURVE SMOOTH",
"165 429 OFFCURVE",
"119 495 OFFCURVE",
"119 677 CURVE SMOOTH",
"119 845 OFFCURVE",
"167 911 OFFCURVE",
"246 911 CURVE SMOOTH",
"329 911 OFFCURVE",
"374 845 OFFCURVE",
"374 664 CURVE SMOOTH",
"374 497 OFFCURVE"
);
},
{
closed = 1;
nodes = (
"371 981 OFFCURVE",
"251 981 CURVE SMOOTH",
"132 981 OFFCURVE",
"36 897 OFFCURVE",
"36 666 CURVE SMOOTH",
"36 434 OFFCURVE",
"124 360 OFFCURVE",
"243 360 CURVE SMOOTH",
"362 360 OFFCURVE",
"457 432 OFFCURVE",
"457 675 CURVE SMOOTH",
"457 899 OFFCURVE"
);
}
);
width = 494;
},
{
anchors = (
{
name = _digit;
position = "{0, 0}";
},
{
name = digit;
position = "{494, 0}";
}
);
layerId = "58C4FD73-E369-47FC-BB2E-BA826F97CEB5";
paths = (
{
closed = 1;
nodes = (
"326 429 OFFCURVE",
"246 429 CURVE SMOOTH",
"165 429 OFFCURVE",
"119 495 OFFCURVE",
"119 677 CURVE SMOOTH",
"119 845 OFFCURVE",
"167 911 OFFCURVE",
"246 911 CURVE SMOOTH",
"329 911 OFFCURVE",
"374 845 OFFCURVE",
"374 664 CURVE SMOOTH",
"374 497 OFFCURVE"
);
},
{
closed = 1;
nodes = (
"371 981 OFFCURVE",
"251 981 CURVE SMOOTH",
"132 981 OFFCURVE",
"36 897 OFFCURVE",
"36 666 CURVE SMOOTH",
"36 434 OFFCURVE",
"124 360 OFFCURVE",
"243 360 CURVE SMOOTH",
"362 360 OFFCURVE",
"457 432 OFFCURVE",
"457 675 CURVE SMOOTH",
"457 899 OFFCURVE"
);
}
);
width = 494;
}
);
},
{
glyphname = one;
layers = (
{
anchors = (
{
name = L;
position = "{450, -75}";
},
{
name = U;
position = "{450, 1147}";
}
);
layerId = UUID0;
paths = (
{
closed = 1;
nodes = (
"165 127 LINE",
"165 0 LINE",
"780 0 LINE",
"780 127 LINE",
"543 127 LINE",
"543 1110 LINE",
"416 1110 LINE",
"157 951 LINE",
"176 816 LINE",
"401 945 LINE",
"401 127 LINE"
);
}
);
width = 776;
},
{
anchors = (
{
name = L;
position = "{468, -75}";
},
{
name = U;
position = "{468, 1147}";
}
);
layerId = "58C4FD73-E369-47FC-BB2E-BA826F97CEB5";
paths = (
{
closed = 1;
nodes = (
"817 176 LINE",
"586 176 LINE",
"586 1095 LINE",
"380 1095 LINE",
"144 958 LINE",
"170 763 LINE",
"380 877 LINE",
"380 176 LINE",
"150 176 LINE",
"150 0 LINE",
"817 0 LINE"
);
}
);
width = 930;
}
);
unicode = 0031;
},
{
glyphname = one.medium;
layers = (
{
anchors = (
{
name = _digit;
position = "{0, 0}";
},
{
name = digit;
position = "{674, 0}";
}
);
layerId = UUID0;
paths = (
{
closed = 1;
nodes = (
"308 1069 LINE",
"132 954 LINE",
"146 853 LINE",
"308 956 LINE",
"308 250 LINE",
"426 250 LINE",
"419 311 OFFCURVE",
"415 443 OFFCURVE",
"415 516 CURVE SMOOTH",
"415 1069 LINE"
);
}
);
width = 674;
},
{
anchors = (
{
name = _digit;
position = "{0, 0}";
},
{
name = digit;
position = "{674, 0}";
}
);
layerId = "58C4FD73-E369-47FC-BB2E-BA826F97CEB5";
paths = (
{
closed = 1;
nodes = (
"308 1069 LINE",
"132 954 LINE",
"146 853 LINE",
"308 956 LINE",
"308 250 LINE",
"426 250 LINE",
"419 311 OFFCURVE",
"415 443 OFFCURVE",
"415 516 CURVE SMOOTH",
"415 1069 LINE"
);
}
);
width = 674;
}
);
},
{
glyphname = one.small;
layers = (
{
anchors = (
{
name = _digit;
position = "{0, 0}";
},
{
name = digit;
position = "{494, 0}";
}
);
layerId = UUID0;
paths = (
{
closed = 1;
nodes = (
"226 971 LINE",
"97 886 LINE",
"107 812 LINE",
"226 888 LINE",
"226 370 LINE",
"312 370 LINE",
"307 415 OFFCURVE",
"305 512 OFFCURVE",
"305 565 CURVE SMOOTH",
"305 971 LINE"
);
}
);
width = 494;
},
{
anchors = (
{
name = _digit;
position = "{0, 0}";
},
{
name = digit;
position = "{494, 0}";
}
);
layerId = "58C4FD73-E369-47FC-BB2E-BA826F97CEB5";
paths = (
{
closed = 1;
nodes = (
"226 971 LINE",
"97 886 LINE",
"107 812 LINE",
"226 888 LINE",
"226 370 LINE",
"312 370 LINE",
"307 415 OFFCURVE",
"305 512 OFFCURVE",
"305 565 CURVE SMOOTH",
"305 971 LINE"
);
}
);
width = 494;
}
);
},
{
glyphname = two;
layers = (
{
anchors = (
{
name = L;
position = "{450, -75}";
},
{
name = U;
position = "{420, 1147}";
}
);
layerId = UUID0;
paths = (
{
closed = 1;
nodes = (
"750 124 OFFCURVE",
"631 123 OFFCURVE",
"483 123 CURVE SMOOTH",
"292 123 LINE",
"456 264 OFFCURVE",
"757 546 OFFCURVE",
"757 798 CURVE SMOOTH",
"757 992 OFFCURVE",
"600 1113 OFFCURVE",
"420 1113 CURVE SMOOTH",
"293 1113 OFFCURVE",
"154 1051 OFFCURVE",
"93 967 CURVE",
"127 840 LINE",
"194 921 OFFCURVE",
"301 978 OFFCURVE",
"393 978 CURVE SMOOTH",
"501 978 OFFCURVE",
"607 924 OFFCURVE",
"607 783 CURVE SMOOTH",
"607 576 OFFCURVE",
"293 273 OFFCURVE",
"90 127 CURVE",
"90 0 LINE",
"810 0 LINE",
"810 135 LINE"
);
}
);
width = 900;
},
{
anchors = (
{
name = L;
position = "{468, -75}";
},
{
name = U;
position = "{468, 1147}";
}
);
layerId = "58C4FD73-E369-47FC-BB2E-BA826F97CEB5";
paths = (
{
closed = 1;
nodes = (
"774 184 OFFCURVE",
"723 183 OFFCURVE",
"576 183 CURVE SMOOTH",
"377 183 LINE",
"541 316 OFFCURVE",
"801 554 OFFCURVE",
"801 798 CURVE SMOOTH",
"801 992 OFFCURVE",
"654 1113 OFFCURVE",
"437 1113 CURVE SMOOTH",
"310 1113 OFFCURVE",
"164 1051 OFFCURVE",
"96 967 CURVE",
"144 787 LINE",
"211 868 OFFCURVE",
"326 926 OFFCURVE",
"418 926 CURVE SMOOTH",
"533 926 OFFCURVE",
"585 849 OFFCURVE",
"585 761 CURVE SMOOTH",
"585 568 OFFCURVE",
"303 311 OFFCURVE",
"99 165 CURVE",
"99 0 LINE",
"834 0 LINE",
"834 195 LINE"
);
}
);
width = 930;
}
);
unicode = 0032;
},
{
glyphname = two.medium;
layers = (
{
anchors = (
{
name = _digit;
position = "{0, 0}";
},
{
name = digit;
position = "{674, 0}";
}
);
layerId = UUID0;
paths = (
{
closed = 1;
nodes = (
"561 342 OFFCURVE",
"472 342 OFFCURVE",
"362 342 CURVE SMOOTH",
"219 342 LINE",
"342 447 OFFCURVE",
"566 659 OFFCURVE",
"566 848 CURVE SMOOTH",
"566 992 OFFCURVE",
"448 1083 OFFCURVE",
"314 1083 CURVE SMOOTH",
"220 1083 OFFCURVE",
"115 1037 OFFCURVE",
"70 973 CURVE",
"94 878 LINE",
"145 939 OFFCURVE",
"225 983 OFFCURVE",
"295 983 CURVE SMOOTH",
"375 983 OFFCURVE",
"454 941 OFFCURVE",
"454 836 CURVE SMOOTH",
"454 681 OFFCURVE",
"220 455 OFFCURVE",
"67 344 CURVE",
"67 250 LINE",
"605 250 LINE",
"605 351 LINE"
);
}
);
width = 674;
},
{
anchors = (
{
name = _digit;
position = "{0, 0}";
},
{
name = digit;
position = "{674, 0}";
}
);
layerId = "58C4FD73-E369-47FC-BB2E-BA826F97CEB5";
paths = (
{
closed = 1;
nodes = (
"561 342 OFFCURVE",
"472 342 OFFCURVE",
"362 342 CURVE SMOOTH",
"219 342 LINE",
"342 447 OFFCURVE",
"566 659 OFFCURVE",
"566 848 CURVE SMOOTH",
"566 992 OFFCURVE",
"448 1083 OFFCURVE",
"314 1083 CURVE SMOOTH",
"220 1083 OFFCURVE",
"115 1037 OFFCURVE",
"70 973 CURVE",
"94 878 LINE",
"145 939 OFFCURVE",
"225 983 OFFCURVE",
"295 983 CURVE SMOOTH",
"375 983 OFFCURVE",
"454 941 OFFCURVE",
"454 836 CURVE SMOOTH",
"454 681 OFFCURVE",
"220 455 OFFCURVE",
"67 344 CURVE",
"67 250 LINE",
"605 250 LINE",
"605 351 LINE"
);
}
);
width = 674;
}
);
},
{
glyphname = two.small;
layers = (
{
anchors = (
{
name = _digit;
position = "{0, 0}";
},
{
name = digit;
position = "{494, 0}";
}
);
layerId = UUID0;
paths = (
{
closed = 1;
nodes = (
"411 438 OFFCURVE",
"346 438 OFFCURVE",
"266 438 CURVE SMOOTH",
"161 438 LINE",
"251 515 OFFCURVE",
"415 670 OFFCURVE",
"415 808 CURVE SMOOTH",
"415 914 OFFCURVE",
"329 981 OFFCURVE",
"230 981 CURVE SMOOTH",
"161 981 OFFCURVE",
"85 947 OFFCURVE",
"52 900 CURVE",
"69 831 LINE",
"107 875 OFFCURVE",
"165 907 OFFCURVE",
"216 907 CURVE SMOOTH",
"275 907 OFFCURVE",
"333 877 OFFCURVE",
"333 800 CURVE SMOOTH",
"333 686 OFFCURVE",
"161 521 OFFCURVE",
"49 439 CURVE",
"49 370 LINE",
"444 370 LINE",
"444 444 LINE"
);
}
);
width = 494;
},
{
anchors = (
{
name = _digit;
position = "{0, 0}";
},
{
name = digit;
position = "{494, 0}";
}
);
layerId = "58C4FD73-E369-47FC-BB2E-BA826F97CEB5";
paths = (
{
closed = 1;
nodes = (
"411 438 OFFCURVE",
"346 438 OFFCURVE",
"266 438 CURVE SMOOTH",
"161 438 LINE",
"251 515 OFFCURVE",
"415 670 OFFCURVE",
"415 808 CURVE SMOOTH",
"415 914 OFFCURVE",
"329 981 OFFCURVE",
"230 981 CURVE SMOOTH",
"161 981 OFFCURVE",
"85 947 OFFCURVE",
"52 900 CURVE",
"69 831 LINE",
"107 875 OFFCURVE",
"165 907 OFFCURVE",
"216 907 CURVE SMOOTH",
"275 907 OFFCURVE",
"333 877 OFFCURVE",
"333 800 CURVE SMOOTH",
"333 686 OFFCURVE",
"161 521 OFFCURVE",
"49 439 CURVE",
"49 370 LINE",
"444 370 LINE",
"444 444 LINE"
);
}
);
width = 494;
}
);
},
{
glyphname = three;
layers = (
{
anchors = (
{
name = L;
position = "{450, -75}";
},
{
name = U;
position = "{450, 1147}";
}
);
layerId = UUID0;
paths = (
{
closed = 1;
nodes = (
"307 525 LINE",
"360 525 LINE",
"537 525 OFFCURVE",
"671 441 OFFCURVE",
"671 318 CURVE SMOOTH",
"671 180 OFFCURVE",
"538 112 OFFCURVE",
"423 112 CURVE SMOOTH",
"288 112 OFFCURVE",
"183 174 OFFCURVE",
"101 266 CURVE",
"82 105 LINE",
"161 31 OFFCURVE",
"276 -18 OFFCURVE",
"408 -18 CURVE SMOOTH",
"625 -18 OFFCURVE",
"817 127 OFFCURVE",
"817 303 CURVE SMOOTH",
"817 504 OFFCURVE",
"646 582 OFFCURVE",
"540 600 CURVE",
"646 621 OFFCURVE",
"780 717 OFFCURVE",
"780 855 CURVE SMOOTH",
"780 1015 OFFCURVE",
"621 1113 OFFCURVE",
"435 1113 CURVE",
"309 1113 OFFCURVE",
"195 1062 OFFCURVE",
"135 993 CURVE",
"161 866 LINE",
"246 953 OFFCURVE",
"327 982 OFFCURVE",
"442 982 CURVE SMOOTH",
"533 982 OFFCURVE",
"637 937 OFFCURVE",
"637 836 CURVE SMOOTH",
"637 743 OFFCURVE",
"509 652 OFFCURVE",
"360 652 CURVE",
"307 652 LINE"
);
}
);
width = 900;
},
{
anchors = (
{
name = L;
position = "{468, -75}";
},
{
name = U;
position = "{468, 1147}";
}
);
layerId = "58C4FD73-E369-47FC-BB2E-BA826F97CEB5";
paths = (
{
closed = 1;
nodes = (
"300 483 LINE",
"367 483 LINE SMOOTH",
"537 483 OFFCURVE",
"633 411 OFFCURVE",
"633 318 CURVE SMOOTH",
"633 218 OFFCURVE",
"538 157 OFFCURVE",
"431 157 CURVE SMOOTH",
"311 157 OFFCURVE",
"190 211 OFFCURVE",
"108 303 CURVE",
"82 97 LINE",
"161 24 OFFCURVE",
"283 -18 OFFCURVE",
"416 -18 CURVE SMOOTH",
"663 -18 OFFCURVE",
"847 127 OFFCURVE",
"847 303 CURVE SMOOTH",
"847 504 OFFCURVE",
"676 567 OFFCURVE",
"570 585 CURVE",
"676 606 OFFCURVE",
"810 717 OFFCURVE",
"810 855 CURVE SMOOTH",
"810 1015 OFFCURVE",
"658 1113 OFFCURVE",
"442 1113 CURVE SMOOTH",
"317 1113 OFFCURVE",
"187 1062 OFFCURVE",
"127 993 CURVE",
"153 821 LINE",
"238 908 OFFCURVE",
"334 937 OFFCURVE",
"450 937 CURVE SMOOTH",
"524 937 OFFCURVE",
"600 894 OFFCURVE",
"600 826 CURVE SMOOTH",
"600 745 OFFCURVE",
"504 663 OFFCURVE",
"367 663 CURVE SMOOTH",
"300 663 LINE"
);
}
);
width = 930;
}
);
unicode = 0033;
},
{
glyphname = three.medium;
layers = (
{
anchors = (
{
name = _digit;
position = "{0, 0}";
},
{
name = digit;
position = "{674, 0}";
}
);
layerId = UUID0;
paths = (
{
closed = 1;
nodes = (
"229 642 LINE",
"269 642 LINE",
"402 642 OFFCURVE",
"502 580 OFFCURVE",
"502 488 CURVE SMOOTH",
"502 385 OFFCURVE",
"403 334 OFFCURVE",
"317 334 CURVE SMOOTH",
"216 334 OFFCURVE",
"136 380 OFFCURVE",
"76 449 CURVE",
"61 328 LINE",
"121 273 OFFCURVE",
"206 236 OFFCURVE",
"306 236 CURVE SMOOTH",
"467 236 OFFCURVE",
"611 344 OFFCURVE",
"611 477 CURVE SMOOTH",
"611 627 OFFCURVE",
"483 685 OFFCURVE",
"404 698 CURVE",
"483 715 OFFCURVE",
"583 787 OFFCURVE",
"583 890 CURVE SMOOTH",
"583 1010 OFFCURVE",
"464 1083 OFFCURVE",
"325 1083 CURVE",
"232 1083 OFFCURVE",
"146 1044 OFFCURVE",
"101 994 CURVE",
"121 898 LINE",
"184 963 OFFCURVE",
"244 984 OFFCURVE",
"331 984 CURVE SMOOTH",
"399 984 OFFCURVE",
"477 951 OFFCURVE",
"477 875 CURVE SMOOTH",
"477 806 OFFCURVE",
"380 738 OFFCURVE",
"269 738 CURVE",
"229 738 LINE"
);
}
);
width = 674;
},
{
anchors = (
{
name = _digit;
position = "{0, 0}";
},
{
name = digit;
position = "{674, 0}";
}
);
layerId = "58C4FD73-E369-47FC-BB2E-BA826F97CEB5";
paths = (
{
closed = 1;
nodes = (
"229 642 LINE",
"269 642 LINE",
"402 642 OFFCURVE",
"502 580 OFFCURVE",
"502 488 CURVE SMOOTH",
"502 385 OFFCURVE",
"403 334 OFFCURVE",
"317 334 CURVE SMOOTH",
"216 334 OFFCURVE",
"136 380 OFFCURVE",
"76 449 CURVE",
"61 328 LINE",
"121 273 OFFCURVE",
"206 236 OFFCURVE",
"306 236 CURVE SMOOTH",
"467 236 OFFCURVE",
"611 344 OFFCURVE",
"611 477 CURVE SMOOTH",
"611 627 OFFCURVE",
"483 685 OFFCURVE",
"404 698 CURVE",
"483 715 OFFCURVE",
"583 787 OFFCURVE",
"583 890 CURVE SMOOTH",
"583 1010 OFFCURVE",
"464 1083 OFFCURVE",
"325 1083 CURVE",
"232 1083 OFFCURVE",
"146 1044 OFFCURVE",
"101 994 CURVE",
"121 898 LINE",
"184 963 OFFCURVE",
"244 984 OFFCURVE",
"331 984 CURVE SMOOTH",
"399 984 OFFCURVE",
"477 951 OFFCURVE",
"477 875 CURVE SMOOTH",
"477 806 OFFCURVE",
"380 738 OFFCURVE",
"269 738 CURVE",
"229 738 LINE"
);
}
);
width = 674;
}
);
},
{
glyphname = three.small;
layers = (
{
anchors = (
{
name = _digit;
position = "{0, 0}";
},
{
name = digit;
position = "{494, 0}";
}
);
layerId = UUID0;
paths = (
{
closed = 1;
nodes = (
"168 658 LINE",
"197 658 LINE",
"295 658 OFFCURVE",
"369 612 OFFCURVE",
"369 545 CURVE SMOOTH",
"369 469 OFFCURVE",
"295 432 OFFCURVE",
"233 432 CURVE SMOOTH",
"158 432 OFFCURVE",
"100 466 OFFCURVE",
"56 516 CURVE",
"45 427 LINE",
"89 387 OFFCURVE",
"151 360 OFFCURVE",
"224 360 CURVE SMOOTH",
"343 360 OFFCURVE",
"448 439 OFFCURVE",
"448 537 CURVE SMOOTH",
"448 647 OFFCURVE",
"354 689 OFFCURVE",
"296 699 CURVE",
"354 711 OFFCURVE",
"428 764 OFFCURVE",
"428 839 CURVE SMOOTH",
"428 927 OFFCURVE",
"340 981 OFFCURVE",
"239 981 CURVE",
"170 981 OFFCURVE",
"107 952 OFFCURVE",
"74 916 CURVE",
"89 845 LINE",
"135 893 OFFCURVE",
"179 908 OFFCURVE",
"243 908 CURVE SMOOTH",
"293 908 OFFCURVE",
"350 884 OFFCURVE",
"350 829 CURVE SMOOTH",
"350 778 OFFCURVE",
"279 728 OFFCURVE",
"197 728 CURVE",
"168 728 LINE"
);
}
);
width = 494;
},
{
anchors = (
{
name = _digit;
position = "{0, 0}";
},
{
name = digit;
position = "{494, 0}";
}
);
layerId = "58C4FD73-E369-47FC-BB2E-BA826F97CEB5";
paths = (
{
closed = 1;
nodes = (
"168 658 LINE",
"197 658 LINE",
"295 658 OFFCURVE",
"369 612 OFFCURVE",
"369 545 CURVE SMOOTH",
"369 469 OFFCURVE",
"295 432 OFFCURVE",
"233 432 CURVE SMOOTH",
"158 432 OFFCURVE",
"100 466 OFFCURVE",
"56 516 CURVE",
"45 427 LINE",
"89 387 OFFCURVE",
"151 360 OFFCURVE",
"224 360 CURVE SMOOTH",
"343 360 OFFCURVE",
"448 439 OFFCURVE",
"448 537 CURVE SMOOTH",
"448 647 OFFCURVE",
"354 689 OFFCURVE",
"296 699 CURVE",
"354 711 OFFCURVE",
"428 764 OFFCURVE",
"428 839 CURVE SMOOTH",
"428 927 OFFCURVE",
"340 981 OFFCURVE",
"239 981 CURVE",
"170 981 OFFCURVE",
"107 952 OFFCURVE",
"74 916 CURVE",
"89 845 LINE",
"135 893 OFFCURVE",
"179 908 OFFCURVE",
"243 908 CURVE SMOOTH",
"293 908 OFFCURVE",
"350 884 OFFCURVE",
"350 829 CURVE SMOOTH",
"350 778 OFFCURVE",
"279 728 OFFCURVE",
"197 728 CURVE",
"168 728 LINE"
);
}
);
width = 494;
}
);
},
{
glyphname = four;
layers = (
{
anchors = (
{
name = L;
position = "{455, -75}";
},
{
name = U;
position = "{455, 1147}";
}
);
layerId = UUID0;
paths = (
{
closed = 1;
nodes = (
"843 412 LINE",
"701 412 LINE",
"701 1110 LINE",
"558 1110 LINE",
"67 412 LINE",
"67 296 LINE",
"558 296 LINE",
"558 0 LINE",
"701 0 LINE",
"701 296 LINE",
"843 296 LINE"
);
},
{
closed = 1;
nodes = (
"558 412 LINE",
"197 412 LINE",
"558 922 LINE"
);
}
);
width = 900;
},
{
anchors = (
{
name = L;
position = "{468, -75}";
},
{
name = U;
position = "{468, 1147}";
}
);
layerId = "58C4FD73-E369-47FC-BB2E-BA826F97CEB5";
paths = (
{
closed = 1;
nodes = (
"881 427 LINE",
"761 427 LINE",
"761 1095 LINE",
"536 1095 LINE",
"60 427 LINE",
"60 258 LINE",
"562 258 LINE",
"562 0 LINE",
"761 0 LINE",
"761 258 LINE",
"881 258 LINE"
);
},
{
closed = 1;
nodes = (
"562 427 LINE",
"243 427 LINE",
"562 858 LINE"
);
}
);
width = 930;
}
);
unicode = 0034;
},
{
glyphname = four.medium;
layers = (
{
anchors = (
{
name = _digit;
position = "{0, 0}";
},
{
name = digit;
position = "{674, 0}";
}
);
layerId = UUID0;
paths = (
{
closed = 1;
nodes = (
"631 558 LINE",
"524 558 LINE",
"524 1080 LINE",
"418 1080 LINE",
"49 558 LINE",
"49 471 LINE",
"418 471 LINE",
"418 250 LINE",
"524 250 LINE",
"524 471 LINE",
"631 471 LINE"
);
},
{
closed = 1;
nodes = (
"418 558 LINE",
"148 558 LINE",
"418 940 LINE"
);
}
);
width = 674;
},
{
anchors = (
{
name = _digit;
position = "{0, 0}";
},
{
name = digit;
position = "{674, 0}";
}
);
layerId = "58C4FD73-E369-47FC-BB2E-BA826F97CEB5";
paths = (
{
closed = 1;
nodes = (
"631 558 LINE",
"524 558 LINE",
"524 1080 LINE",
"418 1080 LINE",
"49 558 LINE",
"49 471 LINE",
"418 471 LINE",
"418 250 LINE",
"524 250 LINE",
"524 471 LINE",
"631 471 LINE"
);
},
{
closed = 1;
nodes = (
"418 558 LINE",
"148 558 LINE",
"418 940 LINE"
);
}
);
width = 674;
}
);
},
{
glyphname = four.small;
layers = (
{
anchors = (
{
name = _digit;
position = "{0, 0}";
},
{
name = digit;
position = "{494, 0}";
}
);
layerId = UUID0;
paths = (
{
closed = 1;
nodes = (
"463 596 LINE",
"384 596 LINE",
"384 979 LINE",
"307 979 LINE",
"36 596 LINE",
"36 532 LINE",
"307 532 LINE",
"307 370 LINE",
"384 370 LINE",
"384 532 LINE",
"463 532 LINE"
);
},
{
closed = 1;
nodes = (
"307 596 LINE",
"108 596 LINE",
"307 876 LINE"
);
}
);
width = 494;
},
{
anchors = (
{
name = _digit;
position = "{0, 0}";
},
{
name = digit;
position = "{494, 0}";
}
);
layerId = "58C4FD73-E369-47FC-BB2E-BA826F97CEB5";
paths = (
{
closed = 1;
nodes = (
"463 596 LINE",
"384 596 LINE",
"384 979 LINE",
"307 979 LINE",
"36 596 LINE",
"36 532 LINE",
"307 532 LINE",
"307 370 LINE",
"384 370 LINE",
"384 532 LINE",
"463 532 LINE"
);
},
{
closed = 1;
nodes = (
"307 596 LINE",
"108 596 LINE",
"307 876 LINE"
);
}
);
width = 494;
}
);
},
{
glyphname = five;
layers = (
{
anchors = (
{
name = L;
position = "{450, -75}";
},
{
name = U;
position = "{450, 1147}";
}
);
layerId = UUID0;
paths = (
{
closed = 1;
nodes = (
"239 549 OFFCURVE",
"303 562 OFFCURVE",
"382 562 CURVE SMOOTH",
"502 562 OFFCURVE",
"652 504 OFFCURVE",
"652 352 CURVE SMOOTH",
"652 201 OFFCURVE",
"547 116 OFFCURVE",
"397 116 CURVE SMOOTH",
"292 116 OFFCURVE",
"220 136 OFFCURVE",
"120 217 CURVE",
"97 60 LINE",
"191 1 OFFCURVE",
"272 -18 OFFCURVE",
"388 -18 CURVE SMOOTH",
"623 -18 OFFCURVE",
"795 122 OFFCURVE",
"795 356 CURVE SMOOTH",
"795 556 OFFCURVE",
"624 697 OFFCURVE",
"408 697 CURVE SMOOTH",
"354 697 OFFCURVE",
"308 693 OFFCURVE",
"285 690 CURVE",
"285 967 LINE",
"573 967 LINE",
"636 967 OFFCURVE",
"693 964 OFFCURVE",
"750 952 CURVE",
"750 1095 LINE",
"146 1095 LINE",
"146 513 LINE"
);
}
);
width = 900;
},
{
anchors = (
{
name = L;
position = "{468, -75}";
},
{
name = U;
position = "{468, 1147}";
}
);
layerId = "58C4FD73-E369-47FC-BB2E-BA826F97CEB5";
paths = (
{
closed = 1;
nodes = (
"239 519 OFFCURVE",
"318 532 OFFCURVE",
"397 532 CURVE SMOOTH",
"517 532 OFFCURVE",
"622 474 OFFCURVE",
"622 352 CURVE SMOOTH",
"622 238 OFFCURVE",
"532 161 OFFCURVE",
"412 161 CURVE SMOOTH",
"307 161 OFFCURVE",
"220 189 OFFCURVE",
"120 270 CURVE",
"90 60 LINE",
"183 1 OFFCURVE",
"288 -18 OFFCURVE",
"405 -18 CURVE SMOOTH",
"639 -18 OFFCURVE",
"832 122 OFFCURVE",
"832 356 CURVE SMOOTH",
"832 564 OFFCURVE",
"676 697 OFFCURVE",
"468 697 CURVE SMOOTH",
"422 697 OFFCURVE",
"366 683 OFFCURVE",
"341 671 CURVE",
"341 911 LINE",
"588 911 LINE SMOOTH",
"651 911 OFFCURVE",
"731 908 OFFCURVE",
"787 896 CURVE",
"787 1095 LINE",
"146 1095 LINE",
"146 483 LINE"
);
}
);
width = 930;
}
);
unicode = 0035;
},
{
glyphname = five.medium;
layers = (
{
anchors = (
{
name = _digit;
position = "{0, 0}";
},
{
name = digit;
position = "{674, 0}";
}
);
layerId = UUID0;
paths = (
{
closed = 1;
nodes = (
"178 661 OFFCURVE",
"226 670 OFFCURVE",
"286 670 CURVE SMOOTH",
"376 670 OFFCURVE",
"488 627 OFFCURVE",
"488 513 CURVE SMOOTH",
"488 400 OFFCURVE",
"409 337 OFFCURVE",
"297 337 CURVE SMOOTH",
"219 337 OFFCURVE",
"164 352 OFFCURVE",
"90 413 CURVE",
"73 295 LINE",
"143 251 OFFCURVE",
"204 236 OFFCURVE",
"290 236 CURVE SMOOTH",
"466 236 OFFCURVE",
"595 341 OFFCURVE",
"595 516 CURVE SMOOTH",
"595 666 OFFCURVE",
"466 771 OFFCURVE",
"306 771 CURVE SMOOTH",
"265 771 OFFCURVE",
"230 769 OFFCURVE",
"213 766 CURVE",
"213 973 LINE",
"430 973 LINE",
"477 973 OFFCURVE",
"520 971 OFFCURVE",
"561 962 CURVE",
"561 1069 LINE",
"109 1069 LINE",
"109 635 LINE"
);
}
);
width = 674;
},
{
anchors = (
{
name = _digit;
position = "{0, 0}";
},
{
name = digit;
position = "{674, 0}";
}
);
layerId = "58C4FD73-E369-47FC-BB2E-BA826F97CEB5";
paths = (
{
closed = 1;
nodes = (
"178 661 OFFCURVE",
"226 670 OFFCURVE",
"286 670 CURVE SMOOTH",
"376 670 OFFCURVE",
"488 627 OFFCURVE",
"488 513 CURVE SMOOTH",
"488 400 OFFCURVE",
"409 337 OFFCURVE",
"297 337 CURVE SMOOTH",
"219 337 OFFCURVE",
"164 352 OFFCURVE",
"90 413 CURVE",
"73 295 LINE",
"143 251 OFFCURVE",
"204 236 OFFCURVE",
"290 236 CURVE SMOOTH",
"466 236 OFFCURVE",
"595 341 OFFCURVE",
"595 516 CURVE SMOOTH",
"595 666 OFFCURVE",
"466 771 OFFCURVE",
"306 771 CURVE SMOOTH",
"265 771 OFFCURVE",
"230 769 OFFCURVE",
"213 766 CURVE",
"213 973 LINE",
"430 973 LINE",
"477 973 OFFCURVE",
"520 971 OFFCURVE",
"561 962 CURVE",
"561 1069 LINE",
"109 1069 LINE",
"109 635 LINE"
);
}
);
width = 674;
}
);
},
{
glyphname = five.small;
layers = (
{
anchors = (
{
name = _digit;
position = "{0, 0}";
},
{
name = digit;
position = "{494, 0}";
}
);
layerId = UUID0;
paths = (
{
closed = 1;
nodes = (
"131 671 OFFCURVE",
"166 678 OFFCURVE",
"210 678 CURVE SMOOTH",
"276 678 OFFCURVE",
"358 647 OFFCURVE",
"358 563 CURVE SMOOTH",
"358 480 OFFCURVE",
"300 434 OFFCURVE",
"218 434 CURVE SMOOTH",
"161 434 OFFCURVE",
"120 445 OFFCURVE",
"66 489 CURVE",
"53 403 LINE",
"105 371 OFFCURVE",
"150 360 OFFCURVE",
"213 360 CURVE SMOOTH",
"342 360 OFFCURVE",
"436 437 OFFCURVE",
"436 565 CURVE SMOOTH",
"436 675 OFFCURVE",
"342 752 OFFCURVE",
"224 752 CURVE SMOOTH",
"194 752 OFFCURVE",
"169 751 OFFCURVE",
"156 748 CURVE",
"156 900 LINE",
"315 900 LINE",
"350 900 OFFCURVE",
"381 899 OFFCURVE",
"411 892 CURVE",
"411 971 LINE",
"80 971 LINE",
"80 652 LINE"
);
}
);
width = 494;
},
{
anchors = (
{
name = _digit;
position = "{0, 0}";
},
{
name = digit;
position = "{494, 0}";
}
);
layerId = "58C4FD73-E369-47FC-BB2E-BA826F97CEB5";
paths = (
{
closed = 1;
nodes = (
"131 671 OFFCURVE",
"166 678 OFFCURVE",
"210 678 CURVE SMOOTH",
"276 678 OFFCURVE",
"358 647 OFFCURVE",
"358 563 CURVE SMOOTH",
"358 480 OFFCURVE",
"300 434 OFFCURVE",
"218 434 CURVE SMOOTH",
"161 434 OFFCURVE",
"120 445 OFFCURVE",
"66 489 CURVE",
"53 403 LINE",
"105 371 OFFCURVE",
"150 360 OFFCURVE",
"213 360 CURVE SMOOTH",
"342 360 OFFCURVE",
"436 437 OFFCURVE",
"436 565 CURVE SMOOTH",
"436 675 OFFCURVE",
"342 752 OFFCURVE",
"224 752 CURVE SMOOTH",
"194 752 OFFCURVE",
"169 751 OFFCURVE",
"156 748 CURVE",
"156 900 LINE",
"315 900 LINE",
"350 900 OFFCURVE",
"381 899 OFFCURVE",
"411 892 CURVE",
"411 971 LINE",
"80 971 LINE",
"80 652 LINE"
);
}
);
width = 494;
}
);
},
{
glyphname = six;
layers = (
{
anchors = (
{
name = L;
position = "{450, -75}";
},
{
name = U;
position = "{450, 1147}";
}
);
layerId = UUID0;
paths = (
{
closed = 1;
nodes = (
"696 1098 OFFCURVE",
"632 1113 OFFCURVE",
"543 1113 CURVE SMOOTH",
"187 1113 OFFCURVE",
"82 786 OFFCURVE",
"82 510 CURVE SMOOTH",
"82 181 OFFCURVE",
"217 -18 OFFCURVE",
"450 -18 CURVE SMOOTH",
"680 -18 OFFCURVE",
"836 124 OFFCURVE",
"836 352 CURVE SMOOTH",
"836 539 OFFCURVE",
"707 671 OFFCURVE",
"498 671 CURVE SMOOTH",
"355 671 OFFCURVE",
"246 585 OFFCURVE",
"161 468 CURVE",
"210 412 LINE",
"271 489 OFFCURVE",
"367 540 OFFCURVE",
"483 540 CURVE SMOOTH",
"618 540 OFFCURVE",
"690 458 OFFCURVE",
"690 326 CURVE SMOOTH",
"690 206 OFFCURVE",
"604 112 OFFCURVE",
"472 112 CURVE SMOOTH",
"306 112 OFFCURVE",
"228 294 OFFCURVE",
"228 483 CURVE SMOOTH",
"228 849 OFFCURVE",
"358 982 OFFCURVE",
"536 982 CURVE SMOOTH",
"608 982 OFFCURVE",
"677 964 OFFCURVE",
"741 900 CURVE",
"774 1046 LINE"
);
}
);
width = 900;
},
{
anchors = (
{
name = L;
position = "{468, -75}";
},
{
name = U;
position = "{468, 1147}";
}
);
layerId = "58C4FD73-E369-47FC-BB2E-BA826F97CEB5";
paths = (
{
closed = 1;
nodes = (
"734 1098 OFFCURVE",
"662 1113 OFFCURVE",
"558 1113 CURVE SMOOTH",
"202 1113 OFFCURVE",
"75 801 OFFCURVE",
"75 510 CURVE SMOOTH",
"75 167 OFFCURVE",
"230 -18 OFFCURVE",
"496 -18 CURVE SMOOTH",
"723 -18 OFFCURVE",
"873 134 OFFCURVE",
"873 352 CURVE SMOOTH",
"873 546 OFFCURVE",
"729 693 OFFCURVE",
"513 693 CURVE SMOOTH",
"370 693 OFFCURVE",
"261 607 OFFCURVE",
"176 491 CURVE",
"225 405 LINE",
"286 482 OFFCURVE",
"382 532 OFFCURVE",
"498 532 CURVE SMOOTH",
"618 532 OFFCURVE",
"682 450 OFFCURVE",
"682 341 CURVE SMOOTH",
"682 246 OFFCURVE",
"609 157 OFFCURVE",
"499 157 CURVE SMOOTH",
"363 157 OFFCURVE",
"273 289 OFFCURVE",
"273 483 CURVE SMOOTH",
"273 849 OFFCURVE",
"403 937 OFFCURVE",
"551 937 CURVE SMOOTH",
"623 937 OFFCURVE",
"699 919 OFFCURVE",
"764 855 CURVE",
"812 1046 LINE"
);
}
);
width = 930;
}
);
unicode = 0036;
},
{
glyphname = six.medium;
layers = (
{
anchors = (
{
name = _digit;
position = "{0, 0}";
},
{
name = digit;
position = "{674, 0}";
}
);
layerId = UUID0;
paths = (
{
closed = 1;
nodes = (
"521 1072 OFFCURVE",
"473 1083 OFFCURVE",
"406 1083 CURVE SMOOTH",
"139 1083 OFFCURVE",
"61 839 OFFCURVE",
"61 631 CURVE SMOOTH",
"61 385 OFFCURVE",
"163 236 OFFCURVE",
"336 236 CURVE SMOOTH",
"508 236 OFFCURVE",
"625 342 OFFCURVE",
"625 513 CURVE SMOOTH",
"625 653 OFFCURVE",
"529 752 OFFCURVE",
"373 752 CURVE SMOOTH",
"265 752 OFFCURVE",
"184 687 OFFCURVE",
"121 600 CURVE",
"157 558 LINE",
"203 616 OFFCURVE",
"274 654 OFFCURVE",
"362 654 CURVE SMOOTH",
"463 654 OFFCURVE",
"516 593 OFFCURVE",
"516 494 CURVE SMOOTH",
"516 404 OFFCURVE",
"451 334 OFFCURVE",
"353 334 CURVE SMOOTH",
"229 334 OFFCURVE",
"171 470 OFFCURVE",
"171 612 CURVE SMOOTH",
"171 884 OFFCURVE",
"268 984 OFFCURVE",
"401 984 CURVE SMOOTH",
"454 984 OFFCURVE",
"506 971 OFFCURVE",
"555 923 CURVE",
"580 1032 LINE"
);
}
);
width = 674;
},
{
anchors = (
{
name = _digit;
position = "{0, 0}";
},
{
name = digit;
position = "{674, 0}";
}
);
layerId = "58C4FD73-E369-47FC-BB2E-BA826F97CEB5";
paths = (
{
closed = 1;
nodes = (
"521 1072 OFFCURVE",
"473 1083 OFFCURVE",
"406 1083 CURVE SMOOTH",
"139 1083 OFFCURVE",
"61 839 OFFCURVE",
"61 631 CURVE SMOOTH",
"61 385 OFFCURVE",
"163 236 OFFCURVE",
"336 236 CURVE SMOOTH",
"508 236 OFFCURVE",
"625 342 OFFCURVE",
"625 513 CURVE SMOOTH",
"625 653 OFFCURVE",
"529 752 OFFCURVE",
"373 752 CURVE SMOOTH",
"265 752 OFFCURVE",
"184 687 OFFCURVE",
"121 600 CURVE",
"157 558 LINE",
"203 616 OFFCURVE",
"274 654 OFFCURVE",
"362 654 CURVE SMOOTH",
"463 654 OFFCURVE",
"516 593 OFFCURVE",
"516 494 CURVE SMOOTH",
"516 404 OFFCURVE",
"451 334 OFFCURVE",
"353 334 CURVE SMOOTH",
"229 334 OFFCURVE",
"171 470 OFFCURVE",
"171 612 CURVE SMOOTH",
"171 884 OFFCURVE",
"268 984 OFFCURVE",
"401 984 CURVE SMOOTH",
"454 984 OFFCURVE",
"506 971 OFFCURVE",
"555 923 CURVE",
"580 1032 LINE"
);
}
);
width = 674;
}
);
},
{
glyphname = six.small;
layers = (
{
anchors = (
{
name = _digit;
position = "{0, 0}";
},
{
name = digit;
position = "{494, 0}";
}
);
layerId = UUID0;
paths = (
{
closed = 1;
nodes = (
"382 973 OFFCURVE",
"347 981 OFFCURVE",
"298 981 CURVE SMOOTH",
"102 981 OFFCURVE",
"45 802 OFFCURVE",
"45 649 CURVE SMOOTH",
"45 469 OFFCURVE",
"119 360 OFFCURVE",
"246 360 CURVE SMOOTH",
"373 360 OFFCURVE",
"459 438 OFFCURVE",
"459 563 CURVE SMOOTH",
"459 666 OFFCURVE",
"388 739 OFFCURVE",
"274 739 CURVE SMOOTH",
"195 739 OFFCURVE",
"135 691 OFFCURVE",
"89 627 CURVE",
"115 596 LINE",
"149 638 OFFCURVE",
"201 666 OFFCURVE",
"266 666 CURVE SMOOTH",
"339 666 OFFCURVE",
"378 621 OFFCURVE",
"378 549 CURVE SMOOTH",
"378 483 OFFCURVE",
"331 432 OFFCURVE",
"259 432 CURVE SMOOTH",
"168 432 OFFCURVE",
"125 532 OFFCURVE",
"125 636 CURVE SMOOTH",
"125 835 OFFCURVE",
"196 908 OFFCURVE",
"294 908 CURVE SMOOTH",
"333 908 OFFCURVE",
"371 899 OFFCURVE",
"407 864 CURVE",
"425 944 LINE"
);
}
);
width = 494;
},
{
anchors = (
{
name = _digit;
position = "{0, 0}";
},
{
name = digit;
position = "{494, 0}";
}
);
layerId = "58C4FD73-E369-47FC-BB2E-BA826F97CEB5";
paths = (
{
closed = 1;
nodes = (
"382 973 OFFCURVE",
"347 981 OFFCURVE",
"298 981 CURVE SMOOTH",
"102 981 OFFCURVE",
"45 802 OFFCURVE",
"45 649 CURVE SMOOTH",
"45 469 OFFCURVE",
"119 360 OFFCURVE",
"246 360 CURVE SMOOTH",
"373 360 OFFCURVE",
"459 438 OFFCURVE",
"459 563 CURVE SMOOTH",
"459 666 OFFCURVE",
"388 739 OFFCURVE",
"274 739 CURVE SMOOTH",
"195 739 OFFCURVE",
"135 691 OFFCURVE",
"89 627 CURVE",
"115 596 LINE",
"149 638 OFFCURVE",
"201 666 OFFCURVE",
"266 666 CURVE SMOOTH",
"339 666 OFFCURVE",
"378 621 OFFCURVE",
"378 549 CURVE SMOOTH",
"378 483 OFFCURVE",
"331 432 OFFCURVE",
"259 432 CURVE SMOOTH",
"168 432 OFFCURVE",
"125 532 OFFCURVE",
"125 636 CURVE SMOOTH",
"125 835 OFFCURVE",
"196 908 OFFCURVE",
"294 908 CURVE SMOOTH",
"333 908 OFFCURVE",
"371 899 OFFCURVE",
"407 864 CURVE",
"425 944 LINE"
);
}
);
width = 494;
}
);
},
{
glyphname = seven;
layers = (
{
anchors = (
{
name = L;
position = "{450, -75}";
},
{
name = U;
position = "{450, 1147}";
}
);
layerId = UUID0;
paths = (
{
closed = 1;
nodes = (
"441 344 OFFCURVE",
"595 671 OFFCURVE",
"817 975 CURVE",
"817 1095 LINE",
"75 1095 LINE",
"75 956 LINE",
"132 968 OFFCURVE",
"219 971 OFFCURVE",
"360 971 CURVE SMOOTH",
"652 971 LINE",
"459 684 OFFCURVE",
"329 424 OFFCURVE",
"206 0 CURVE",
"345 0 LINE"
);
}
);
width = 900;
},
{
anchors = (
{
name = L;
position = "{468, -75}";
},
{
name = U;
position = "{468, 1147}";
}
);
layerId = "58C4FD73-E369-47FC-BB2E-BA826F97CEB5";
paths = (
{
closed = 1;
nodes = (
"486 344 OFFCURVE",
"625 641 OFFCURVE",
"847 945 CURVE",
"847 1095 LINE",
"75 1095 LINE",
"75 896 LINE",
"132 908 OFFCURVE",
"219 911 OFFCURVE",
"360 911 CURVE SMOOTH",
"600 911 LINE",
"406 631 OFFCURVE",
"306 424 OFFCURVE",
"176 0 CURVE",
"390 0 LINE"
);
}
);
width = 930;
}
);
unicode = 0037;
},
{
glyphname = seven.medium;
layers = (
{
anchors = (
{
name = _digit;
position = "{0, 0}";
},
{
name = digit;
position = "{674, 0}";
}
);
layerId = UUID0;
paths = (
{
closed = 1;
nodes = (
"331 507 OFFCURVE",
"445 752 OFFCURVE",
"611 980 CURVE",
"611 1069 LINE",
"56 1069 LINE",
"56 965 LINE",
"99 974 OFFCURVE",
"163 977 OFFCURVE",
"269 977 CURVE SMOOTH",
"488 977 LINE",
"343 761 OFFCURVE",
"246 567 OFFCURVE",
"154 250 CURVE",
"258 250 LINE"
);
}
);
width = 674;
},
{
anchors = (
{
name = _digit;
position = "{0, 0}";
},
{
name = digit;
position = "{674, 0}";
}
);
layerId = "58C4FD73-E369-47FC-BB2E-BA826F97CEB5";
paths = (
{
closed = 1;
nodes = (
"331 507 OFFCURVE",
"445 752 OFFCURVE",
"611 980 CURVE",
"611 1069 LINE",
"56 1069 LINE",
"56 965 LINE",
"99 974 OFFCURVE",
"163 977 OFFCURVE",
"269 977 CURVE SMOOTH",
"488 977 LINE",
"343 761 OFFCURVE",
"246 567 OFFCURVE",
"154 250 CURVE",
"258 250 LINE"
);
}
);
width = 674;
}
);
},
{
glyphname = seven.small;
layers = (
{
anchors = (
{
name = _digit;
position = "{0, 0}";
},
{
name = digit;
position = "{494, 0}";
}
);
layerId = UUID0;
paths = (
{
closed = 1;
nodes = (
"243 559 OFFCURVE",
"327 739 OFFCURVE",
"448 905 CURVE",
"448 971 LINE",
"41 971 LINE",
"41 895 LINE",
"73 901 OFFCURVE",
"120 903 OFFCURVE",
"197 903 CURVE SMOOTH",
"358 903 LINE",
"252 745 OFFCURVE",
"180 603 OFFCURVE",
"113 370 CURVE",
"189 370 LINE"
);
}
);
width = 494;
},
{
anchors = (
{
name = _digit;
position = "{0, 0}";
},
{
name = digit;
position = "{494, 0}";
}
);
layerId = "58C4FD73-E369-47FC-BB2E-BA826F97CEB5";
paths = (
{
closed = 1;
nodes = (
"243 559 OFFCURVE",
"327 739 OFFCURVE",
"448 905 CURVE",
"448 971 LINE",
"41 971 LINE",
"41 895 LINE",
"73 901 OFFCURVE",
"120 903 OFFCURVE",
"197 903 CURVE SMOOTH",
"358 903 LINE",
"252 745 OFFCURVE",
"180 603 OFFCURVE",
"113 370 CURVE",
"189 370 LINE"
);
}
);
width = 494;
}
);
},
{
glyphname = eight;
layers = (
{
anchors = (
{
name = L;
position = "{450, -75}";
},
{
name = U;
position = "{450, 1147}";
}
);
layerId = UUID0;
paths = (
{
closed = 1;
nodes = (
"642 -18 OFFCURVE",
"832 100 OFFCURVE",
"832 303 CURVE SMOOTH",
"832 458 OFFCURVE",
"723 554 OFFCURVE",
"641 596 CURVE",
"699 633 OFFCURVE",
"787 692 OFFCURVE",
"787 828 CURVE SMOOTH",
"787 1012 OFFCURVE",
"630 1113 OFFCURVE",
"457 1113 CURVE SMOOTH",
"285 1113 OFFCURVE",
"112 1012 OFFCURVE",
"112 828 CURVE SMOOTH",
"112 692 OFFCURVE",
"204 628 OFFCURVE",
"262 596 CURVE",
"165 543 OFFCURVE",
"67 458 OFFCURVE",
"67 303 CURVE SMOOTH",
"67 100 OFFCURVE",
"258 -18 OFFCURVE",
"450 -18 CURVE SMOOTH"
);
},
{
closed = 1;
nodes = (
"645 711 OFFCURVE",
"557 648 OFFCURVE",
"450 648 CURVE SMOOTH",
"342 648 OFFCURVE",
"255 711 OFFCURVE",
"255 828 CURVE SMOOTH",
"255 939 OFFCURVE",
"342 993 OFFCURVE",
"450 993 CURVE SMOOTH",
"557 993 OFFCURVE",
"645 939 OFFCURVE",
"645 828 CURVE SMOOTH"
);
},
{
closed = 1;
nodes = (
"682 187 OFFCURVE",
"583 108 OFFCURVE",
"450 108 CURVE SMOOTH",
"315 108 OFFCURVE",
"217 187 OFFCURVE",
"217 318 CURVE SMOOTH",
"217 444 OFFCURVE",
"315 532 OFFCURVE",
"450 532 CURVE SMOOTH",
"583 532 OFFCURVE",
"682 444 OFFCURVE",
"682 318 CURVE SMOOTH"
);
}
);
width = 900;
},
{
anchors = (
{
name = L;
position = "{468, -75}";
},
{
name = U;
position = "{468, 1147}";
}
);
layerId = "58C4FD73-E369-47FC-BB2E-BA826F97CEB5";
paths = (
{
closed = 1;
nodes = (
"672 -18 OFFCURVE",
"862 108 OFFCURVE",
"862 311 CURVE SMOOTH",
"862 480 OFFCURVE",
"753 554 OFFCURVE",
"671 596 CURVE",
"729 630 OFFCURVE",
"810 692 OFFCURVE",
"810 828 CURVE SMOOTH",
"810 1012 OFFCURVE",
"660 1113 OFFCURVE",
"472 1113 CURVE SMOOTH",
"285 1113 OFFCURVE",
"120 1012 OFFCURVE",
"120 828 CURVE SMOOTH",
"120 692 OFFCURVE",
"204 628 OFFCURVE",
"262 596 CURVE",
"165 543 OFFCURVE",
"67 473 OFFCURVE",
"67 303 CURVE SMOOTH",
"67 100 OFFCURVE",
"258 -18 OFFCURVE",
"465 -18 CURVE SMOOTH"
);
},
{
closed = 1;
nodes = (
"622 730 OFFCURVE",
"564 671 OFFCURVE",
"465 671 CURVE SMOOTH",
"365 671 OFFCURVE",
"307 730 OFFCURVE",
"307 817 CURVE SMOOTH",
"307 897 OFFCURVE",
"372 952 OFFCURVE",
"465 952 CURVE SMOOTH",
"572 952 OFFCURVE",
"622 890 OFFCURVE",
"622 817 CURVE SMOOTH"
);
},
{
closed = 1;
nodes = (
"663 240 OFFCURVE",
"591 153 OFFCURVE",
"465 153 CURVE SMOOTH",
"345 153 OFFCURVE",
"266 240 OFFCURVE",
"266 333 CURVE SMOOTH",
"266 436 OFFCURVE",
"352 510 OFFCURVE",
"465 510 CURVE SMOOTH",
"576 510 OFFCURVE",
"663 436 OFFCURVE",
"663 333 CURVE SMOOTH"
);
}
);
width = 930;
}
);
unicode = 0038;
},
{
glyphname = eight.medium;
layers = (
{
anchors = (
{
name = _digit;
position = "{0, 0}";
},
{
name = digit;
position = "{674, 0}";
}
);
layerId = UUID0;
paths = (
{
closed = 1;
nodes = (
"622 325 OFFCURVE",
"622 477 CURVE SMOOTH",
"622 593 OFFCURVE",
"541 665 OFFCURVE",
"479 696 CURVE",
"523 724 OFFCURVE",
"589 768 OFFCURVE",
"589 869 CURVE SMOOTH",
"589 1007 OFFCURVE",
"471 1083 OFFCURVE",
"342 1083 CURVE SMOOTH",
"214 1083 OFFCURVE",
"84 1007 OFFCURVE",
"84 869 CURVE SMOOTH",
"84 768 OFFCURVE",
"152 719 OFFCURVE",
"196 696 CURVE",
"124 656 OFFCURVE",
"49 593 OFFCURVE",
"49 477 CURVE SMOOTH",
"49 325 OFFCURVE",
"193 236 OFFCURVE",
"336 236 CURVE SMOOTH",
"481 236 OFFCURVE"
);
},
{
closed = 1;
nodes = (
"417 735 OFFCURVE",
"336 735 CURVE SMOOTH",
"256 735 OFFCURVE",
"191 783 OFFCURVE",
"191 869 CURVE SMOOTH",
"191 953 OFFCURVE",
"256 994 OFFCURVE",
"336 994 CURVE SMOOTH",
"417 994 OFFCURVE",
"482 953 OFFCURVE",
"482 869 CURVE SMOOTH",
"482 783 OFFCURVE"
);
},
{
closed = 1;
nodes = (
"436 331 OFFCURVE",
"336 331 CURVE SMOOTH",
"235 331 OFFCURVE",
"163 389 OFFCURVE",
"163 488 CURVE SMOOTH",
"163 582 OFFCURVE",
"235 648 OFFCURVE",
"336 648 CURVE SMOOTH",
"436 648 OFFCURVE",
"510 582 OFFCURVE",
"510 488 CURVE SMOOTH",
"510 389 OFFCURVE"
);
}
);
width = 674;
},
{
anchors = (
{
name = _digit;
position = "{0, 0}";
},
{
name = digit;
position = "{674, 0}";
}
);
layerId = "58C4FD73-E369-47FC-BB2E-BA826F97CEB5";
paths = (
{
closed = 1;
nodes = (
"622 325 OFFCURVE",
"622 477 CURVE SMOOTH",
"622 593 OFFCURVE",
"541 665 OFFCURVE",
"479 696 CURVE",
"523 724 OFFCURVE",
"589 768 OFFCURVE",
"589 869 CURVE SMOOTH",
"589 1007 OFFCURVE",
"471 1083 OFFCURVE",
"342 1083 CURVE SMOOTH",
"214 1083 OFFCURVE",
"84 1007 OFFCURVE",
"84 869 CURVE SMOOTH",
"84 768 OFFCURVE",
"152 719 OFFCURVE",
"196 696 CURVE",
"124 656 OFFCURVE",
"49 593 OFFCURVE",
"49 477 CURVE SMOOTH",
"49 325 OFFCURVE",
"193 236 OFFCURVE",
"336 236 CURVE SMOOTH",
"481 236 OFFCURVE"
);
},
{
closed = 1;
nodes = (
"417 735 OFFCURVE",
"336 735 CURVE SMOOTH",
"256 735 OFFCURVE",
"191 783 OFFCURVE",
"191 869 CURVE SMOOTH",
"191 953 OFFCURVE",
"256 994 OFFCURVE",
"336 994 CURVE SMOOTH",
"417 994 OFFCURVE",
"482 953 OFFCURVE",
"482 869 CURVE SMOOTH",
"482 783 OFFCURVE"
);
},
{
closed = 1;
nodes = (
"436 331 OFFCURVE",
"336 331 CURVE SMOOTH",
"235 331 OFFCURVE",
"163 389 OFFCURVE",
"163 488 CURVE SMOOTH",
"163 582 OFFCURVE",
"235 648 OFFCURVE",
"336 648 CURVE SMOOTH",
"436 648 OFFCURVE",
"510 582 OFFCURVE",
"510 488 CURVE SMOOTH",
"510 389 OFFCURVE"
);
}
);
width = 674;
}
);
},
{
glyphname = eight.small;
layers = (
{
anchors = (
{
name = _digit;
position = "{0, 0}";
},
{
name = digit;
position = "{494, 0}";
}
);
layerId = UUID0;
paths = (
{
closed = 1;
nodes = (
"457 425 OFFCURVE",
"457 537 CURVE SMOOTH",
"457 621 OFFCURVE",
"397 674 OFFCURVE",
"351 697 CURVE",
"384 718 OFFCURVE",
"432 750 OFFCURVE",
"432 824 CURVE SMOOTH",
"432 925 OFFCURVE",
"345 981 OFFCURVE",
"251 981 CURVE SMOOTH",
"157 981 OFFCURVE",
"62 925 OFFCURVE",
"62 824 CURVE SMOOTH",
"62 750 OFFCURVE",
"112 714 OFFCURVE",
"144 697 CURVE",
"91 668 OFFCURVE",
"36 621 OFFCURVE",
"36 537 CURVE SMOOTH",
"36 425 OFFCURVE",
"141 360 OFFCURVE",
"246 360 CURVE SMOOTH",
"353 360 OFFCURVE"
);
},
{
closed = 1;
nodes = (
"306 726 OFFCURVE",
"246 726 CURVE SMOOTH",
"188 726 OFFCURVE",
"140 761 OFFCURVE",
"140 824 CURVE SMOOTH",
"140 885 OFFCURVE",
"188 916 OFFCURVE",
"246 916 CURVE SMOOTH",
"306 916 OFFCURVE",
"354 885 OFFCURVE",
"354 824 CURVE SMOOTH",
"354 761 OFFCURVE"
);
},
{
closed = 1;
nodes = (
"320 429 OFFCURVE",
"246 429 CURVE SMOOTH",
"173 429 OFFCURVE",
"119 472 OFFCURVE",
"119 545 CURVE SMOOTH",
"119 614 OFFCURVE",
"173 662 OFFCURVE",
"246 662 CURVE SMOOTH",
"320 662 OFFCURVE",
"374 614 OFFCURVE",
"374 545 CURVE SMOOTH",
"374 472 OFFCURVE"
);
}
);
width = 494;
},
{
anchors = (
{
name = _digit;
position = "{0, 0}";
},
{
name = digit;
position = "{494, 0}";
}
);
layerId = "58C4FD73-E369-47FC-BB2E-BA826F97CEB5";
paths = (
{
closed = 1;
nodes = (
"457 425 OFFCURVE",
"457 537 CURVE SMOOTH",
"457 621 OFFCURVE",
"397 674 OFFCURVE",
"351 697 CURVE",
"384 718 OFFCURVE",
"432 750 OFFCURVE",
"432 824 CURVE SMOOTH",
"432 925 OFFCURVE",
"345 981 OFFCURVE",
"251 981 CURVE SMOOTH",
"157 981 OFFCURVE",
"62 925 OFFCURVE",
"62 824 CURVE SMOOTH",
"62 750 OFFCURVE",
"112 714 OFFCURVE",
"144 697 CURVE",
"91 668 OFFCURVE",
"36 621 OFFCURVE",
"36 537 CURVE SMOOTH",
"36 425 OFFCURVE",
"141 360 OFFCURVE",
"246 360 CURVE SMOOTH",
"353 360 OFFCURVE"
);
},
{
closed = 1;
nodes = (
"306 726 OFFCURVE",
"246 726 CURVE SMOOTH",
"188 726 OFFCURVE",
"140 761 OFFCURVE",
"140 824 CURVE SMOOTH",
"140 885 OFFCURVE",
"188 916 OFFCURVE",
"246 916 CURVE SMOOTH",
"306 916 OFFCURVE",
"354 885 OFFCURVE",
"354 824 CURVE SMOOTH",
"354 761 OFFCURVE"
);
},
{
closed = 1;
nodes = (
"320 429 OFFCURVE",
"246 429 CURVE SMOOTH",
"173 429 OFFCURVE",
"119 472 OFFCURVE",
"119 545 CURVE SMOOTH",
"119 614 OFFCURVE",
"173 662 OFFCURVE",
"246 662 CURVE SMOOTH",
"320 662 OFFCURVE",
"374 614 OFFCURVE",
"374 545 CURVE SMOOTH",
"374 472 OFFCURVE"
);
}
);
width = 494;
}
);
},
{
glyphname = nine;
layers = (
{
anchors = (
{
name = L;
position = "{450, -75}";
},
{
name = U;
position = "{450, 1147}";
}
);
layerId = UUID0;
paths = (
{
closed = 1;
nodes = (
"222 -3 OFFCURVE",
"287 -18 OFFCURVE",
"375 -18 CURVE SMOOTH",
"732 -18 OFFCURVE",
"835 308 OFFCURVE",
"835 585 CURVE SMOOTH",
"835 898 OFFCURVE",
"694 1113 OFFCURVE",
"462 1113 CURVE SMOOTH",
"261 1113 OFFCURVE",
"84 979 OFFCURVE",
"84 751 CURVE SMOOTH",
"84 579 OFFCURVE",
"210 439 OFFCURVE",
"419 439 CURVE SMOOTH",
"562 439 OFFCURVE",
"691 537 OFFCURVE",
"764 658 CURVE",
"711 720 LINE",
"655 635 OFFCURVE",
"553 570 OFFCURVE",
"437 570 CURVE SMOOTH",
"318 570 OFFCURVE",
"229 645 OFFCURVE",
"229 777 CURVE SMOOTH",
"229 897 OFFCURVE",
"315 982 OFFCURVE",
"447 982 CURVE SMOOTH",
"627 982 OFFCURVE",
"689 798 OFFCURVE",
"689 609 CURVE SMOOTH",
"689 244 OFFCURVE",
"561 112 OFFCURVE",
"383 112 CURVE SMOOTH",
"311 112 OFFCURVE",
"242 130 OFFCURVE",
"177 195 CURVE",
"144 48 LINE"
);
}
);
width = 900;
},
{
anchors = (
{
name = L;
position = "{468, -75}";
},
{
name = U;
position = "{468, 1147}";
}
);
layerId = "58C4FD73-E369-47FC-BB2E-BA826F97CEB5";
paths = (
{
closed = 1;
nodes = (
"189 3 OFFCURVE",
"276 -18 OFFCURVE",
"372 -18 CURVE SMOOTH",
"729 -18 OFFCURVE",
"855 308 OFFCURVE",
"855 585 CURVE SMOOTH",
"855 862 OFFCURVE",
"736 1113 OFFCURVE",
"445 1113 CURVE SMOOTH",
"236 1113 OFFCURVE",
"56 975 OFFCURVE",
"56 751 CURVE SMOOTH",
"56 572 OFFCURVE",
"207 432 OFFCURVE",
"416 432 CURVE SMOOTH",
"559 432 OFFCURVE",
"688 530 OFFCURVE",
"761 651 CURVE",
"708 743 LINE",
"652 657 OFFCURVE",
"550 592 OFFCURVE",
"434 592 CURVE SMOOTH",
"322 592 OFFCURVE",
"248 667 OFFCURVE",
"248 777 CURVE SMOOTH",
"248 864 OFFCURVE",
"322 937 OFFCURVE",
"433 937 CURVE SMOOTH",
"583 937 OFFCURVE",
"656 826 OFFCURVE",
"656 609 CURVE SMOOTH",
"656 244 OFFCURVE",
"528 157 OFFCURVE",
"380 157 CURVE SMOOTH",
"308 157 OFFCURVE",
"224 175 OFFCURVE",
"159 240 CURVE",
"119 48 LINE"
);
}
);
width = 930;
}
);
unicode = 0039;
},
{
glyphname = nine.medium;
layers = (
{
anchors = (
{
name = _digit;
position = "{0, 0}";
},
{
name = digit;
position = "{674, 0}";
}
);
layerId = UUID0;
paths = (
{
closed = 1;
nodes = (
"166 247 OFFCURVE",
"214 236 OFFCURVE",
"281 236 CURVE SMOOTH",
"548 236 OFFCURVE",
"625 480 OFFCURVE",
"625 687 CURVE SMOOTH",
"625 922 OFFCURVE",
"520 1083 OFFCURVE",
"346 1083 CURVE SMOOTH",
"196 1083 OFFCURVE",
"63 983 OFFCURVE",
"63 812 CURVE SMOOTH",
"63 684 OFFCURVE",
"158 578 OFFCURVE",
"313 578 CURVE SMOOTH",
"420 578 OFFCURVE",
"517 653 OFFCURVE",
"571 742 CURVE",
"532 789 LINE",
"490 725 OFFCURVE",
"414 676 OFFCURVE",
"327 676 CURVE SMOOTH",
"238 676 OFFCURVE",
"171 732 OFFCURVE",
"171 831 CURVE SMOOTH",
"171 921 OFFCURVE",
"235 984 OFFCURVE",
"334 984 CURVE SMOOTH",
"469 984 OFFCURVE",
"515 848 OFFCURVE",
"515 706 CURVE SMOOTH",
"515 432 OFFCURVE",
"420 334 OFFCURVE",
"286 334 CURVE SMOOTH",
"233 334 OFFCURVE",
"181 347 OFFCURVE",
"133 396 CURVE",
"108 286 LINE"
);
}
);
width = 674;
},
{
anchors = (
{
name = _digit;
position = "{0, 0}";
},
{
name = digit;
position = "{674, 0}";
}
);
layerId = "58C4FD73-E369-47FC-BB2E-BA826F97CEB5";
paths = (
{
closed = 1;
nodes = (
"166 247 OFFCURVE",
"214 236 OFFCURVE",
"281 236 CURVE SMOOTH",
"548 236 OFFCURVE",
"625 480 OFFCURVE",
"625 687 CURVE SMOOTH",
"625 922 OFFCURVE",
"520 1083 OFFCURVE",
"346 1083 CURVE SMOOTH",
"196 1083 OFFCURVE",
"63 983 OFFCURVE",
"63 812 CURVE SMOOTH",
"63 684 OFFCURVE",
"158 578 OFFCURVE",
"313 578 CURVE SMOOTH",
"420 578 OFFCURVE",
"517 653 OFFCURVE",
"571 742 CURVE",
"532 789 LINE",
"490 725 OFFCURVE",
"414 676 OFFCURVE",
"327 676 CURVE SMOOTH",
"238 676 OFFCURVE",
"171 732 OFFCURVE",
"171 831 CURVE SMOOTH",
"171 921 OFFCURVE",
"235 984 OFFCURVE",
"334 984 CURVE SMOOTH",
"469 984 OFFCURVE",
"515 848 OFFCURVE",
"515 706 CURVE SMOOTH",
"515 432 OFFCURVE",
"420 334 OFFCURVE",
"286 334 CURVE SMOOTH",
"233 334 OFFCURVE",
"181 347 OFFCURVE",
"133 396 CURVE",
"108 286 LINE"
);
}
);
width = 674;
}
);
},
{
glyphname = nine.small;
layers = (
{
anchors = (
{
name = _digit;
position = "{0, 0}";
},
{
name = digit;
position = "{494, 0}";
}
);
layerId = UUID0;
paths = (
{
closed = 1;
nodes = (
"122 368 OFFCURVE",
"157 360 OFFCURVE",
"206 360 CURVE SMOOTH",
"402 360 OFFCURVE",
"458 539 OFFCURVE",
"458 691 CURVE SMOOTH",
"458 863 OFFCURVE",
"381 981 OFFCURVE",
"254 981 CURVE SMOOTH",
"144 981 OFFCURVE",
"46 907 OFFCURVE",
"46 783 CURVE SMOOTH",
"46 688 OFFCURVE",
"116 611 OFFCURVE",
"230 611 CURVE SMOOTH",
"308 611 OFFCURVE",
"380 665 OFFCURVE",
"419 731 CURVE",
"391 765 LINE",
"360 719 OFFCURVE",
"304 682 OFFCURVE",
"240 682 CURVE SMOOTH",
"174 682 OFFCURVE",
"125 724 OFFCURVE",
"125 796 CURVE SMOOTH",
"125 862 OFFCURVE",
"173 908 OFFCURVE",
"245 908 CURVE SMOOTH",
"344 908 OFFCURVE",
"378 808 OFFCURVE",
"378 704 CURVE SMOOTH",
"378 504 OFFCURVE",
"308 432 OFFCURVE",
"210 432 CURVE SMOOTH",
"171 432 OFFCURVE",
"133 441 OFFCURVE",
"98 477 CURVE",
"79 396 LINE"
);
}
);
width = 494;
},
{
anchors = (
{
name = _digit;
position = "{0, 0}";
},
{
name = digit;
position = "{494, 0}";
}
);
layerId = "58C4FD73-E369-47FC-BB2E-BA826F97CEB5";
paths = (
{
closed = 1;
nodes = (
"122 368 OFFCURVE",
"157 360 OFFCURVE",
"206 360 CURVE SMOOTH",
"402 360 OFFCURVE",
"458 539 OFFCURVE",
"458 691 CURVE SMOOTH",
"458 863 OFFCURVE",
"381 981 OFFCURVE",
"254 981 CURVE SMOOTH",
"144 981 OFFCURVE",
"46 907 OFFCURVE",
"46 783 CURVE SMOOTH",
"46 688 OFFCURVE",
"116 611 OFFCURVE",
"230 611 CURVE SMOOTH",
"308 611 OFFCURVE",
"380 665 OFFCURVE",
"419 731 CURVE",
"391 765 LINE",
"360 719 OFFCURVE",
"304 682 OFFCURVE",
"240 682 CURVE SMOOTH",
"174 682 OFFCURVE",
"125 724 OFFCURVE",
"125 796 CURVE SMOOTH",
"125 862 OFFCURVE",
"173 908 OFFCURVE",
"245 908 CURVE SMOOTH",
"344 908 OFFCURVE",
"378 808 OFFCURVE",
"378 704 CURVE SMOOTH",
"378 504 OFFCURVE",
"308 432 OFFCURVE",
"210 432 CURVE SMOOTH",
"171 432 OFFCURVE",
"133 441 OFFCURVE",
"98 477 CURVE",
"79 396 LINE"
);
}
);
width = 494;
}
);
},
{
glyphname = colon;
layers = (
{
layerId = UUID0;
paths = (
{
closed = 1;
nodes = (
"138 537 OFFCURVE",
"184 491 OFFCURVE",
"240 491 CURVE SMOOTH",
"295 491 OFFCURVE",
"341 537 OFFCURVE",
"341 592 CURVE SMOOTH",
"341 648 OFFCURVE",
"295 693 OFFCURVE",
"240 693 CURVE SMOOTH",
"184 693 OFFCURVE",
"138 648 OFFCURVE",
"138 592 CURVE SMOOTH"
);
},
{
closed = 1;
nodes = (
"138 27 OFFCURVE",
"184 -18 OFFCURVE",
"240 -18 CURVE SMOOTH",
"295 -18 OFFCURVE",
"341 27 OFFCURVE",
"341 82 CURVE SMOOTH",
"341 138 OFFCURVE",
"295 183 OFFCURVE",
"240 183 CURVE SMOOTH",
"184 183 OFFCURVE",
"138 138 OFFCURVE",
"138 82 CURVE SMOOTH"
);
}
);
width = 480;
},
{
layerId = "58C4FD73-E369-47FC-BB2E-BA826F97CEB5";
paths = (
{
closed = 1;
nodes = (
"150 34 OFFCURVE",
"205 -18 OFFCURVE",
"281 -18 CURVE SMOOTH",
"357 -18 OFFCURVE",
"412 34 OFFCURVE",
"412 112 CURVE SMOOTH",
"412 189 OFFCURVE",
"357 243 OFFCURVE",
"281 243 CURVE SMOOTH",
"205 243 OFFCURVE",
"150 189 OFFCURVE",
"150 112 CURVE SMOOTH"
);
},
{
closed = 1;
nodes = (
"150 484 OFFCURVE",
"205 431 OFFCURVE",
"281 431 CURVE SMOOTH",
"357 431 OFFCURVE",
"412 484 OFFCURVE",
"412 562 CURVE SMOOTH",
"412 639 OFFCURVE",
"357 693 OFFCURVE",
"281 693 CURVE SMOOTH",
"205 693 OFFCURVE",
"150 639 OFFCURVE",
"150 562 CURVE SMOOTH"
);
}
);
width = 532;
}
);
unicode = 003A;
},
{
glyphname = semicolon;
layers = (
{
layerId = UUID0;
paths = (
{
closed = 1;
nodes = (
"138 537 OFFCURVE",
"184 491 OFFCURVE",
"240 491 CURVE SMOOTH",
"295 491 OFFCURVE",
"341 537 OFFCURVE",
"341 592 CURVE SMOOTH",
"341 648 OFFCURVE",
"295 693 OFFCURVE",
"240 693 CURVE SMOOTH",
"184 693 OFFCURVE",
"138 648 OFFCURVE",
"138 592 CURVE SMOOTH"
);
},
{
closed = 1;
nodes = (
"243 37 LINE",
"243 -38 OFFCURVE",
"186 -129 OFFCURVE",
"142 -172 CURVE",
"217 -202 LINE",
"305 -120 OFFCURVE",
"348 -27 OFFCURVE",
"348 63 CURVE SMOOTH",
"348 139 OFFCURVE",
"300 187 OFFCURVE",
"240 187 CURVE SMOOTH",
"197 187 OFFCURVE",
"148 159 OFFCURVE",
"138 112 CURVE",
"138 37 LINE"
);
}
);
width = 487;
},
{
layerId = "58C4FD73-E369-47FC-BB2E-BA826F97CEB5";
paths = (
{
closed = 1;
nodes = (
"150 484 OFFCURVE",
"205 431 OFFCURVE",
"281 431 CURVE SMOOTH",
"357 431 OFFCURVE",
"412 484 OFFCURVE",
"412 562 CURVE SMOOTH",
"412 639 OFFCURVE",
"357 693 OFFCURVE",
"281 693 CURVE SMOOTH",
"205 693 OFFCURVE",
"150 639 OFFCURVE",
"150 562 CURVE SMOOTH"
);
},
{
closed = 1;
nodes = (
"258 37 LINE",
"258 -25 OFFCURVE",
"217 -114 OFFCURVE",
"138 -198 CURVE",
"247 -251 LINE",
"340 -171 OFFCURVE",
"420 -36 OFFCURVE",
"420 97 CURVE SMOOTH",
"420 190 OFFCURVE",
"366 255 OFFCURVE",
"281 255 CURVE SMOOTH",
"196 255 OFFCURVE",
"138 191 OFFCURVE",
"138 135 CURVE SMOOTH",
"138 37 LINE"
);
}
);
width = 532;
}
);
unicode = 003B;
},
{
glyphname = less;
layers = (
{
layerId = UUID0;
paths = (
{
closed = 1;
nodes = (
"217 547 LINE",
"810 776 LINE",
"810 911 LINE",
"75 611 LINE",
"75 483 LINE",
"810 183 LINE",
"810 318 LINE"
);
}
);
width = 900;
},
{
layerId = "58C4FD73-E369-47FC-BB2E-BA826F97CEB5";
paths = (
{
closed = 1;
nodes = (
"292 547 LINE",
"802 738 LINE",
"802 911 LINE",
"82 618 LINE",
"82 476 LINE",
"802 183 LINE",
"802 356 LINE"
);
}
);
width = 900;
}
);
unicode = 003C;
},
{
glyphname = equal;
layers = (
{
layerId = UUID0;
paths = (
{
closed = 1;
nodes = (
"810 360 LINE",
"810 472 LINE",
"90 472 LINE",
"90 360 LINE"
);
},
{
closed = 1;
nodes = (
"810 622 LINE",
"810 735 LINE",
"90 735 LINE",
"90 622 LINE"
);
}
);
width = 900;
},
{
layerId = "58C4FD73-E369-47FC-BB2E-BA826F97CEB5";
paths = (
{
closed = 1;
nodes = (
"810 337 LINE",
"810 487 LINE",
"90 487 LINE",
"90 337 LINE"
);
},
{
closed = 1;
nodes = (
"810 600 LINE",
"810 750 LINE",
"90 750 LINE",
"90 600 LINE"
);
}
);
width = 900;
}
);
unicode = 003D;
},
{
glyphname = greater;
layers = (
{
layerId = UUID0;
paths = (
{
closed = 1;
nodes = (
"682 547 LINE",
"90 318 LINE",
"90 183 LINE",
"825 483 LINE",
"825 611 LINE",
"90 911 LINE",
"90 776 LINE"
);
}
);
width = 900;
},
{
layerId = "58C4FD73-E369-47FC-BB2E-BA826F97CEB5";
paths = (
{
closed = 1;
nodes = (
"817 476 LINE",
"817 618 LINE",
"97 911 LINE",
"97 738 LINE",
"607 547 LINE",
"97 356 LINE",
"97 183 LINE"
);
}
);
width = 900;
}
);
unicode = 003E;
},
{
glyphname = question;
layers = (
{
layerId = UUID0;
paths = (
{
closed = 1;
nodes = (
"251 1155 OFFCURVE",
"154 1119 OFFCURVE",
"105 1072 CURVE",
"138 938 LINE",
"195 997 OFFCURVE",
"264 1023 OFFCURVE",
"324 1023 CURVE SMOOTH",
"434 1023 OFFCURVE",
"468 966 OFFCURVE",
"468 922 CURVE SMOOTH",
"468 869 OFFCURVE",
"429 819 OFFCURVE",
"363 735 CURVE SMOOTH",
"297 650 OFFCURVE",
"266 547 OFFCURVE",
"266 330 CURVE",
"405 330 LINE",
"405 540 OFFCURVE",
"420 604 OFFCURVE",
"498 695 CURVE SMOOTH",
"564 771 OFFCURVE",
"622 837 OFFCURVE",
"622 930 CURVE SMOOTH",
"622 1066 OFFCURVE",
"522 1155 OFFCURVE",
"345 1155 CURVE SMOOTH"
);
},
{
closed = 1;
nodes = (
"236 27 OFFCURVE",
"282 -18 OFFCURVE",
"337 -18 CURVE SMOOTH",
"393 -18 OFFCURVE",
"438 27 OFFCURVE",
"438 82 CURVE SMOOTH",
"438 138 OFFCURVE",
"393 183 OFFCURVE",
"337 183 CURVE SMOOTH",
"282 183 OFFCURVE",
"236 138 OFFCURVE",
"236 82 CURVE SMOOTH"
);
}
);
width = 787;
},
{
layerId = "58C4FD73-E369-47FC-BB2E-BA826F97CEB5";
paths = (
{
closed = 1;
nodes = (
"480 503 OFFCURVE",
"501 603 OFFCURVE",
"575 717 CURVE SMOOTH",
"627 797 OFFCURVE",
"675 837 OFFCURVE",
"675 915 CURVE SMOOTH",
"675 1051 OFFCURVE",
"567 1155 OFFCURVE",
"375 1155 CURVE SMOOTH",
"266 1155 OFFCURVE",
"154 1102 OFFCURVE",
"105 1055 CURVE",
"138 876 LINE",
"195 935 OFFCURVE",
"279 971 OFFCURVE",
"354 971 CURVE SMOOTH",
"426 971 OFFCURVE",
"461 936 OFFCURVE",
"461 892 CURVE SMOOTH",
"461 854 OFFCURVE",
"423 822 OFFCURVE",
"371 735 CURVE SMOOTH",
"325 659 OFFCURVE",
"281 532 OFFCURVE",
"281 375 CURVE",
"480 375 LINE"
);
},
{
closed = 1;
nodes = (
"251 34 OFFCURVE",
"306 -18 OFFCURVE",
"382 -18 CURVE SMOOTH",
"459 -18 OFFCURVE",
"513 34 OFFCURVE",
"513 112 CURVE SMOOTH",
"513 189 OFFCURVE",
"459 243 OFFCURVE",
"382 243 CURVE SMOOTH",
"306 243 OFFCURVE",
"251 189 OFFCURVE",
"251 112 CURVE SMOOTH"
);
}
);
width = 817;
}
);
unicode = 003F;
},
{
glyphname = at;
layers = (
{
layerId = UUID0;
paths = (
{
closed = 1;
nodes = (
"1203 845 OFFCURVE",
"980 1053 OFFCURVE",
"660 1053 CURVE SMOOTH",
"348 1053 OFFCURVE",
"71 844 OFFCURVE",
"71 431 CURVE SMOOTH",
"71 36 OFFCURVE",
"348 -176 OFFCURVE",
"641 -176 CURVE SMOOTH",
"742 -176 OFFCURVE",
"862 -141 OFFCURVE",
"937 -88 CURVE",
"858 -7 LINE",
"793 -52 OFFCURVE",
"722 -71 OFFCURVE",
"652 -71 CURVE SMOOTH",
"392 -71 OFFCURVE",
"180 130 OFFCURVE",
"180 453 CURVE SMOOTH",
"180 752 OFFCURVE",
"406 952 OFFCURVE",
"652 952 CURVE SMOOTH",
"947 952 OFFCURVE",
"1098 751 OFFCURVE",
"1098 502 CURVE SMOOTH",
"1098 324 OFFCURVE",
"1011 236 OFFCURVE",
"960 236 CURVE SMOOTH",
"915 236 OFFCURVE",
"881 307 OFFCURVE",
"881 472 CURVE SMOOTH",
"881 735 LINE",
"816 761 OFFCURVE",
"720 780 OFFCURVE",
"660 780 CURVE SMOOTH",
"537 780 OFFCURVE",
"460 728 OFFCURVE",
"397 626 CURVE SMOOTH",
"361 567 OFFCURVE",
"341 489 OFFCURVE",
"341 397 CURVE SMOOTH",
"341 220 OFFCURVE",
"450 137 OFFCURVE",
"551 137 CURVE SMOOTH",
"639 137 OFFCURVE",
"741 274 OFFCURVE",
"780 367 CURVE",
"787 241 OFFCURVE",
"846 135 OFFCURVE",
"937 135 CURVE SMOOTH",
"1068 135 OFFCURVE",
"1203 276 OFFCURVE",
"1203 525 CURVE SMOOTH"
);
},
{
closed = 1;
nodes = (
"693 678 OFFCURVE",
"744 664 OFFCURVE",
"768 652 CURVE",
"768 540 LINE",
"744 436 OFFCURVE",
"628 240 OFFCURVE",
"561 240 CURVE SMOOTH",
"507 240 OFFCURVE",
"453 298 OFFCURVE",
"453 431 CURVE SMOOTH",
"453 489 OFFCURVE",
"465 548 OFFCURVE",
"487 585 CURVE SMOOTH",
"529 657 OFFCURVE",
"586 678 OFFCURVE",
"637 678 CURVE SMOOTH"
);
}
);
width = 1276;
},
{
layerId = "58C4FD73-E369-47FC-BB2E-BA826F97CEB5";
paths = (
{
closed = 1;
nodes = (
"807 -25 OFFCURVE",
"741 -45 OFFCURVE",
"671 -45 CURVE SMOOTH",
"418 -45 OFFCURVE",
"217 153 OFFCURVE",
"217 453 CURVE SMOOTH",
"217 729 OFFCURVE",
"417 930 OFFCURVE",
"671 930 CURVE SMOOTH",
"958 930 OFFCURVE",
"1095 744 OFFCURVE",
"1095 502 CURVE SMOOTH",
"1095 339 OFFCURVE",
"1022 251 OFFCURVE",
"978 251 CURVE SMOOTH",
"942 251 OFFCURVE",
"915 322 OFFCURVE",
"915 487 CURVE SMOOTH",
"915 735 LINE",
"849 761 OFFCURVE",
"739 780 OFFCURVE",
"678 780 CURVE SMOOTH",
"555 780 OFFCURVE",
"464 720 OFFCURVE",
"401 618 CURVE SMOOTH",
"365 560 OFFCURVE",
"345 489 OFFCURVE",
"345 397 CURVE SMOOTH",
"345 228 OFFCURVE",
"454 122 OFFCURVE",
"555 122 CURVE SMOOTH",
"650 122 OFFCURVE",
"759 248 OFFCURVE",
"798 341 CURVE",
"806 215 OFFCURVE",
"864 120 OFFCURVE",
"956 120 CURVE SMOOTH",
"1087 120 OFFCURVE",
"1237 268 OFFCURVE",
"1237 525 CURVE SMOOTH",
"1237 852 OFFCURVE",
"1006 1068 OFFCURVE",
"678 1068 CURVE SMOOTH",
"360 1068 OFFCURVE",
"67 852 OFFCURVE",
"67 431 CURVE SMOOTH",
"67 28 OFFCURVE",
"359 -183 OFFCURVE",
"660 -183 CURVE SMOOTH",
"761 -183 OFFCURVE",
"881 -148 OFFCURVE",
"956 -96 CURVE",
"855 7 LINE"
);
},
{
closed = 1;
nodes = (
"741 429 OFFCURVE",
"647 262 OFFCURVE",
"579 262 CURVE SMOOTH",
"525 262 OFFCURVE",
"495 321 OFFCURVE",
"495 431 CURVE SMOOTH",
"495 489 OFFCURVE",
"512 552 OFFCURVE",
"540 589 CURVE SMOOTH",
"566 624 OFFCURVE",
"605 641 OFFCURVE",
"656 641 CURVE SMOOTH",
"711 641 OFFCURVE",
"741 627 OFFCURVE",
"765 615 CURVE",
"765 532 LINE"
);
}
);
width = 1306;
}
);
unicode = 0040;
},
{
glyphname = A;
layers = (
{
anchors = (
{
name = H;
position = "{530, 0}";
},
{
name = L;
position = "{515, -75}";
},
{
name = O;
position = "{1087, 0}";
},
{
name = U;
position = "{515, 1147}";
}
);
layerId = UUID0;
paths = (
{
closed = 1;
nodes = (
"284 288 LINE",
"745 288 LINE",
"847 0 LINE",
"1001 0 LINE",
"975 60 OFFCURVE",
"946 126 OFFCURVE",
"896 266 CURVE SMOOTH",
"596 1095 LINE",
"435 1095 LINE",
"135 266 LINE SMOOTH",
"84 126 OFFCURVE",
"57 60 OFFCURVE",
"30 0 CURVE",
"183 0 LINE"
);
},
{
closed = 1;
nodes = (
"324 405 LINE",
"513 948 LINE",
"705 405 LINE"
);
}
);
width = 1046;
},
{
anchors = (
{
name = H;
position = "{956, 0}";
},
{
name = L;
position = "{549, -75}";
},
{
name = O;
position = "{1121, 0}";
},
{
name = U;
position = "{549, 1147}";
}
);
layerId = "58C4FD73-E369-47FC-BB2E-BA826F97CEB5";
paths = (
{
closed = 1;
nodes = (
"1056 0 LINE",
"1029 60 OFFCURVE",
"1005 126 OFFCURVE",
"958 266 CURVE SMOOTH",
"681 1095 LINE",
"414 1095 LINE",
"136 266 LINE SMOOTH",
"89 124 OFFCURVE",
"66 60 OFFCURVE",
"39 0 CURVE",
"262 0 LINE",
"345 266 LINE",
"753 266 LINE",
"836 0 LINE"
);
},
{
closed = 1;
nodes = (
"702 427 LINE",
"394 427 LINE",
"547 921 LINE"
);
}
);
width = 1113;
}
);
unicode = 0041;
},
{
glyphname = B;
layers = (
{
anchors = (
{
name = L;
position = "{461, -75}";
},
{
name = U;
position = "{461, 1147}";
}
);
layerId = UUID0;
paths = (
{
closed = 1;
nodes = (
"305 984 OFFCURVE",
"384 986 OFFCURVE",
"442 986 CURVE SMOOTH",
"593 986 OFFCURVE",
"652 929 OFFCURVE",
"652 817 CURVE SMOOTH",
"652 713 OFFCURVE",
"580 641 OFFCURVE",
"420 641 CURVE SMOOTH",
"273 641 LINE",
"273 982 LINE"
);
},
{
closed = 1;
nodes = (
"131 192 OFFCURVE",
"131 60 OFFCURVE",
"120 0 CURVE",
"159 -3 OFFCURVE",
"301 -7 OFFCURVE",
"453 -7 CURVE SMOOTH",
"741 -7 OFFCURVE",
"855 132 OFFCURVE",
"855 315 CURVE SMOOTH",
"855 501 OFFCURVE",
"730 569 OFFCURVE",
"615 600 CURVE",
"717 639 OFFCURVE",
"798 714 OFFCURVE",
"798 840 CURVE SMOOTH",
"798 1035 OFFCURVE",
"672 1102 OFFCURVE",
"450 1102 CURVE SMOOTH",
"323 1102 OFFCURVE",
"186 1099 OFFCURVE",
"120 1095 CURVE",
"131 1035 OFFCURVE",
"131 897 OFFCURVE",
"131 750 CURVE SMOOTH",
"131 341 LINE"
);
},
{
closed = 1;
nodes = (
"450 525 LINE SMOOTH",
"624 525 OFFCURVE",
"708 453 OFFCURVE",
"708 315 CURVE SMOOTH",
"708 159 OFFCURVE",
"585 112 OFFCURVE",
"457 112 CURVE SMOOTH",
"373 112 OFFCURVE",
"301 114 OFFCURVE",
"273 116 CURVE",
"273 525 LINE"
);
}
);
width = 963;
},
{
anchors = (
{
name = L;
position = "{502, -75}";
},
{
name = U;
position = "{502, 1147}";
}
);
layerId = "58C4FD73-E369-47FC-BB2E-BA826F97CEB5";
paths = (
{
closed = 1;
nodes = (
"365 937 OFFCURVE",
"421 939 OFFCURVE",
"473 939 CURVE SMOOTH",
"613 939 OFFCURVE",
"672 897 OFFCURVE",
"672 807 CURVE SMOOTH",
"672 713 OFFCURVE",
"595 656 OFFCURVE",
"453 656 CURVE SMOOTH",
"337 656 LINE",
"337 936 LINE"
);
},
{
closed = 1;
nodes = (
"123 192 OFFCURVE",
"123 60 OFFCURVE",
"112 0 CURVE",
"149 -1 OFFCURVE",
"300 -7 OFFCURVE",
"473 -7 CURVE SMOOTH",
"791 -7 OFFCURVE",
"933 135 OFFCURVE",
"933 322 CURVE SMOOTH",
"933 504 OFFCURVE",
"813 570 OFFCURVE",
"701 600 CURVE",
"798 637 OFFCURVE",
"877 710 OFFCURVE",
"877 832 CURVE SMOOTH",
"877 1033 OFFCURVE",
"702 1102 OFFCURVE",
"461 1102 CURVE SMOOTH",
"316 1102 OFFCURVE",
"186 1099 OFFCURVE",
"112 1095 CURVE",
"123 1035 OFFCURVE",
"123 897 OFFCURVE",
"123 750 CURVE SMOOTH",
"123 341 LINE SMOOTH"
);
},
{
closed = 1;
nodes = (
"482 493 LINE SMOOTH",
"639 493 OFFCURVE",
"729 440 OFFCURVE",
"729 337 CURVE SMOOTH",
"729 201 OFFCURVE",
"619 161 OFFCURVE",
"489 161 CURVE SMOOTH",
"414 161 OFFCURVE",
"362 163 OFFCURVE",
"337 165 CURVE",
"337 493 LINE"
);
}
);
width = 1038;
}
);
unicode = 0042;
},
{
glyphname = C;
layers = (
{
anchors = (
{
name = H;
position = "{562, 0}";
},
{
name = L;
position = "{562, -75}";
},
{
name = U;
position = "{562, 1147}";
}
);
layerId = UUID0;
paths = (
{
closed = 1;
nodes = (
"808 167 OFFCURVE",
"684 112 OFFCURVE",
"570 112 CURVE SMOOTH",
"366 112 OFFCURVE",
"217 282 OFFCURVE",
"217 551 CURVE SMOOTH",
"217 839 OFFCURVE",
"368 986 OFFCURVE",
"577 986 CURVE SMOOTH",
"668 986 OFFCURVE",
"772 958 OFFCURVE",
"866 873 CURVE",
"911 1008 LINE",
"804 1089 OFFCURVE",
"684 1113 OFFCURVE",
"577 1113 CURVE SMOOTH",
"313 1113 OFFCURVE",
"71 918 OFFCURVE",
"71 532 CURVE SMOOTH",
"71 195 OFFCURVE",
"259 -18 OFFCURVE",
"562 -18 CURVE SMOOTH",
"676 -18 OFFCURVE",
"835 24 OFFCURVE",
"922 105 CURVE",
"892 251 LINE"
);
}
);
width = 1016;
},
{
anchors = (
{
name = H;
position = "{558, 0}";
},
{
name = L;
position = "{558, -75}";
},
{
name = U;
position = "{558, 1147}";
}
);
layerId = "58C4FD73-E369-47FC-BB2E-BA826F97CEB5";
paths = (
{
closed = 1;
nodes = (
"828 219 OFFCURVE",
"705 165 OFFCURVE",
"592 165 CURVE SMOOTH",
"398 165 OFFCURVE",
"281 309 OFFCURVE",
"281 551 CURVE SMOOTH",
"281 805 OFFCURVE",
"417 933 OFFCURVE",
"600 933 CURVE SMOOTH",
"698 933 OFFCURVE",
"789 903 OFFCURVE",
"885 828 CURVE",
"937 1008 LINE",
"829 1086 OFFCURVE",
"726 1113 OFFCURVE",
"588 1113 CURVE SMOOTH",
"309 1113 OFFCURVE",
"67 918 OFFCURVE",
"67 532 CURVE SMOOTH",
"67 195 OFFCURVE",
"255 -18 OFFCURVE",
"566 -18 CURVE SMOOTH",
"694 -18 OFFCURVE",
"856 31 OFFCURVE",
"948 105 CURVE",
"911 303 LINE"
);
}
);
width = 1038;
}
);
unicode = 0043;
},
{
glyphname = D;
layers = (
{
anchors = (
{
name = L;
position = "{536, -75}";
},
{
name = U;
position = "{536, 1147}";
}
);
layerId = UUID0;
paths = (
{
closed = 1;
nodes = (
"130 192 OFFCURVE",
"131 60 OFFCURVE",
"120 0 CURVE",
"120 0 OFFCURVE",
"350 -7 OFFCURVE",
"446 -7 CURVE SMOOTH",
"666 -7 OFFCURVE",
"986 108 OFFCURVE",
"986 555 CURVE SMOOTH",
"986 1045 OFFCURVE",
"621 1102 OFFCURVE",
"461 1102 CURVE SMOOTH",
"360 1102 OFFCURVE",
"183 1099 OFFCURVE",
"120 1095 CURVE",
"131 1035 OFFCURVE",
"131 897 OFFCURVE",
"131 750 CURVE SMOOTH",
"131 341 LINE"
);
},
{
closed = 1;
nodes = (
"311 980 OFFCURVE",
"393 982 OFFCURVE",
"442 982 CURVE SMOOTH",
"658 982 OFFCURVE",
"840 875 OFFCURVE",
"840 540 CURVE SMOOTH",
"840 231 OFFCURVE",
"639 116 OFFCURVE",
"438 116 CURVE SMOOTH",
"367 116 OFFCURVE",
"309 120 OFFCURVE",
"273 123 CURVE",
"273 978 LINE"
);
}
);
width = 1076;
},
{
anchors = (
{
name = L;
position = "{577, -75}";
},
{
name = U;
position = "{577, 1147}";
}
);
layerId = "58C4FD73-E369-47FC-BB2E-BA826F97CEB5";
paths = (
{
closed = 1;
nodes = (
"123 192 OFFCURVE",
"123 60 OFFCURVE",
"112 0 CURVE",
"112 0 OFFCURVE",
"355 -7 OFFCURVE",
"456 -7 CURVE SMOOTH",
"689 -7 OFFCURVE",
"1027 108 OFFCURVE",
"1027 555 CURVE SMOOTH",
"1027 1030 OFFCURVE",
"679 1102 OFFCURVE",
"472 1102 CURVE SMOOTH",
"365 1102 OFFCURVE",
"179 1099 OFFCURVE",
"112 1095 CURVE",
"123 1035 OFFCURVE",
"123 897 OFFCURVE",
"123 750 CURVE SMOOTH",
"123 341 LINE"
);
},
{
closed = 1;
nodes = (
"369 932 OFFCURVE",
"436 934 OFFCURVE",
"477 934 CURVE SMOOTH",
"672 934 OFFCURVE",
"816 838 OFFCURVE",
"816 540 CURVE SMOOTH",
"816 267 OFFCURVE",
"642 165 OFFCURVE",
"474 165 CURVE SMOOTH",
"415 165 OFFCURVE",
"366 170 OFFCURVE",
"337 173 CURVE",
"337 930 LINE"
);
}
);
width = 1113;
}
);
unicode = 0044;
},
{
glyphname = E;
layers = (
{
anchors = (
{
name = H;
position = "{450, 0}";
},
{
name = L;
position = "{450, -75}";
},
{
name = O;
position = "{687, 0}";
},
{
name = R;
position = "{870, 900}";
},
{
name = U;
position = "{450, 1147}";
}
);
layerId = UUID0;
paths = (
{
closed = 1;
nodes = (
"273 971 LINE",
"757 971 LINE",
"757 1095 LINE",
"120 1095 LINE",
"131 1035 OFFCURVE",
"131 916 OFFCURVE",
"131 768 CURVE SMOOTH",
"131 326 LINE SMOOTH",
"131 178 OFFCURVE",
"131 60 OFFCURVE",
"120 0 CURVE",
"780 0 LINE",
"780 135 LINE",
"720 124 OFFCURVE",
"619 123 OFFCURVE",
"471 123 CURVE SMOOTH",
"273 123 LINE",
"273 513 LINE",
"701 513 LINE",
"701 633 LINE",
"273 633 LINE"
);
}
);
width = 870;
},
{
anchors = (
{
name = H;
position = "{457, 0}";
},
{
name = L;
position = "{457, -75}";
},
{
name = O;
position = "{753, 0}";
},
{
name = R;
position = "{935, 900}";
},
{
name = U;
position = "{457, 1147}";
}
);
layerId = "58C4FD73-E369-47FC-BB2E-BA826F97CEB5";
paths = (
{
closed = 1;
nodes = (
"337 922 LINE",
"804 922 LINE",
"804 1095 LINE",
"112 1095 LINE",
"123 1035 OFFCURVE",
"123 916 OFFCURVE",
"123 768 CURVE SMOOTH",
"123 326 LINE SMOOTH",
"123 178 OFFCURVE",
"123 60 OFFCURVE",
"112 0 CURVE",
"826 0 LINE",
"826 183 LINE",
"768 173 OFFCURVE",
"674 172 OFFCURVE",
"531 172 CURVE SMOOTH",
"337 172 LINE",
"337 487 LINE",
"747 487 LINE",
"747 656 LINE",
"337 656 LINE"
);
}
);
width = 909;
}
);
unicode = 0045;
},
{
glyphname = F;
layers = (
{
anchors = (
{
name = L;
position = "{446, -75}";
},
{
name = U;
position = "{446, 1147}";
}
);
layerId = UUID0;
paths = (
{
closed = 1;
nodes = (
"273 971 LINE",
"772 971 LINE",
"772 1095 LINE",
"120 1095 LINE",
"131 1035 OFFCURVE",
"131 912 OFFCURVE",
"131 765 CURVE SMOOTH",
"131 326 LINE SMOOTH",
"131 178 OFFCURVE",
"131 60 OFFCURVE",
"120 0 CURVE",
"285 0 LINE",
"273 58 OFFCURVE",
"273 177 OFFCURVE",
"273 326 CURVE SMOOTH",
"273 506 LINE",
"708 506 LINE",
"708 626 LINE",
"273 626 LINE"
);
}
);
width = 862;
},
{
anchors = (
{
name = L;
position = "{472, -75}";
},
{
name = U;
position = "{472, 1147}";
}
);
layerId = "58C4FD73-E369-47FC-BB2E-BA826F97CEB5";
paths = (
{
closed = 1;
nodes = (
"337 922 LINE",
"817 922 LINE",
"817 1095 LINE",
"112 1095 LINE",
"123 1035 OFFCURVE",
"123 912 OFFCURVE",
"123 765 CURVE SMOOTH",
"123 326 LINE SMOOTH",
"123 178 OFFCURVE",
"123 60 OFFCURVE",
"112 0 CURVE",
"348 0 LINE",
"337 54 OFFCURVE",
"337 166 OFFCURVE",
"337 306 CURVE SMOOTH",
"337 476 LINE",
"753 476 LINE",
"753 645 LINE",
"337 645 LINE"
);
}
);
width = 900;
}
);
unicode = 0046;
},
{
glyphname = G;
layers = (
{
anchors = (
{
name = H;
position = "{558, 0}";
},
{
name = L;
position = "{558, -75}";
},
{
name = U;
position = "{558, 1147}";
}
);
layerId = UUID0;
paths = (
{
closed = 1;
nodes = (
"551 558 LINE",
"551 435 LINE",
"813 435 LINE",
"813 183 LINE",
"722 128 OFFCURVE",
"657 112 OFFCURVE",
"567 112 CURVE SMOOTH",
"353 112 OFFCURVE",
"217 282 OFFCURVE",
"217 558 CURVE SMOOTH",
"217 820 OFFCURVE",
"360 986 OFFCURVE",
"588 986 CURVE SMOOTH",
"688 986 OFFCURVE",
"784 964 OFFCURVE",
"896 873 CURVE",
"945 1008 LINE",
"813 1096 OFFCURVE",
"710 1113 OFFCURVE",
"588 1113 CURVE SMOOTH",
"301 1113 OFFCURVE",
"71 899 OFFCURVE",
"71 540 CURVE SMOOTH",
"71 180 OFFCURVE",
"275 -18 OFFCURVE",
"558 -18 CURVE SMOOTH",
"688 -18 OFFCURVE",
"802 8 OFFCURVE",
"956 116 CURVE",
"956 558 LINE"
);
}
);
width = 1065;
},
{
anchors = (
{
name = H;
position = "{605, 0}";
},
{
name = L;
position = "{605, -75}";
},
{
name = U;
position = "{605, 1147}";
}
);
layerId = "58C4FD73-E369-47FC-BB2E-BA826F97CEB5";
paths = (
{
closed = 1;
nodes = (
"575 588 LINE",
"575 420 LINE",
"811 420 LINE",
"811 220 LINE",
"724 177 OFFCURVE",
"662 165 OFFCURVE",
"576 165 CURVE SMOOTH",
"399 165 OFFCURVE",
"281 315 OFFCURVE",
"281 558 CURVE SMOOTH",
"281 786 OFFCURVE",
"408 933 OFFCURVE",
"607 933 CURVE SMOOTH",
"714 933 OFFCURVE",
"822 903 OFFCURVE",
"927 830 CURVE",
"991 1008 LINE",
"852 1096 OFFCURVE",
"741 1113 OFFCURVE",
"613 1113 CURVE SMOOTH",
"302 1113 OFFCURVE",
"67 899 OFFCURVE",
"67 540 CURVE SMOOTH",
"67 180 OFFCURVE",
"282 -18 OFFCURVE",
"582 -18 CURVE SMOOTH",
"720 -18 OFFCURVE",
"840 8 OFFCURVE",
"1002 116 CURVE",
"1002 588 LINE"
);
}
);
width = 1104;
}
);
unicode = 0047;
},
{
glyphname = H;
layers = (
{
anchors = (
{
name = H;
position = "{213, 0}";
},
{
name = L;
position = "{543, -75}";
},
{
name = U;
position = "{543, 1147}";
}
);
layerId = UUID0;
paths = (
{
closed = 1;
nodes = (
"956 60 OFFCURVE",
"956 178 OFFCURVE",
"956 326 CURVE SMOOTH",
"956 768 LINE SMOOTH",
"956 916 OFFCURVE",
"956 1035 OFFCURVE",
"967 1095 CURVE",
"813 1095 LINE",
"813 626 LINE",
"273 626 LINE",
"273 1095 LINE",
"120 1095 LINE",
"131 1035 OFFCURVE",
"131 916 OFFCURVE",
"131 768 CURVE SMOOTH",
"131 326 LINE SMOOTH",
"131 178 OFFCURVE",
"131 60 OFFCURVE",
"120 0 CURVE",
"273 0 LINE",
"273 506 LINE",
"813 506 LINE",
"813 0 LINE",
"967 0 LINE"
);
}
);
width = 1106;
},
{
anchors = (
{
name = H;
position = "{228, 0}";
},
{
name = L;
position = "{558, -75}";
},
{
name = U;
position = "{558, 1147}";
}
);
layerId = "58C4FD73-E369-47FC-BB2E-BA826F97CEB5";
paths = (
{
closed = 1;
nodes = (
"780 645 LINE",
"337 645 LINE",
"337 1095 LINE",
"112 1095 LINE",
"123 1035 OFFCURVE",
"123 920 OFFCURVE",
"123 772 CURVE SMOOTH",
"123 322 LINE SMOOTH",
"123 174 OFFCURVE",
"123 60 OFFCURVE",
"112 0 CURVE",
"112 0 OFFCURVE",
"337 0 OFFCURVE",
"337 0 CURVE",
"337 476 LINE",
"780 476 LINE",
"780 0 LINE",
"780 0 OFFCURVE",
"1005 0 OFFCURVE",
"1005 0 CURVE",
"993 60 OFFCURVE",
"993 174 OFFCURVE",
"993 322 CURVE SMOOTH",
"993 772 LINE SMOOTH",
"993 920 OFFCURVE",
"993 1035 OFFCURVE",
"1005 1095 CURVE",
"780 1095 LINE"
);
}
);
width = 1136;
}
);
unicode = 0048;
},
{
glyphname = I;
layers = (
{
anchors = (
{
name = H;
position = "{357, 0}";
},
{
name = L;
position = "{357, -75}";
},
{
name = O;
position = "{504, 0}";
},
{
name = R;
position = "{731, 900}";
},
{
name = U;
position = "{357, 1147}";
}
);
layerId = UUID0;
paths = (
{
closed = 1;
nodes = (
"105 986 LINE",
"285 986 LINE",
"285 108 LINE",
"105 108 LINE",
"105 0 LINE",
"611 0 LINE",
"611 108 LINE",
"427 108 LINE",
"427 986 LINE",
"611 986 LINE",
"611 1095 LINE",
"105 1095 LINE"
);
}
);
width = 731;
},
{
anchors = (
{
name = H;
position = "{390, 0}";
},
{
name = L;
position = "{387, -75}";
},
{
name = O;
position = "{534, 0}";
},
{
name = R;
position = "{760, 900}";
},
{
name = U;
position = "{390, 1147}";
}
);
layerId = "58C4FD73-E369-47FC-BB2E-BA826F97CEB5";
paths = (
{
closed = 1;
nodes = (
"97 941 LINE",
"277 941 LINE",
"277 153 LINE",
"97 153 LINE",
"97 0 LINE",
"671 0 LINE",
"671 153 LINE",
"491 153 LINE",
"491 941 LINE",
"671 941 LINE",
"671 1095 LINE",
"97 1095 LINE"
);
}
);
width = 783;
}
);
unicode = 0049;
},
{
glyphname = J;
layers = (
{
anchors = (
{
name = L;
position = "{307, -75}";
},
{
name = U;
position = "{506, 1147}";
}
);
layerId = UUID0;
paths = (
{
closed = 1;
nodes = (
"441 1015 OFFCURVE",
"442 881 OFFCURVE",
"442 735 CURVE",
"442 363 LINE SMOOTH",
"442 192 OFFCURVE",
"365 116 OFFCURVE",
"255 116 CURVE SMOOTH",
"186 116 OFFCURVE",
"110 148 OFFCURVE",
"60 206 CURVE",
"26 67 LINE",
"79 6 OFFCURVE",
"187 -18 OFFCURVE",
"258 -18 CURVE SMOOTH",
"451 -18 OFFCURVE",
"585 89 OFFCURVE",
"585 401 CURVE SMOOTH",
"585 1095 LINE",
"431 1095 LINE"
);
}
);
width = 723;
},
{
anchors = (
{
name = L;
position = "{311, -75}";
},
{
name = U;
position = "{528, 1147}";
}
);
layerId = "58C4FD73-E369-47FC-BB2E-BA826F97CEB5";
paths = (
{
closed = 1;
nodes = (
"426 1015 OFFCURVE",
"427 881 OFFCURVE",
"427 735 CURVE SMOOTH",
"427 418 LINE SMOOTH",
"427 287 OFFCURVE",
"405 170 OFFCURVE",
"273 170 CURVE SMOOTH",
"198 170 OFFCURVE",
"114 202 OFFCURVE",
"59 260 CURVE",
"22 67 LINE",
"81 6 OFFCURVE",
"193 -18 OFFCURVE",
"272 -18 CURVE SMOOTH",
"493 -18 OFFCURVE",
"641 96 OFFCURVE",
"641 401 CURVE SMOOTH",
"641 463 OFFCURVE",
"641 1095 OFFCURVE",
"641 1095 CURVE",
"416 1095 LINE"
);
}
);
width = 772;
}
);
unicode = 004A;
},
{
glyphname = K;
layers = (
{
anchors = (
{
name = H;
position = "{202, 0}";
},
{
name = L;
position = "{521, -75}";
},
{
name = U;
position = "{487, 1147}";
}
);
layerId = UUID0;
paths = (
{
closed = 1;
nodes = (
"221 527 LINE",
"318 558 LINE",
"397 555 LINE",
"873 1095 LINE",
"693 1095 LINE"
);
},
{
closed = 1;
nodes = (
"738 0 LINE",
"922 0 LINE",
"363 645 LINE",
"262 551 LINE"
);
},
{
closed = 1;
nodes = (
"120 1095 LINE",
"131 1035 OFFCURVE",
"131 916 OFFCURVE",
"131 768 CURVE SMOOTH",
"131 326 LINE SMOOTH",
"131 178 OFFCURVE",
"131 60 OFFCURVE",
"120 0 CURVE",
"273 0 LINE",
"273 1095 LINE"
);
}
);
width = 982;
},
{
anchors = (
{
name = H;
position = "{240, 0}";
},
{
name = L;
position = "{555, -75}";
},
{
name = U;
position = "{543, 1147}";
}
);
layerId = "58C4FD73-E369-47FC-BB2E-BA826F97CEB5";
paths = (
{
closed = 1;
nodes = (
"278 549 LINE",
"434 507 LINE",
"960 1095 LINE",
"708 1095 LINE"
);
},
{
closed = 1;
nodes = (
"742 0 LINE",
"1020 0 LINE",
"460 621 LINE",
"291 548 LINE"
);
},
{
closed = 1;
nodes = (
"112 1095 LINE",
"123 1035 OFFCURVE",
"123 916 OFFCURVE",
"123 768 CURVE SMOOTH",
"123 326 LINE SMOOTH",
"123 178 OFFCURVE",
"123 60 OFFCURVE",
"112 0 CURVE",
"337 0 LINE",
"337 1095 LINE"
);
}
);
width = 1072;
}
);
unicode = 004B;
},
{
glyphname = L;
layers = (
{
anchors = (
{
name = H;
position = "{444, 0}";
},
{
name = L;
position = "{444, -75}";
},
{
name = R;
position = "{405, 900}";
},
{
name = U;
position = "{444, 1147}";
}
);
layerId = UUID0;
paths = (
{
closed = 1;
nodes = (
"273 1095 LINE",
"120 1095 LINE",
"131 1035 OFFCURVE",
"131 916 OFFCURVE",
"131 768 CURVE SMOOTH",
"131 326 LINE SMOOTH",
"131 178 OFFCURVE",
"131 60 OFFCURVE",
"120 0 CURVE",
"768 0 LINE",
"768 135 LINE",
"708 124 OFFCURVE",
"589 123 OFFCURVE",
"441 123 CURVE SMOOTH",
"273 123 LINE"
);
}
);
width = 810;
},
{
anchors = (
{
name = H;
position = "{465, 0}";
},
{
name = L;
position = "{465, -75}";
},
{
name = R;
position = "{487, 900}";
},
{
name = U;
position = "{465, 1147}";
}
);
layerId = "58C4FD73-E369-47FC-BB2E-BA826F97CEB5";
paths = (
{
closed = 1;
nodes = (
"337 1095 LINE",
"112 1095 LINE",
"123 1035 OFFCURVE",
"123 916 OFFCURVE",
"123 768 CURVE SMOOTH",
"123 326 LINE SMOOTH",
"123 178 OFFCURVE",
"123 60 OFFCURVE",
"112 0 CURVE",
"813 0 LINE",
"813 183 LINE",
"756 173 OFFCURVE",
"641 172 OFFCURVE",
"499 172 CURVE SMOOTH",
"337 172 LINE"
);
}
);
width = 847;
}
);
unicode = 004C;
},
{
glyphname = M;
layers = (
{
anchors = (
{
name = H;
position = "{1140, 0}";
},
{
name = L;
position = "{663, -75}";
},
{
name = U;
position = "{663, 1147}";
}
);
layerId = UUID0;
paths = (
{
closed = 1;
nodes = (
"341 1095 LINE",
"213 1095 LINE",
"592 0 LINE",
"738 0 LINE",
"1115 1095 LINE",
"990 1095 LINE",
"663 153 LINE"
);
},
{
closed = 1;
nodes = (
"172 1095 OFFCURVE",
"139 148 OFFCURVE",
"120 0 CURVE",
"258 0 LINE",
"282 903 LINE",
"303 1095 LINE",
"172 1095 LINE"
);
},
{
closed = 1;
nodes = (
"1185 148 OFFCURVE",
"1155 1095 OFFCURVE",
"1155 1095 CURVE",
"1023 1095 LINE",
"1047 903 LINE",
"1068 0 LINE",
"1207 0 LINE"
);
}
);
width = 1346;
},
{
anchors = (
{
name = L;
position = "{686, -75}";
},
{
name = U;
position = "{686, 1147}";
}
);
layerId = "58C4FD73-E369-47FC-BB2E-BA826F97CEB5";
paths = (
{
closed = 1;
nodes = (
"431 1095 LINE",
"236 1095 LINE",
"327 877 LINE",
"577 0 LINE",
"798 0 LINE",
"1047 877 LINE",
"1137 1095 LINE",
"945 1095 LINE",
"687 206 LINE"
);
},
{
closed = 1;
nodes = (
"165 1095 OFFCURVE",
"132 148 OFFCURVE",
"112 0 CURVE",
"315 0 LINE",
"336 903 LINE",
"363 1095 LINE",
"165 1095 LINE"
);
},
{
closed = 1;
nodes = (
"1238 148 OFFCURVE",
"1207 1095 OFFCURVE",
"1207 1095 CURVE",
"1005 1095 LINE",
"1038 903 LINE",
"1057 0 LINE",
"1260 0 LINE"
);
}
);
width = 1391;
}
);
unicode = 004D;
},
{
glyphname = N;
layers = (
{
anchors = (
{
name = H;
position = "{922, 0}";
},
{
name = L;
position = "{552, -75}";
},
{
name = U;
position = "{552, 1147}";
}
);
layerId = UUID0;
paths = (
{
closed = 1;
nodes = (
"851 0 LINE",
"956 75 LINE",
"255 1095 LINE",
"150 1016 LINE"
);
},
{
closed = 1;
nodes = (
"975 0 LINE",
"975 768 LINE SMOOTH",
"975 916 OFFCURVE",
"975 1035 OFFCURVE",
"986 1095 CURVE",
"851 1095 LINE",
"851 0 LINE"
);
},
{
closed = 1;
nodes = (
"120 1095 LINE",
"131 1035 OFFCURVE",
"131 916 OFFCURVE",
"131 768 CURVE SMOOTH",
"131 326 LINE SMOOTH",
"131 178 OFFCURVE",
"131 60 OFFCURVE",
"120 0 CURVE",
"255 0 LINE",
"255 1095 LINE"
);
}
);
width = 1125;
},
{
anchors = (
{
name = H;
position = "{930, 0}";
},
{
name = L;
position = "{573, -75}";
},
{
name = U;
position = "{573, 1147}";
}
);
layerId = "58C4FD73-E369-47FC-BB2E-BA826F97CEB5";
paths = (
{
closed = 1;
nodes = (
"821 0 LINE",
"972 112 LINE",
"318 1095 LINE",
"167 982 LINE"
);
},
{
closed = 1;
nodes = (
"1016 0 LINE",
"1016 768 LINE SMOOTH",
"1016 916 OFFCURVE",
"1017 1035 OFFCURVE",
"1027 1095 CURVE",
"821 1095 LINE",
"821 0 LINE"
);
},
{
closed = 1;
nodes = (
"112 1095 LINE",
"123 1035 OFFCURVE",
"123 916 OFFCURVE",
"123 768 CURVE SMOOTH",
"123 326 LINE SMOOTH",
"123 178 OFFCURVE",
"123 60 OFFCURVE",
"112 0 CURVE",
"318 0 LINE",
"318 1095 LINE"
);
}
);
width = 1158;
}
);
unicode = 004E;
},
{
glyphname = O;
layers = (
{
anchors = (
{
name = H;
position = "{537, 0}";
},
{
name = L;
position = "{537, -75}";
},
{
name = O;
position = "{745, 0}";
},
{
name = R;
position = "{1095, 900}";
},
{
name = U;
position = "{537, 1147}";
}
);
layerId = UUID0;
paths = (
{
closed = 1;
nodes = (
"858 270 OFFCURVE",
"723 112 OFFCURVE",
"540 112 CURVE SMOOTH",
"345 112 OFFCURVE",
"217 285 OFFCURVE",
"217 558 CURVE SMOOTH",
"217 818 OFFCURVE",
"350 982 OFFCURVE",
"540 982 CURVE SMOOTH",
"730 982 OFFCURVE",
"858 813 OFFCURVE",
"858 536 CURVE SMOOTH"
);
},
{
closed = 1;
nodes = (
"1005 914 OFFCURVE",
"786 1113 OFFCURVE",
"547 1113 CURVE SMOOTH",
"305 1113 OFFCURVE",
"71 899 OFFCURVE",
"71 540 CURVE SMOOTH",
"71 180 OFFCURVE",
"291 -18 OFFCURVE",
"532 -18 CURVE SMOOTH",
"771 -18 OFFCURVE",
"1005 195 OFFCURVE",
"1005 555 CURVE SMOOTH"
);
}
);
width = 1095;
},
{
anchors = (
{
name = H;
position = "{555, 0}";
},
{
name = L;
position = "{555, -75}";
},
{
name = O;
position = "{732, 0}";
},
{
name = R;
position = "{1110, 900}";
},
{
name = U;
position = "{555, 1147}";
}
);
layerId = "58C4FD73-E369-47FC-BB2E-BA826F97CEB5";
paths = (
{
closed = 1;
nodes = (
"825 303 OFFCURVE",
"705 165 OFFCURVE",
"555 165 CURVE SMOOTH",
"393 165 OFFCURVE",
"281 317 OFFCURVE",
"281 558 CURVE SMOOTH",
"281 786 OFFCURVE",
"396 930 OFFCURVE",
"555 930 CURVE SMOOTH",
"713 930 OFFCURVE",
"825 780 OFFCURVE",
"825 536 CURVE SMOOTH"
);
},
{
closed = 1;
nodes = (
"1038 914 OFFCURVE",
"818 1113 OFFCURVE",
"562 1113 CURVE SMOOTH",
"303 1113 OFFCURVE",
"67 899 OFFCURVE",
"67 540 CURVE SMOOTH",
"67 180 OFFCURVE",
"288 -18 OFFCURVE",
"547 -18 CURVE SMOOTH",
"804 -18 OFFCURVE",
"1038 195 OFFCURVE",
"1038 555 CURVE SMOOTH"
);
}
);
width = 1125;
}
);
unicode = 004F;
},
{
glyphname = P;
layers = (
{
anchors = (
{
name = L;
position = "{477, -75}";
},
{
name = U;
position = "{477, 1147}";
}
);
layerId = UUID0;
paths = (
{
closed = 1;
nodes = (
"322 418 OFFCURVE",
"384 416 OFFCURVE",
"438 416 CURVE SMOOTH",
"685 416 OFFCURVE",
"836 552 OFFCURVE",
"836 772 CURVE SMOOTH",
"836 991 OFFCURVE",
"681 1102 OFFCURVE",
"438 1102 CURVE SMOOTH",
"279 1102 OFFCURVE",
"120 1095 OFFCURVE",
"120 1095 CURVE",
"131 1035 OFFCURVE",
"131 897 OFFCURVE",
"131 750 CURVE",
"131 326 LINE SMOOTH",
"131 178 OFFCURVE",
"131 60 OFFCURVE",
"120 0 CURVE",
"285 0 LINE",
"274 58 OFFCURVE",
"273 177 OFFCURVE",
"273 326 CURVE SMOOTH",
"273 423 LINE"
);
},
{
closed = 1;
nodes = (
"324 981 OFFCURVE",
"360 982 OFFCURVE",
"431 982 CURVE SMOOTH",
"630 982 OFFCURVE",
"693 877 OFFCURVE",
"693 757 CURVE SMOOTH",
"693 636 OFFCURVE",
"637 532 OFFCURVE",
"427 532 CURVE SMOOTH",
"371 532 OFFCURVE",
"321 534 OFFCURVE",
"273 540 CURVE",
"273 978 LINE"
);
}
);
width = 896;
},
{
anchors = (
{
name = L;
position = "{513, -75}";
},
{
name = U;
position = "{513, 1147}";
}
);
layerId = "58C4FD73-E369-47FC-BB2E-BA826F97CEB5";
paths = (
{
closed = 1;
nodes = (
"386 387 OFFCURVE",
"431 384 OFFCURVE",
"486 384 CURVE SMOOTH",
"732 384 OFFCURVE",
"900 526 OFFCURVE",
"900 757 CURVE SMOOTH",
"900 987 OFFCURVE",
"735 1102 OFFCURVE",
"493 1102 CURVE SMOOTH",
"333 1102 OFFCURVE",
"112 1095 OFFCURVE",
"112 1095 CURVE",
"123 1035 OFFCURVE",
"123 897 OFFCURVE",
"123 750 CURVE SMOOTH",
"123 326 LINE SMOOTH",
"123 178 OFFCURVE",
"123 60 OFFCURVE",
"112 0 CURVE",
"348 0 LINE",
"338 58 OFFCURVE",
"337 177 OFFCURVE",
"337 326 CURVE SMOOTH",
"337 392 LINE"
);
},
{
closed = 1;
nodes = (
"379 932 OFFCURVE",
"408 933 OFFCURVE",
"466 933 CURVE SMOOTH",
"624 933 OFFCURVE",
"686 858 OFFCURVE",
"686 750 CURVE SMOOTH",
"686 615 OFFCURVE",
"608 547 OFFCURVE",
"463 547 CURVE SMOOTH",
"417 547 OFFCURVE",
"369 549 OFFCURVE",
"337 555 CURVE",
"337 930 LINE"
);
}
);
width = 956;
}
);
unicode = 0050;
},
{
glyphname = Q;
layers = (
{
anchors = (
{
name = L;
position = "{537, -202}";
},
{
name = U;
position = "{537, 1147}";
}
);
layerId = UUID0;
paths = (
{
closed = 1;
nodes = (
"1005 914 OFFCURVE",
"789 1113 OFFCURVE",
"547 1113 CURVE SMOOTH",
"305 1113 OFFCURVE",
"71 899 OFFCURVE",
"71 540 CURVE SMOOTH",
"71 180 OFFCURVE",
"287 -18 OFFCURVE",
"528 -18 CURVE SMOOTH",
"575 -18 OFFCURVE",
"613 -13 OFFCURVE",
"656 0 CURVE",
"708 0 OFFCURVE",
"927 -142 OFFCURVE",
"990 -142 CURVE SMOOTH",
"1030 -142 OFFCURVE",
"1073 -60 OFFCURVE",
"1091 -33 CURVE",
"990 -21 OFFCURVE",
"903 21 OFFCURVE",
"810 78 CURVE",
"942 177 OFFCURVE",
"1005 359 OFFCURVE",
"1005 555 CURVE SMOOTH"
);
},
{
closed = 1;
nodes = (
"858 270 OFFCURVE",
"723 112 OFFCURVE",
"540 112 CURVE SMOOTH",
"345 112 OFFCURVE",
"217 285 OFFCURVE",
"217 558 CURVE SMOOTH",
"217 818 OFFCURVE",
"350 982 OFFCURVE",
"540 982 CURVE SMOOTH",
"730 982 OFFCURVE",
"858 813 OFFCURVE",
"858 536 CURVE SMOOTH"
);
}
);
width = 1106;
},
{
anchors = (
{
name = L;
position = "{560, -202}";
},
{
name = U;
position = "{560, 1147}";
}
);
layerId = "58C4FD73-E369-47FC-BB2E-BA826F97CEB5";
paths = (
{
closed = 1;
nodes = (
"1038 914 OFFCURVE",
"818 1113 OFFCURVE",
"562 1113 CURVE SMOOTH",
"303 1113 OFFCURVE",
"67 899 OFFCURVE",
"67 540 CURVE SMOOTH",
"67 180 OFFCURVE",
"288 -18 OFFCURVE",
"547 -18 CURVE SMOOTH",
"605 -18 OFFCURVE",
"630 -17 OFFCURVE",
"666 -11 CURVE",
"718 -11 OFFCURVE",
"949 -171 OFFCURVE",
"1012 -171 CURVE SMOOTH",
"1068 -171 OFFCURVE",
"1126 -51 OFFCURVE",
"1151 -11 CURVE",
"1045 0 OFFCURVE",
"957 51 OFFCURVE",
"859 106 CURVE",
"970 212 OFFCURVE",
"1038 353 OFFCURVE",
"1038 555 CURVE SMOOTH"
);
},
{
closed = 1;
nodes = (
"825 303 OFFCURVE",
"707 165 OFFCURVE",
"555 165 CURVE SMOOTH",
"393 165 OFFCURVE",
"281 317 OFFCURVE",
"281 558 CURVE SMOOTH",
"281 786 OFFCURVE",
"396 930 OFFCURVE",
"555 930 CURVE SMOOTH",
"713 930 OFFCURVE",
"825 780 OFFCURVE",
"825 536 CURVE SMOOTH"
);
}
);
width = 1158;
}
);
unicode = 0051;
},
{
glyphname = R;
layers = (
{
anchors = (
{
name = H;
position = "{213, 0}";
},
{
name = L;
position = "{457, -75}";
},
{
name = U;
position = "{457, 1147}";
}
);
layerId = UUID0;
paths = (
{
closed = 1;
nodes = (
"465 468 LINE",
"603 468 OFFCURVE",
"817 557 OFFCURVE",
"817 795 CURVE SMOOTH",
"817 1011 OFFCURVE",
"657 1102 OFFCURVE",
"423 1102 CURVE SMOOTH",
"248 1102 OFFCURVE",
"120 1095 OFFCURVE",
"120 1095 CURVE",
"131 1035 OFFCURVE",
"131 897 OFFCURVE",
"131 750 CURVE SMOOTH",
"131 326 LINE",
"131 178 OFFCURVE",
"131 60 OFFCURVE",
"120 0 CURVE",
"285 0 LINE",
"274 58 OFFCURVE",
"273 178 OFFCURVE",
"273 326 CURVE",
"273 468 LINE"
);
},
{
closed = 1;
nodes = (
"313 980 OFFCURVE",
"363 982 OFFCURVE",
"416 982 CURVE SMOOTH",
"600 982 OFFCURVE",
"675 912 OFFCURVE",
"675 783 CURVE SMOOTH",
"675 659 OFFCURVE",
"585 585 OFFCURVE",
"416 585 CURVE",
"273 585 LINE",
"273 978 LINE"
);
},
{
closed = 1;
nodes = (
"742 0 LINE",
"933 0 LINE",
"883 54 OFFCURVE",
"536 532 OFFCURVE",
"536 532 CURVE",
"420 476 LINE"
);
}
);
width = 978;
},
{
anchors = (
{
name = H;
position = "{517, 0}";
},
{
name = L;
position = "{517, -75}";
},
{
name = U;
position = "{495, 1147}";
}
);
layerId = "58C4FD73-E369-47FC-BB2E-BA826F97CEB5";
paths = (
{
closed = 1;
nodes = (
"468 438 LINE SMOOTH",
"682 438 OFFCURVE",
"881 542 OFFCURVE",
"881 780 CURVE SMOOTH",
"881 996 OFFCURVE",
"720 1102 OFFCURVE",
"487 1102 CURVE SMOOTH",
"312 1102 OFFCURVE",
"112 1095 OFFCURVE",
"112 1095 CURVE",
"123 1035 OFFCURVE",
"123 897 OFFCURVE",
"123 750 CURVE SMOOTH",
"123 326 LINE SMOOTH",
"123 178 OFFCURVE",
"123 60 OFFCURVE",
"112 0 CURVE",
"348 0 LINE",
"338 58 OFFCURVE",
"337 178 OFFCURVE",
"337 326 CURVE SMOOTH",
"337 438 LINE"
);
},
{
closed = 1;
nodes = (
"377 932 OFFCURVE",
"402 933 OFFCURVE",
"461 933 CURVE SMOOTH",
"594 933 OFFCURVE",
"667 889 OFFCURVE",
"667 776 CURVE SMOOTH",
"667 644 OFFCURVE",
"585 600 OFFCURVE",
"453 600 CURVE SMOOTH",
"337 600 LINE",
"337 930 LINE"
);
},
{
closed = 1;
nodes = (
"731 0 LINE",
"997 0 LINE",
"947 54 OFFCURVE",
"620 515 OFFCURVE",
"620 515 CURVE",
"417 476 LINE"
);
}
);
width = 1035;
}
);
unicode = 0052;
},
{
glyphname = S;
layers = (
{
anchors = (
{
name = H;
position = "{435, 0}";
},
{
name = L;
position = "{435, -75}";
},
{
name = U;
position = "{435, 1147}";
}
);
layerId = UUID0;
paths = (
{
closed = 1;
nodes = (
"652 1093 OFFCURVE",
"569 1113 OFFCURVE",
"453 1113 CURVE SMOOTH",
"204 1113 OFFCURVE",
"101 937 OFFCURVE",
"101 810 CURVE SMOOTH",
"101 682 OFFCURVE",
"152 583 OFFCURVE",
"386 513 CURVE SMOOTH",
"620 443 OFFCURVE",
"656 382 OFFCURVE",
"656 303 CURVE SMOOTH",
"656 182 OFFCURVE",
"544 112 OFFCURVE",
"423 112 CURVE SMOOTH",
"312 112 OFFCURVE",
"204 150 OFFCURVE",
"105 236 CURVE",
"71 82 LINE",
"147 23 OFFCURVE",
"279 -18 OFFCURVE",
"423 -18 CURVE SMOOTH",
"628 -18 OFFCURVE",
"798 117 OFFCURVE",
"798 318 CURVE SMOOTH",
"798 480 OFFCURVE",
"690 571 OFFCURVE",
"491 630 CURVE SMOOTH",
"277 692 OFFCURVE",
"243 738 OFFCURVE",
"243 821 CURVE SMOOTH",
"243 903 OFFCURVE",
"326 982 OFFCURVE",
"446 982 CURVE SMOOTH",
"542 982 OFFCURVE",
"612 959 OFFCURVE",
"720 900 CURVE",
"750 1046 LINE"
);
}
);
width = 881;
},
{
anchors = (
{
name = H;
position = "{462, 0}";
},
{
name = L;
position = "{462, -75}";
},
{
name = U;
position = "{462, 1147}";
}
);
layerId = "58C4FD73-E369-47FC-BB2E-BA826F97CEB5";
paths = (
{
closed = 1;
nodes = (
"699 1093 OFFCURVE",
"607 1113 OFFCURVE",
"480 1113 CURVE SMOOTH",
"210 1113 OFFCURVE",
"97 929 OFFCURVE",
"97 795 CURVE SMOOTH",
"97 661 OFFCURVE",
"147 565 OFFCURVE",
"382 491 CURVE SMOOTH",
"600 422 OFFCURVE",
"638 378 OFFCURVE",
"638 315 CURVE SMOOTH",
"638 219 OFFCURVE",
"547 165 OFFCURVE",
"450 165 CURVE SMOOTH",
"329 165 OFFCURVE",
"212 202 OFFCURVE",
"105 288 CURVE",
"67 82 LINE",
"150 23 OFFCURVE",
"293 -18 OFFCURVE",
"450 -18 CURVE SMOOTH",
"671 -18 OFFCURVE",
"853 126 OFFCURVE",
"853 341 CURVE SMOOTH",
"853 499 OFFCURVE",
"745 590 OFFCURVE",
"545 652 CURVE SMOOTH",
"348 714 OFFCURVE",
"312 745 OFFCURVE",
"312 810 CURVE SMOOTH",
"312 871 OFFCURVE",
"379 933 OFFCURVE",
"472 933 CURVE SMOOTH",
"578 933 OFFCURVE",
"654 906 OFFCURVE",
"772 847 CURVE",
"806 1046 LINE"
);
}
);
width = 932;
}
);
unicode = 0053;
},
{
glyphname = T;
layers = (
{
anchors = (
{
name = H;
position = "{466, 0}";
},
{
name = L;
position = "{466, -75}";
},
{
name = U;
position = "{466, 1147}";
}
);
layerId = UUID0;
paths = (
{
closed = 1;
nodes = (
"33 956 LINE",
"93 969 OFFCURVE",
"150 971 OFFCURVE",
"217 971 CURVE SMOOTH",
"393 971 LINE",
"393 326 LINE SMOOTH",
"393 178 OFFCURVE",
"391 60 OFFCURVE",
"378 0 CURVE",
"551 0 LINE",
"538 60 OFFCURVE",
"536 178 OFFCURVE",
"536 326 CURVE SMOOTH",
"536 971 LINE",
"716 971 LINE SMOOTH",
"783 971 OFFCURVE",
"840 969 OFFCURVE",
"900 956 CURVE",
"900 1095 LINE",
"33 1095 LINE"
);
}
);
width = 948;
},
{
anchors = (
{
name = H;
position = "{466, 0}";
},
{
name = L;
position = "{466, -75}";
},
{
name = U;
position = "{466, 1147}";
}
);
layerId = "58C4FD73-E369-47FC-BB2E-BA826F97CEB5";
paths = (
{
closed = 1;
nodes = (
"26 907 LINE",
"80 920 OFFCURVE",
"138 922 OFFCURVE",
"198 922 CURVE SMOOTH",
"358 922 LINE",
"358 309 LINE SMOOTH",
"358 169 OFFCURVE",
"356 57 OFFCURVE",
"343 0 CURVE",
"587 0 LINE",
"574 57 OFFCURVE",
"572 169 OFFCURVE",
"572 309 CURVE SMOOTH",
"572 922 LINE",
"735 922 LINE SMOOTH",
"795 922 OFFCURVE",
"853 920 OFFCURVE",
"907 907 CURVE",
"907 1095 LINE",
"26 1095 LINE"
);
}
);
width = 948;
}
);
unicode = 0054;
},
{
glyphname = U;
layers = (
{
anchors = (
{
name = H;
position = "{530, 0}";
},
{
name = L;
position = "{530, -75}";
},
{
name = O;
position = "{769, 0}";
},
{
name = R;
position = "{1050, 900}";
},
{
name = U;
position = "{530, 1147}";
}
);
layerId = UUID0;
paths = (
{
closed = 1;
nodes = (
"787 420 LINE SMOOTH",
"787 224 OFFCURVE",
"726 101 OFFCURVE",
"532 101 CURVE SMOOTH",
"335 101 OFFCURVE",
"273 224 OFFCURVE",
"273 420 CURVE SMOOTH",
"273 1095 LINE",
"120 1095 LINE",
"130 1035 OFFCURVE",
"131 916 OFFCURVE",
"131 768 CURVE SMOOTH",
"131 386 LINE",
"131 142 OFFCURVE",
"258 -18 OFFCURVE",
"532 -18 CURVE SMOOTH",
"803 -18 OFFCURVE",
"930 142 OFFCURVE",
"930 386 CURVE",
"930 768 LINE SMOOTH",
"930 924 OFFCURVE",
"931 1035 OFFCURVE",
"941 1095 CURVE",
"787 1095 LINE"
);
}
);
width = 1080;
},
{
anchors = (
{
name = H;
position = "{549, 0}";
},
{
name = L;
position = "{549, -75}";
},
{
name = O;
position = "{712, 0}";
},
{
name = R;
position = "{1110, 900}";
},
{
name = U;
position = "{549, 1147}";
}
);
layerId = "58C4FD73-E369-47FC-BB2E-BA826F97CEB5";
paths = (
{
closed = 1;
nodes = (
"761 420 LINE SMOOTH",
"761 258 OFFCURVE",
"714 153 OFFCURVE",
"551 153 CURVE SMOOTH",
"384 153 OFFCURVE",
"337 258 OFFCURVE",
"337 420 CURVE SMOOTH",
"337 1095 LINE",
"112 1095 LINE",
"123 1035 OFFCURVE",
"123 916 OFFCURVE",
"123 768 CURVE SMOOTH",
"123 386 LINE SMOOTH",
"123 142 OFFCURVE",
"267 -18 OFFCURVE",
"551 -18 CURVE SMOOTH",
"832 -18 OFFCURVE",
"975 142 OFFCURVE",
"975 386 CURVE SMOOTH",
"975 768 LINE SMOOTH",
"975 924 OFFCURVE",
"976 1035 OFFCURVE",
"986 1095 CURVE",
"761 1095 LINE"
);
}
);
width = 1117;
}
);
unicode = 0055;
},
{
glyphname = V;
layers = (
{
anchors = (
{
name = H;
position = "{510, 0}";
},
{
name = L;
position = "{504, -75}";
},
{
name = O;
position = "{660, 0}";
},
{
name = U;
position = "{504, 1147}";
}
);
layerId = UUID0;
paths = (
{
closed = 1;
nodes = (
"504 146 LINE",
"187 1095 LINE",
"26 1095 LINE",
"51 1033 OFFCURVE",
"75 966 OFFCURVE",
"127 821 CURVE SMOOTH",
"420 0 LINE",
"588 0 LINE",
"877 821 LINE SMOOTH",
"928 966 OFFCURVE",
"955 1033 OFFCURVE",
"982 1095 CURVE",
"821 1095 LINE"
);
}
);
width = 1023;
},
{
anchors = (
{
name = H;
position = "{547, 0}";
},
{
name = L;
position = "{541, -75}";
},
{
name = O;
position = "{697, 0}";
},
{
name = U;
position = "{541, 1147}";
}
);
layerId = "58C4FD73-E369-47FC-BB2E-BA826F97CEB5";
paths = (
{
closed = 1;
nodes = (
"541 195 LINE",
"247 1095 LINE",
"18 1095 LINE",
"43 1033 OFFCURVE",
"72 966 OFFCURVE",
"123 821 CURVE SMOOTH",
"416 0 LINE",
"667 0 LINE",
"960 821 LINE SMOOTH",
"1011 966 OFFCURVE",
"1038 1033 OFFCURVE",
"1065 1095 CURVE",
"836 1095 LINE"
);
}
);
width = 1098;
}
);
unicode = 0056;
},
{
glyphname = W;
layers = (
{
anchors = (
{
name = L;
position = "{770, -75}";
},
{
name = U;
position = "{770, 1147}";
}
);
layerId = UUID0;
paths = (
{
closed = 1;
nodes = (
"1196 0 LINE",
"1425 821 LINE SMOOTH",
"1465 966 OFFCURVE",
"1487 1033 OFFCURVE",
"1511 1095 CURVE",
"1346 1095 LINE",
"1102 97 LINE",
"1110 0 LINE"
);
},
{
closed = 1;
nodes = (
"701 1095 LINE",
"742 978 LINE",
"1027 0 LINE",
"1110 0 LINE",
"1125 97 LINE",
"840 1095 LINE"
);
},
{
closed = 1;
nodes = (
"513 0 LINE",
"798 978 LINE",
"840 1095 LINE",
"701 1095 LINE",
"420 97 LINE",
"435 0 LINE"
);
},
{
closed = 1;
nodes = (
"30 1095 LINE",
"53 1035 OFFCURVE",
"76 964 OFFCURVE",
"116 821 CURVE SMOOTH",
"345 0 LINE",
"435 0 LINE",
"442 97 LINE",
"195 1095 LINE"
);
}
);
width = 1560;
},
{
anchors = (
{
name = L;
position = "{789, -75}";
},
{
name = U;
position = "{789, 1147}";
}
);
layerId = "58C4FD73-E369-47FC-BB2E-BA826F97CEB5";
paths = (
{
closed = 1;
nodes = (
"1241 0 LINE",
"1473 821 LINE SMOOTH",
"1515 966 OFFCURVE",
"1536 1033 OFFCURVE",
"1560 1095 CURVE",
"1327 1095 LINE",
"1102 97 LINE",
"1117 0 LINE"
);
},
{
closed = 1;
nodes = (
"690 1095 LINE",
"746 978 LINE",
"1005 0 LINE",
"1132 0 LINE",
"1147 97 LINE",
"885 1095 LINE"
);
},
{
closed = 1;
nodes = (
"573 0 LINE",
"828 978 LINE",
"885 1095 LINE",
"690 1095 LINE",
"435 97 LINE",
"450 0 LINE"
);
},
{
closed = 1;
nodes = (
"22 1095 LINE",
"45 1035 OFFCURVE",
"69 964 OFFCURVE",
"108 821 CURVE SMOOTH",
"337 0 LINE",
"465 0 LINE",
"480 97 LINE",
"255 1095 LINE"
);
}
);
width = 1601;
}
);
unicode = 0057;
},
{
glyphname = X;
layers = (
{
anchors = (
{
name = L;
position = "{487, -75}";
},
{
name = U;
position = "{487, 1147}";
}
);
layerId = UUID0;
paths = (
{
closed = 1;
nodes = (
"198 255 LINE SMOOTH",
"102 99 OFFCURVE",
"77 64 OFFCURVE",
"30 0 CURVE",
"202 0 LINE",
"481 460 LINE",
"772 0 LINE",
"945 0 LINE",
"899 61 OFFCURVE",
"873 95 OFFCURVE",
"774 252 CURVE SMOOTH",
"570 575 LINE",
"729 832 LINE SMOOTH",
"822 984 OFFCURVE",
"861 1037 OFFCURVE",
"907 1095 CURVE",
"731 1095 LINE",
"492 700 LINE",
"243 1095 LINE",
"67 1095 LINE",
"115 1032 OFFCURVE",
"150 986 OFFCURVE",
"247 832 CURVE",
"402 585 LINE"
);
}
);
width = 993;
},
{
anchors = (
{
name = L;
position = "{502, -75}";
},
{
name = U;
position = "{502, 1147}";
}
);
layerId = "58C4FD73-E369-47FC-BB2E-BA826F97CEB5";
paths = (
{
closed = 1;
nodes = (
"982 0 LINE",
"936 61 OFFCURVE",
"908 93 OFFCURVE",
"812 252 CURVE SMOOTH",
"300 1095 LINE",
"56 1095 LINE",
"104 1032 OFFCURVE",
"141 987 OFFCURVE",
"236 832 CURVE",
"742 0 LINE"
);
},
{
closed = 1;
nodes = (
"191 255 LINE SMOOTH",
"99 96 OFFCURVE",
"69 64 OFFCURVE",
"22 0 CURVE",
"262 0 LINE",
"525 456 LINE",
"453 710 LINE"
);
},
{
closed = 1;
nodes = (
"780 832 LINE SMOOTH",
"864 979 OFFCURVE",
"908 1037 OFFCURVE",
"956 1095 CURVE",
"712 1095 LINE",
"491 710 LINE",
"562 456 LINE"
);
}
);
width = 1023;
}
);
unicode = 0058;
},
{
glyphname = Y;
layers = (
{
anchors = (
{
name = L;
position = "{487, -75}";
},
{
name = U;
position = "{487, 1147}";
}
);
layerId = UUID0;
paths = (
{
closed = 1;
nodes = (
"110 983 OFFCURVE",
"159 897 OFFCURVE",
"217 798 CURVE SMOOTH",
"416 458 LINE",
"416 326 LINE SMOOTH",
"416 178 OFFCURVE",
"416 60 OFFCURVE",
"405 0 CURVE",
"570 0 LINE",
"558 60 OFFCURVE",
"558 178 OFFCURVE",
"558 326 CURVE SMOOTH",
"558 452 LINE",
"761 798 LINE SMOOTH",
"818 896 OFFCURVE",
"860 968 OFFCURVE",
"948 1095 CURVE",
"776 1095 LINE",
"495 599 LINE",
"198 1095 LINE",
"26 1095 LINE"
);
}
);
width = 990;
},
{
anchors = (
{
name = L;
position = "{504, -75}";
},
{
name = U;
position = "{504, 1147}";
}
);
layerId = "58C4FD73-E369-47FC-BB2E-BA826F97CEB5";
paths = (
{
closed = 1;
nodes = (
"586 506 LINE",
"267 1095 LINE",
"18 1095 LINE",
"102 983 OFFCURVE",
"152 897 OFFCURVE",
"210 798 CURVE SMOOTH",
"431 420 LINE"
);
},
{
closed = 1;
nodes = (
"801 798 LINE SMOOTH",
"858 896 OFFCURVE",
"900 968 OFFCURVE",
"989 1095 CURVE",
"747 1095 LINE",
"432 506 LINE",
"577 420 LINE"
);
},
{
closed = 1;
nodes = (
"397 326 LINE SMOOTH",
"397 178 OFFCURVE",
"397 60 OFFCURVE",
"386 0 CURVE",
"622 0 LINE",
"611 60 OFFCURVE",
"611 178 OFFCURVE",
"611 326 CURVE SMOOTH",
"611 521 LINE",
"397 521 LINE"
);
}
);
width = 1023;
}
);
unicode = 0059;
},
{
glyphname = Z;
layers = (
{
anchors = (
{
name = L;
position = "{453, -75}";
},
{
name = U;
position = "{453, 1147}";
}
);
layerId = UUID0;
paths = (
{
closed = 1;
nodes = (
"101 1095 LINE",
"101 956 LINE",
"161 969 OFFCURVE",
"249 971 OFFCURVE",
"397 971 CURVE SMOOTH",
"652 971 LINE",
"56 93 LINE",
"56 0 LINE",
"851 0 LINE",
"851 138 LINE",
"791 128 OFFCURVE",
"672 123 OFFCURVE",
"525 123 CURVE SMOOTH",
"232 123 LINE",
"828 997 LINE",
"828 1095 LINE"
);
}
);
width = 922;
},
{
anchors = (
{
name = L;
position = "{476, -75}";
},
{
name = U;
position = "{476, 1147}";
}
);
layerId = "58C4FD73-E369-47FC-BB2E-BA826F97CEB5";
paths = (
{
closed = 1;
nodes = (
"93 1095 LINE",
"93 907 LINE",
"159 920 OFFCURVE",
"257 922 OFFCURVE",
"420 922 CURVE SMOOTH",
"594 922 LINE",
"48 120 LINE",
"48 0 LINE",
"873 0 LINE",
"873 187 LINE",
"813 177 OFFCURVE",
"694 172 OFFCURVE",
"547 172 CURVE SMOOTH",
"311 172 LINE",
"851 963 LINE",
"851 1095 LINE"
);
}
);
width = 937;
}
);
unicode = 005A;
},
{
glyphname = bracketleft;
layers = (
{
layerId = UUID0;
paths = (
{
closed = 1;
nodes = (
"480 -195 LINE",
"288 -195 LINE",
"288 1087 LINE",
"480 1087 LINE",
"480 1200 LINE",
"150 1200 LINE",
"150 -307 LINE",
"480 -307 LINE"
);
}
);
width = 592;
},
{
layerId = "58C4FD73-E369-47FC-BB2E-BA826F97CEB5";
paths = (
{
closed = 1;
nodes = (
"532 -150 LINE",
"352 -150 LINE",
"352 1042 LINE",
"532 1042 LINE",
"532 1200 LINE",
"142 1200 LINE",
"142 -307 LINE",
"532 -307 LINE"
);
}
);
width = 637;
}
);
unicode = 005B;
},
{
glyphname = bracketright;
layers = (
{
layerId = UUID0;
paths = (
{
closed = 1;
nodes = (
"442 1200 LINE",
"112 1200 LINE",
"112 1087 LINE",
"303 1087 LINE",
"303 -195 LINE",
"112 -195 LINE",
"112 -307 LINE",
"442 -307 LINE"
);
}
);
width = 592;
},
{
layerId = "58C4FD73-E369-47FC-BB2E-BA826F97CEB5";
paths = (
{
closed = 1;
nodes = (
"495 1200 LINE",
"105 1200 LINE",
"105 1042 LINE",
"285 1042 LINE",
"285 -150 LINE",
"105 -150 LINE",
"105 -307 LINE",
"495 -307 LINE"
);
}
);
width = 637;
}
);
unicode = 005D;
},
{
glyphname = backslash;
layers = (
{
layerId = UUID0;
paths = (
{
closed = 1;
nodes = (
"120 1200 LINE",
"7 1200 LINE",
"630 -183 LINE",
"742 -183 LINE"
);
}
);
width = 750;
},
{
layerId = "58C4FD73-E369-47FC-BB2E-BA826F97CEB5";
paths = (
{
closed = 1;
nodes = (
"630 -183 LINE",
"802 -183 LINE",
"180 1200 LINE",
"7 1200 LINE"
);
}
);
width = 810;
}
);
unicode = 005C;
},
{
glyphname = underscore;
layers = (
{
layerId = UUID0;
paths = (
{
closed = 1;
nodes = (
"955 -240 LINE",
"955 -127 LINE",
"0 -127 LINE",
"0 -240 LINE"
);
}
);
width = 955;
},
{
layerId = "58C4FD73-E369-47FC-BB2E-BA826F97CEB5";
paths = (
{
closed = 1;
nodes = (
"970 -277 LINE",
"970 -127 LINE",
"0 -127 LINE",
"0 -277 LINE"
);
}
);
width = 970;
}
);
unicode = 005F;
},
{
glyphname = a;
layers = (
{
anchors = (
{
name = H;
position = "{405, 0}";
},
{
name = L;
position = "{405, -75}";
},
{
name = O;
position = "{843, 0}";
},
{
name = R;
position = "{840, 750}";
},
{
name = U;
position = "{405, 825}";
}
);
layerId = UUID0;
paths = (
{
closed = 1;
nodes = (
"712 689 OFFCURVE",
"600 780 OFFCURVE",
"427 780 CURVE SMOOTH",
"313 780 OFFCURVE",
"234 745 OFFCURVE",
"157 712 CURVE",
"153 680 OFFCURVE",
"150 599 OFFCURVE",
"150 566 CURVE",
"237 627 OFFCURVE",
"314 660 OFFCURVE",
"393 660 CURVE SMOOTH",
"506 660 OFFCURVE",
"573 623 OFFCURVE",
"573 532 CURVE SMOOTH",
"573 476 LINE",
"543 474 OFFCURVE",
"423 462 OFFCURVE",
"371 457 CURVE SMOOTH",
"139 435 OFFCURVE",
"71 305 OFFCURVE",
"71 191 CURVE SMOOTH",
"71 80 OFFCURVE",
"174 -18 OFFCURVE",
"315 -18 CURVE SMOOTH",
"408 -18 OFFCURVE",
"507 21 OFFCURVE",
"596 116 CURVE",
"606 68 OFFCURVE",
"624 24 OFFCURVE",
"633 0 CURVE",
"768 0 LINE",
"735 84 OFFCURVE",
"712 169 OFFCURVE",
"712 277 CURVE",
"712 570 LINE"
);
},
{
closed = 1;
nodes = (
"483 123 OFFCURVE",
"414 105 OFFCURVE",
"337 105 CURVE SMOOTH",
"255 105 OFFCURVE",
"206 143 OFFCURVE",
"206 210 CURVE SMOOTH",
"206 279 OFFCURVE",
"251 337 OFFCURVE",
"378 352 CURVE SMOOTH",
"426 358 OFFCURVE",
"536 369 OFFCURVE",
"573 371 CURVE",
"573 243 LINE"
);
}
);
width = 840;
},
{
anchors = (
{
name = H;
position = "{457, 0}";
},
{
name = L;
position = "{457, -75}";
},
{
name = O;
position = "{888, 0}";
},
{
name = R;
position = "{903, 750}";
},
{
name = U;
position = "{457, 825}";
}
);
layerId = "58C4FD73-E369-47FC-BB2E-BA826F97CEB5";
paths = (
{
closed = 1;
nodes = (
"808 84 OFFCURVE",
"787 169 OFFCURVE",
"787 277 CURVE SMOOTH",
"787 570 LINE SMOOTH",
"787 689 OFFCURVE",
"657 780 OFFCURVE",
"461 780 CURVE SMOOTH",
"334 780 OFFCURVE",
"246 745 OFFCURVE",
"161 712 CURVE",
"156 651 OFFCURVE",
"154 551 OFFCURVE",
"153 518 CURVE",
"241 579 OFFCURVE",
"318 612 OFFCURVE",
"397 612 CURVE SMOOTH",
"510 612 OFFCURVE",
"577 588 OFFCURVE",
"577 532 CURVE SMOOTH",
"577 495 LINE",
"546 494 OFFCURVE",
"426 486 OFFCURVE",
"375 481 CURVE SMOOTH",
"143 459 OFFCURVE",
"75 328 OFFCURVE",
"75 213 CURVE SMOOTH",
"75 90 OFFCURVE",
"183 -18 OFFCURVE",
"333 -18 CURVE SMOOTH",
"421 -18 OFFCURVE",
"516 17 OFFCURVE",
"600 101 CURVE",
"610 59 OFFCURVE",
"628 21 OFFCURVE",
"637 0 CURVE",
"840 0 LINE"
);
},
{
closed = 1;
nodes = (
"505 168 OFFCURVE",
"450 153 OFFCURVE",
"388 153 CURVE SMOOTH",
"327 153 OFFCURVE",
"285 192 OFFCURVE",
"285 240 CURVE SMOOTH",
"285 289 OFFCURVE",
"316 331 OFFCURVE",
"420 342 CURVE SMOOTH",
"458 347 OFFCURVE",
"547 355 OFFCURVE",
"577 356 CURVE",
"577 266 LINE"
);
}
);
width = 903;
}
);
unicode = 0061;
},
{
glyphname = b;
layers = (
{
anchors = (
{
name = H;
position = "{442, 0}";
},
{
name = L;
position = "{442, -75}";
},
{
name = R;
position = "{866, 750}";
},
{
name = U;
position = "{442, 1226}";
}
);
layerId = UUID0;
paths = (
{
closed = 1;
nodes = (
"108 1116 OFFCURVE",
"108 954 OFFCURVE",
"108 847 CURVE SMOOTH",
"108 702 OFFCURVE",
"108 171 OFFCURVE",
"108 48 CURVE",
"204 19 OFFCURVE",
"309 -18 OFFCURVE",
"431 -18 CURVE SMOOTH",
"652 -18 OFFCURVE",
"795 147 OFFCURVE",
"795 405 CURVE SMOOTH",
"795 624 OFFCURVE",
"687 780 OFFCURVE",
"536 780 CURVE SMOOTH",
"410 780 OFFCURVE",
"317 710 OFFCURVE",
"247 618 CURVE",
"247 687 OFFCURVE",
"247 1200 OFFCURVE",
"247 1200 CURVE",
"97 1200 LINE"
);
},
{
closed = 1;
nodes = (
"298 563 OFFCURVE",
"398 648 OFFCURVE",
"491 648 CURVE SMOOTH",
"599 648 OFFCURVE",
"660 545 OFFCURVE",
"660 378 CURVE SMOOTH",
"660 210 OFFCURVE",
"564 97 OFFCURVE",
"431 97 CURVE SMOOTH",
"366 97 OFFCURVE",
"321 108 OFFCURVE",
"247 138 CURVE",
"247 438 LINE"
);
}
);
width = 866;
},
{
anchors = (
{
name = H;
position = "{457, 0}";
},
{
name = L;
position = "{457, -75}";
},
{
name = R;
position = "{911, 750}";
},
{
name = U;
position = "{457, 1226}";
}
);
layerId = "58C4FD73-E369-47FC-BB2E-BA826F97CEB5";
paths = (
{
closed = 1;
nodes = (
"101 1116 OFFCURVE",
"101 954 OFFCURVE",
"101 847 CURVE SMOOTH",
"101 48 LINE",
"214 19 OFFCURVE",
"342 -18 OFFCURVE",
"487 -18 CURVE SMOOTH",
"704 -18 OFFCURVE",
"843 147 OFFCURVE",
"843 405 CURVE SMOOTH",
"843 624 OFFCURVE",
"739 780 OFFCURVE",
"591 780 CURVE SMOOTH",
"469 780 OFFCURVE",
"378 717 OFFCURVE",
"311 633 CURVE",
"311 700 OFFCURVE",
"311 1200 OFFCURVE",
"311 1200 CURVE",
"90 1200 LINE"
);
},
{
closed = 1;
nodes = (
"353 531 OFFCURVE",
"435 596 OFFCURVE",
"512 596 CURVE SMOOTH",
"594 596 OFFCURVE",
"641 513 OFFCURVE",
"641 378 CURVE SMOOTH",
"641 237 OFFCURVE",
"562 142 OFFCURVE",
"453 142 CURVE SMOOTH",
"403 142 OFFCURVE",
"369 153 OFFCURVE",
"311 180 CURVE",
"311 438 LINE"
);
}
);
width = 911;
}
);
unicode = 0062;
},
{
glyphname = c;
layers = (
{
anchors = (
{
name = H;
position = "{435, 0}";
},
{
name = L;
position = "{435, -75}";
},
{
name = R;
position = "{765, 750}";
},
{
name = U;
position = "{427, 825}";
}
);
layerId = UUID0;
paths = (
{
closed = 1;
nodes = (
"613 137 OFFCURVE",
"540 105 OFFCURVE",
"450 105 CURVE SMOOTH",
"304 105 OFFCURVE",
"213 213 OFFCURVE",
"213 375 CURVE SMOOTH",
"213 552 OFFCURVE",
"316 656 OFFCURVE",
"450 656 CURVE SMOOTH",
"527 656 OFFCURVE",
"592 630 OFFCURVE",
"660 581 CURVE",
"686 716 LINE",
"631 753 OFFCURVE",
"561 780 OFFCURVE",
"461 780 CURVE SMOOTH",
"222 780 OFFCURVE",
"71 594 OFFCURVE",
"71 367 CURVE SMOOTH",
"71 128 OFFCURVE",
"234 -18 OFFCURVE",
"435 -18 CURVE SMOOTH",
"547 -18 OFFCURVE",
"618 6 OFFCURVE",
"693 63 CURVE",
"678 195 LINE"
);
}
);
width = 765;
},
{
anchors = (
{
name = H;
position = "{416, 0}";
},
{
name = L;
position = "{431, -74}";
},
{
name = R;
position = "{765, 750}";
},
{
name = U;
position = "{431, 825}";
}
);
layerId = "58C4FD73-E369-47FC-BB2E-BA826F97CEB5";
paths = (
{
closed = 1;
nodes = (
"636 755 OFFCURVE",
"558 780 OFFCURVE",
"459 780 CURVE SMOOTH",
"221 780 OFFCURVE",
"67 601 OFFCURVE",
"67 367 CURVE SMOOTH",
"67 120 OFFCURVE",
"231 -18 OFFCURVE",
"433 -18 CURVE SMOOTH",
"545 -18 OFFCURVE",
"630 6 OFFCURVE",
"699 52 CURVE",
"676 232 LINE",
"611 180 OFFCURVE",
"552 150 OFFCURVE",
"462 150 CURVE SMOOTH",
"342 150 OFFCURVE",
"277 243 OFFCURVE",
"277 375 CURVE SMOOTH",
"277 520 OFFCURVE",
"351 615 OFFCURVE",
"462 615 CURVE SMOOTH",
"547 615 OFFCURVE",
"606 591 OFFCURVE",
"658 545 CURVE",
"691 726 LINE"
);
}
);
width = 766;
}
);
unicode = 0063;
},
{
glyphname = d;
layers = (
{
anchors = (
{
name = H;
position = "{453, 0}";
},
{
name = L;
position = "{453, -75}";
},
{
name = R;
position = "{892, 750}";
},
{
name = U;
position = "{453, 1226}";
}
);
layerId = UUID0;
paths = (
{
closed = 1;
nodes = (
"615 1200 LINE",
"629 1137 OFFCURVE",
"633 1046 OFFCURVE",
"633 926 CURVE",
"633 716 LINE",
"575 749 OFFCURVE",
"498 780 OFFCURVE",
"435 780 CURVE SMOOTH",
"234 780 OFFCURVE",
"78 610 OFFCURVE",
"78 345 CURVE SMOOTH",
"78 125 OFFCURVE",
"195 -18 OFFCURVE",
"378 -18 CURVE SMOOTH",
"489 -18 OFFCURVE",
"581 37 OFFCURVE",
"652 138 CURVE",
"665 83 OFFCURVE",
"682 25 OFFCURVE",
"693 0 CURVE",
"828 0 LINE",
"796 84 OFFCURVE",
"772 208 OFFCURVE",
"772 397 CURVE",
"772 1200 LINE"
);
},
{
closed = 1;
nodes = (
"592 201 OFFCURVE",
"496 101 OFFCURVE",
"405 101 CURVE SMOOTH",
"274 101 OFFCURVE",
"217 193 OFFCURVE",
"217 367 CURVE SMOOTH",
"217 545 OFFCURVE",
"321 652 OFFCURVE",
"435 652 CURVE SMOOTH",
"510 652 OFFCURVE",
"559 636 OFFCURVE",
"633 596 CURVE",
"633 300 LINE"
);
}
);
width = 892;
},
{
anchors = (
{
name = H;
position = "{446, 0}";
},
{
name = L;
position = "{446, -75}";
},
{
name = R;
position = "{963, 750}";
},
{
name = U;
position = "{457, 1226}";
}
);
layerId = "58C4FD73-E369-47FC-BB2E-BA826F97CEB5";
paths = (
{
closed = 1;
nodes = (
"607 1200 LINE",
"621 1137 OFFCURVE",
"626 1046 OFFCURVE",
"626 926 CURVE SMOOTH",
"626 716 LINE",
"572 749 OFFCURVE",
"501 780 OFFCURVE",
"442 780 CURVE SMOOTH",
"239 780 OFFCURVE",
"75 610 OFFCURVE",
"75 345 CURVE SMOOTH",
"75 125 OFFCURVE",
"201 -18 OFFCURVE",
"386 -18 CURVE SMOOTH",
"490 -18 OFFCURVE",
"577 35 OFFCURVE",
"645 131 CURVE",
"657 78 OFFCURVE",
"675 24 OFFCURVE",
"686 0 CURVE",
"892 0 LINE",
"860 84 OFFCURVE",
"836 208 OFFCURVE",
"836 397 CURVE SMOOTH",
"836 1200 LINE"
);
},
{
closed = 1;
nodes = (
"590 225 OFFCURVE",
"507 150 OFFCURVE",
"427 150 CURVE SMOOTH",
"332 150 OFFCURVE",
"285 225 OFFCURVE",
"285 367 CURVE SMOOTH",
"285 513 OFFCURVE",
"363 600 OFFCURVE",
"442 600 CURVE SMOOTH",
"512 600 OFFCURVE",
"557 587 OFFCURVE",
"626 553 CURVE",
"626 300 LINE"
);
}
);
width = 948;
}
);
unicode = 0064;
},
{
glyphname = e;
layers = (
{
anchors = (
{
name = H;
position = "{408, 0}";
},
{
name = L;
position = "{427, -75}";
},
{
name = O;
position = "{693, 0}";
},
{
name = R;
position = "{821, 750}";
},
{
name = U;
position = "{427, 825}";
}
);
layerId = UUID0;
paths = (
{
closed = 1;
nodes = (
"742 377 OFFCURVE",
"742 408 OFFCURVE",
"742 422 CURVE SMOOTH",
"742 591 OFFCURVE",
"678 780 OFFCURVE",
"431 780 CURVE SMOOTH",
"209 780 OFFCURVE",
"71 619 OFFCURVE",
"71 371 CURVE SMOOTH",
"71 116 OFFCURVE",
"240 -18 OFFCURVE",
"431 -18 CURVE SMOOTH",
"546 -18 OFFCURVE",
"639 1 OFFCURVE",
"746 56 CURVE",
"731 180 LINE",
"639 124 OFFCURVE",
"546 105 OFFCURVE",
"450 105 CURVE SMOOTH",
"310 105 OFFCURVE",
"210 193 OFFCURVE",
"210 378 CURVE SMOOTH",
"210 577 OFFCURVE",
"288 667 OFFCURVE",
"420 667 CURVE SMOOTH",
"528 667 OFFCURVE",
"607 597 OFFCURVE",
"607 468 CURVE",
"183 468 LINE",
"183 363 LINE",
"741 363 LINE"
);
}
);
width = 821;
},
{
anchors = (
{
name = H;
position = "{426, 0}";
},
{
name = L;
position = "{441, -75}";
},
{
name = O;
position = "{675, 0}";
},
{
name = R;
position = "{847, 750}";
},
{
name = U;
position = "{435, 825}";
}
);
layerId = "58C4FD73-E369-47FC-BB2E-BA826F97CEB5";
paths = (
{
closed = 1;
nodes = (
"757 351 OFFCURVE",
"756 384 OFFCURVE",
"756 399 CURVE SMOOTH",
"756 586 OFFCURVE",
"693 780 OFFCURVE",
"441 780 CURVE SMOOTH",
"210 780 OFFCURVE",
"67 619 OFFCURVE",
"67 371 CURVE SMOOTH",
"67 116 OFFCURVE",
"243 -18 OFFCURVE",
"441 -18 CURVE SMOOTH",
"558 -18 OFFCURVE",
"653 1 OFFCURVE",
"761 56 CURVE",
"745 225 LINE",
"652 170 OFFCURVE",
"558 150 OFFCURVE",
"460 150 CURVE SMOOTH",
"336 150 OFFCURVE",
"271 219 OFFCURVE",
"271 378 CURVE SMOOTH",
"271 554 OFFCURVE",
"323 622 OFFCURVE",
"431 622 CURVE SMOOTH",
"519 622 OFFCURVE",
"566 577 OFFCURVE",
"566 472 CURVE",
"181 472 LINE",
"181 337 LINE",
"757 337 LINE"
);
}
);
width = 832;
}
);
unicode = 0065;
},
{
glyphname = f;
layers = (
{
anchors = (
{
name = H;
position = "{277, 0}";
},
{
name = L;
position = "{251, -75}";
},
{
name = U;
position = "{311, 1226}";
}
);
layerId = UUID0;
paths = (
{
closed = 1;
nodes = (
"180 815 OFFCURVE",
"180 0 OFFCURVE",
"180 0 CURVE",
"341 0 LINE",
"324 78 OFFCURVE",
"318 225 OFFCURVE",
"318 370 CURVE SMOOTH",
"318 441 OFFCURVE",
"318 827 OFFCURVE",
"318 907 CURVE SMOOTH",
"318 1035 OFFCURVE",
"360 1087 OFFCURVE",
"438 1087 CURVE SMOOTH",
"482 1087 OFFCURVE",
"532 1070 OFFCURVE",
"570 1042 CURVE",
"603 1162 LINE",
"557 1195 OFFCURVE",
"497 1215 OFFCURVE",
"438 1215 CURVE SMOOTH",
"276 1215 OFFCURVE",
"180 1102 OFFCURVE",
"180 877 CURVE SMOOTH"
);
},
{
closed = 1;
nodes = (
"521 637 LINE",
"521 746 LINE",
"30 746 LINE",
"30 637 LINE"
);
}
);
width = 562;
},
{
anchors = (
{
name = H;
position = "{285, 0}";
},
{
name = L;
position = "{300, -75}";
},
{
name = U;
position = "{375, 1226}";
}
);
layerId = "58C4FD73-E369-47FC-BB2E-BA826F97CEB5";
paths = (
{
closed = 1;
nodes = (
"172 603 LINE",
"172 0 LINE",
"405 0 LINE",
"388 78 OFFCURVE",
"382 225 OFFCURVE",
"382 370 CURVE SMOOTH",
"382 603 LINE",
"573 603 LINE",
"573 753 LINE",
"382 753 LINE",
"382 869 LINE SMOOTH",
"382 991 OFFCURVE",
"414 1040 OFFCURVE",
"486 1040 CURVE SMOOTH",
"522 1040 OFFCURVE",
"573 1021 OFFCURVE",
"606 991 CURVE",
"648 1162 LINE",
"604 1191 OFFCURVE",
"524 1215 OFFCURVE",
"468 1215 CURVE SMOOTH",
"283 1215 OFFCURVE",
"172 1102 OFFCURVE",
"172 877 CURVE SMOOTH",
"172 753 LINE",
"22 753 LINE",
"22 603 LINE"
);
}
);
width = 600;
}
);
unicode = 0066;
},
{
glyphname = g;
layers = (
{
anchors = (
{
name = H;
position = "{408, -324}";
},
{
name = L;
position = "{408, -401}";
},
{
name = R;
position = "{821, 750}";
},
{
name = U;
position = "{386, 825}";
}
);
layerId = UUID0;
paths = (
{
closed = 1;
nodes = (
"175 267 OFFCURVE",
"135 206 OFFCURVE",
"135 161 CURVE SMOOTH",
"135 90 OFFCURVE",
"197 20 OFFCURVE",
"408 -3 CURVE SMOOTH",
"603 -26 OFFCURVE",
"660 -67 OFFCURVE",
"660 -127 CURVE SMOOTH",
"660 -191 OFFCURVE",
"548 -270 OFFCURVE",
"412 -270 CURVE SMOOTH",
"242 -270 OFFCURVE",
"161 -195 OFFCURVE",
"161 -135 CURVE SMOOTH",
"161 -90 OFFCURVE",
"183 -42 OFFCURVE",
"348 15 CURVE",
"344 36 OFFCURVE",
"217 56 OFFCURVE",
"217 56 CURVE",
"84 1 OFFCURVE",
"22 -66 OFFCURVE",
"22 -150 CURVE SMOOTH",
"22 -306 OFFCURVE",
"227 -378 OFFCURVE",
"401 -378 CURVE SMOOTH",
"582 -378 OFFCURVE",
"798 -281 OFFCURVE",
"798 -120 CURVE SMOOTH",
"798 -6 OFFCURVE",
"725 67 OFFCURVE",
"502 93 CURVE SMOOTH",
"307 117 OFFCURVE",
"258 148 OFFCURVE",
"258 176 CURVE SMOOTH",
"258 203 OFFCURVE",
"288 237 OFFCURVE",
"375 262 CURVE",
"247 296 LINE"
);
},
{
closed = 1;
nodes = (
"713 774 OFFCURVE",
"614 747 OFFCURVE",
"547 705 CURVE",
"596 618 LINE",
"665 647 OFFCURVE",
"725 658 OFFCURVE",
"780 660 CURVE",
"787 780 LINE"
);
},
{
closed = 1;
nodes = (
"86 357 OFFCURVE",
"216 243 OFFCURVE",
"386 243 CURVE SMOOTH",
"556 243 OFFCURVE",
"686 357 OFFCURVE",
"686 510 CURVE SMOOTH",
"686 663 OFFCURVE",
"556 780 OFFCURVE",
"386 780 CURVE SMOOTH",
"216 780 OFFCURVE",
"86 663 OFFCURVE",
"86 510 CURVE SMOOTH"
);
},
{
closed = 1;
nodes = (
"213 602 OFFCURVE",
"286 671 OFFCURVE",
"386 671 CURVE SMOOTH",
"486 671 OFFCURVE",
"558 602 OFFCURVE",
"558 510 CURVE SMOOTH",
"558 417 OFFCURVE",
"486 348 OFFCURVE",
"386 348 CURVE SMOOTH",
"286 348 OFFCURVE",
"213 417 OFFCURVE",
"213 510 CURVE SMOOTH"
);
}
);
width = 821;
},
{
anchors = (
{
name = H;
position = "{438, -348}";
},
{
name = L;
position = "{438, -401}";
},
{
name = R;
position = "{890, 750}";
},
{
name = U;
position = "{423, 825}";
}
);
layerId = "58C4FD73-E369-47FC-BB2E-BA826F97CEB5";
paths = (
{
closed = 1;
nodes = (
"192 267 OFFCURVE",
"151 206 OFFCURVE",
"151 161 CURVE SMOOTH",
"151 84 OFFCURVE",
"210 6 OFFCURVE",
"410 -17 CURVE SMOOTH",
"597 -39 OFFCURVE",
"652 -74 OFFCURVE",
"652 -127 CURVE SMOOTH",
"652 -171 OFFCURVE",
"561 -226 OFFCURVE",
"451 -226 CURVE SMOOTH",
"313 -226 OFFCURVE",
"247 -176 OFFCURVE",
"247 -135 CURVE SMOOTH",
"247 -90 OFFCURVE",
"267 -42 OFFCURVE",
"421 15 CURVE",
"415 36 OFFCURVE",
"241 56 OFFCURVE",
"241 56 CURVE",
"103 1 OFFCURVE",
"37 -66 OFFCURVE",
"37 -150 CURVE SMOOTH",
"37 -306 OFFCURVE",
"255 -378 OFFCURVE",
"440 -378 CURVE SMOOTH",
"632 -378 OFFCURVE",
"862 -281 OFFCURVE",
"862 -120 CURVE SMOOTH",
"862 9 OFFCURVE",
"787 97 OFFCURVE",
"564 123 CURVE SMOOTH",
"372 146 OFFCURVE",
"324 162 OFFCURVE",
"324 191 CURVE SMOOTH",
"324 213 OFFCURVE",
"354 241 OFFCURVE",
"441 262 CURVE",
"264 296 LINE"
);
},
{
closed = 1;
nodes = (
"752 774 OFFCURVE",
"653 747 OFFCURVE",
"586 705 CURVE",
"635 577 LINE",
"704 606 OFFCURVE",
"764 617 OFFCURVE",
"819 618 CURVE",
"826 780 LINE"
);
},
{
closed = 1;
nodes = (
"91 341 OFFCURVE",
"237 228 OFFCURVE",
"425 228 CURVE SMOOTH",
"615 228 OFFCURVE",
"759 348 OFFCURVE",
"759 510 CURVE SMOOTH",
"759 663 OFFCURVE",
"615 780 OFFCURVE",
"425 780 CURVE SMOOTH",
"237 780 OFFCURVE",
"91 655 OFFCURVE",
"91 502 CURVE SMOOTH"
);
},
{
closed = 1;
nodes = (
"282 577 OFFCURVE",
"342 635 OFFCURVE",
"425 635 CURVE SMOOTH",
"508 635 OFFCURVE",
"567 577 OFFCURVE",
"567 510 CURVE SMOOTH",
"567 433 OFFCURVE",
"508 375 OFFCURVE",
"425 375 CURVE SMOOTH",
"342 375 OFFCURVE",
"282 433 OFFCURVE",
"282 510 CURVE SMOOTH"
);
}
);
width = 900;
}
);
unicode = 0067;
},
{
glyphname = h;
layers = (
{
anchors = (
{
name = H;
position = "{187, 0}";
},
{
name = L;
position = "{438, -75}";
},
{
name = U;
position = "{438, 1226}";
}
);
layerId = UUID0;
paths = (
{
closed = 1;
nodes = (
"780 0 OFFCURVE",
"780 344 OFFCURVE",
"780 468 CURVE SMOOTH",
"780 675 OFFCURVE",
"692 780 OFFCURVE",
"532 780 CURVE SMOOTH",
"427 780 OFFCURVE",
"321 726 OFFCURVE",
"247 622 CURVE",
"247 657 OFFCURVE",
"247 1200 OFFCURVE",
"247 1200 CURVE",
"97 1200 LINE",
"108 1135 OFFCURVE",
"108 1008 OFFCURVE",
"108 847 CURVE SMOOTH",
"108 701 OFFCURVE",
"108 0 OFFCURVE",
"108 0 CURVE",
"247 0 LINE",
"247 435 LINE",
"280 537 OFFCURVE",
"383 648 OFFCURVE",
"491 648 CURVE SMOOTH",
"591 648 OFFCURVE",
"641 600 OFFCURVE",
"641 412 CURVE SMOOTH",
"641 309 OFFCURVE",
"641 0 OFFCURVE",
"641 0 CURVE",
"780 0 LINE"
);
}
);
width = 881;
},
{
anchors = (
{
name = H;
position = "{210, 0}";
},
{
name = L;
position = "{465, -75}";
},
{
name = U;
position = "{465, 1226}";
}
);
layerId = "58C4FD73-E369-47FC-BB2E-BA826F97CEB5";
paths = (
{
closed = 1;
nodes = (
"337 512 OFFCURVE",
"420 596 OFFCURVE",
"506 596 CURVE SMOOTH",
"586 596 OFFCURVE",
"622 558 OFFCURVE",
"622 412 CURVE SMOOTH",
"622 309 OFFCURVE",
"622 0 OFFCURVE",
"622 0 CURVE",
"832 0 LINE",
"832 0 OFFCURVE",
"832 344 OFFCURVE",
"832 468 CURVE SMOOTH",
"832 675 OFFCURVE",
"756 780 OFFCURVE",
"603 780 CURVE SMOOTH",
"496 780 OFFCURVE",
"384 732 OFFCURVE",
"311 637 CURVE",
"311 670 OFFCURVE",
"311 1200 OFFCURVE",
"311 1200 CURVE",
"90 1200 LINE",
"101 1135 OFFCURVE",
"101 1008 OFFCURVE",
"101 847 CURVE SMOOTH",
"101 701 OFFCURVE",
"101 0 OFFCURVE",
"101 0 CURVE",
"311 0 LINE",
"311 435 LINE"
);
}
);
width = 926;
}
);
unicode = 0068;
},
{
glyphname = i;
layers = (
{
anchors = (
{
name = H;
position = "{219, 0}";
},
{
name = L;
position = "{213, -75}";
},
{
name = O;
position = "{375, 0}";
},
{
name = R;
position = "{416, 750}";
},
{
name = U;
position = "{211, 825}";
}
);
layerId = UUID0;
paths = (
{
closed = 1;
nodes = (
"131 765 LINE",
"141 686 OFFCURVE",
"142 543 OFFCURVE",
"142 397 CURVE SMOOTH",
"142 252 OFFCURVE",
"142 0 OFFCURVE",
"142 0 CURVE",
"296 0 LINE",
"286 80 OFFCURVE",
"281 259 OFFCURVE",
"281 356 CURVE SMOOTH",
"281 765 LINE"
);
},
{
closed = 1;
nodes = (
"116 953 OFFCURVE",
"154 907 OFFCURVE",
"210 907 CURVE SMOOTH",
"266 907 OFFCURVE",
"307 953 OFFCURVE",
"307 1008 CURVE SMOOTH",
"307 1064 OFFCURVE",
"266 1110 OFFCURVE",
"210 1110 CURVE SMOOTH",
"154 1110 OFFCURVE",
"116 1064 OFFCURVE",
"116 1008 CURVE SMOOTH"
);
}
);
width = 423;
},
{
anchors = (
{
name = H;
position = "{247, 0}";
},
{
name = L;
position = "{240, -75}";
},
{
name = O;
position = "{435, 0}";
},
{
name = R;
position = "{480, 750}";
},
{
name = U;
position = "{240, 825}";
}
);
layerId = "58C4FD73-E369-47FC-BB2E-BA826F97CEB5";
paths = (
{
closed = 1;
nodes = (
"133 686 OFFCURVE",
"135 543 OFFCURVE",
"135 397 CURVE SMOOTH",
"135 252 OFFCURVE",
"135 0 OFFCURVE",
"135 0 CURVE",
"360 0 LINE",
"350 80 OFFCURVE",
"345 259 OFFCURVE",
"345 356 CURVE SMOOTH",
"345 418 OFFCURVE",
"345 765 OFFCURVE",
"345 765 CURVE",
"123 765 LINE"
);
},
{
closed = 1;
nodes = (
"108 960 OFFCURVE",
"164 907 OFFCURVE",
"240 907 CURVE SMOOTH",
"316 907 OFFCURVE",
"371 960 OFFCURVE",
"371 1038 CURVE SMOOTH",
"371 1115 OFFCURVE",
"316 1170 OFFCURVE",
"240 1170 CURVE SMOOTH",
"164 1170 OFFCURVE",
"108 1115 OFFCURVE",
"108 1038 CURVE SMOOTH"
);
}
);
width = 480;
}
);
unicode = 0069;
},
{
glyphname = j;
layers = (
{
anchors = (
{
name = L;
position = "{93, -375}";
},
{
name = U;
position = "{234, 825}";
}
);
layerId = UUID0;
paths = (
{
closed = 1;
nodes = (
"153 765 LINE",
"163 686 OFFCURVE",
"165 543 OFFCURVE",
"165 397 CURVE",
"165 -18 LINE",
"165 -166 OFFCURVE",
"110 -225 OFFCURVE",
"30 -225 CURVE SMOOTH",
"-12 -225 OFFCURVE",
"-83 -204 OFFCURVE",
"-116 -180 CURVE",
"-142 -303 LINE",
"-97 -334 OFFCURVE",
"-19 -352 OFFCURVE",
"22 -352 CURVE SMOOTH",
"193 -352 OFFCURVE",
"303 -261 OFFCURVE",
"303 18 CURVE SMOOTH",
"303 765 LINE"
);
},
{
closed = 1;
nodes = (
"138 953 OFFCURVE",
"177 907 OFFCURVE",
"232 907 CURVE SMOOTH",
"288 907 OFFCURVE",
"330 953 OFFCURVE",
"330 1008 CURVE SMOOTH",
"330 1064 OFFCURVE",
"288 1110 OFFCURVE",
"232 1110 CURVE SMOOTH",
"177 1110 OFFCURVE",
"138 1064 OFFCURVE",
"138 1008 CURVE SMOOTH"
);
}
);
width = 446;
},
{
anchors = (
{
name = L;
position = "{105, -375}";
},
{
name = U;
position = "{266, 825}";
}
);
layerId = "58C4FD73-E369-47FC-BB2E-BA826F97CEB5";
paths = (
{
closed = 1;
nodes = (
"138 960 OFFCURVE",
"194 907 OFFCURVE",
"270 907 CURVE SMOOTH",
"346 907 OFFCURVE",
"401 960 OFFCURVE",
"401 1038 CURVE SMOOTH",
"401 1115 OFFCURVE",
"346 1170 OFFCURVE",
"270 1170 CURVE SMOOTH",
"194 1170 OFFCURVE",
"138 1115 OFFCURVE",
"138 1038 CURVE SMOOTH"
);
},
{
closed = 1;
nodes = (
"153 765 LINE",
"163 686 OFFCURVE",
"165 543 OFFCURVE",
"165 397 CURVE SMOOTH",
"165 15 LINE SMOOTH",
"165 -112 OFFCURVE",
"123 -174 OFFCURVE",
"36 -174 CURVE SMOOTH",
"-15 -174 OFFCURVE",
"-75 -146 OFFCURVE",
"-108 -114 CURVE",
"-142 -291 LINE",
"-111 -315 OFFCURVE",
"-27 -352 OFFCURVE",
"42 -352 CURVE SMOOTH",
"229 -352 OFFCURVE",
"375 -261 OFFCURVE",
"375 18 CURVE SMOOTH",
"375 765 LINE"
);
}
);
width = 502;
}
);
unicode = 006A;
},
{
glyphname = k;
layers = (
{
anchors = (
{
name = H;
position = "{182, 0}";
},
{
name = L;
position = "{429, -75}";
},
{
name = R;
position = "{776, 750}";
},
{
name = U;
position = "{429, 1226}";
}
);
layerId = UUID0;
paths = (
{
closed = 1;
nodes = (
"247 1200 LINE",
"97 1200 LINE",
"108 1135 OFFCURVE",
"108 1008 OFFCURVE",
"108 847 CURVE SMOOTH",
"108 700 OFFCURVE",
"108 0 OFFCURVE",
"108 0 CURVE",
"247 0 LINE"
);
},
{
closed = 1;
nodes = (
"210 412 LINE",
"327 393 LINE",
"738 765 LINE",
"551 765 LINE"
);
},
{
closed = 1;
nodes = (
"577 0 LINE",
"761 0 LINE",
"307 495 LINE",
"228 412 LINE"
);
}
);
width = 776;
},
{
anchors = (
{
name = H;
position = "{705, 0}";
},
{
name = L;
position = "{438, -75}";
},
{
name = R;
position = "{855, 750}";
},
{
name = U;
position = "{446, 1226}";
}
);
layerId = "58C4FD73-E369-47FC-BB2E-BA826F97CEB5";
paths = (
{
closed = 1;
nodes = (
"311 1200 LINE",
"90 1200 LINE",
"101 1135 OFFCURVE",
"101 1008 OFFCURVE",
"101 847 CURVE SMOOTH",
"101 700 OFFCURVE",
"101 0 OFFCURVE",
"101 0 CURVE",
"311 0 LINE"
);
},
{
closed = 1;
nodes = (
"264 427 LINE",
"429 396 LINE",
"823 765 LINE",
"542 765 LINE"
);
},
{
closed = 1;
nodes = (
"570 0 LINE",
"846 0 LINE",
"405 498 LINE",
"262 427 LINE"
);
}
);
width = 853;
}
);
unicode = 006B;
},
{
glyphname = l;
layers = (
{
anchors = (
{
name = H;
position = "{217, 0}";
},
{
name = L;
position = "{217, -75}";
},
{
name = R;
position = "{412, 750}";
},
{
name = U;
position = "{213, 1226}";
}
);
layerId = UUID0;
paths = (
{
closed = 1;
nodes = (
"127 1200 LINE",
"137 1113 OFFCURVE",
"142 993 OFFCURVE",
"142 847 CURVE SMOOTH",
"142 0 LINE",
"296 0 LINE",
"286 81 OFFCURVE",
"281 259 OFFCURVE",
"281 356 CURVE SMOOTH",
"281 1200 LINE"
);
}
);
width = 423;
},
{
anchors = (
{
name = H;
position = "{251, 0}";
},
{
name = L;
position = "{251, -75}";
},
{
name = R;
position = "{495, 750}";
},
{
name = U;
position = "{240, 1226}";
}
);
layerId = "58C4FD73-E369-47FC-BB2E-BA826F97CEB5";
paths = (
{
closed = 1;
nodes = (
"120 1200 LINE",
"129 1113 OFFCURVE",
"135 993 OFFCURVE",
"135 847 CURVE SMOOTH",
"135 0 LINE",
"360 0 LINE",
"350 81 OFFCURVE",
"345 259 OFFCURVE",
"345 356 CURVE SMOOTH",
"345 1200 LINE"
);
}
);
width = 480;
}
);
unicode = 006C;
},
{
glyphname = m;
layers = (
{
anchors = (
{
name = H;
position = "{1087, 0}";
},
{
name = L;
position = "{648, -75}";
},
{
name = U;
position = "{648, 825}";
}
);
layerId = UUID0;
paths = (
{
closed = 1;
nodes = (
"752 588 OFFCURVE",
"826 648 OFFCURVE",
"900 648 CURVE SMOOTH",
"984 648 OFFCURVE",
"1008 606 OFFCURVE",
"1008 412 CURVE SMOOTH",
"1008 0 LINE",
"1147 0 LINE",
"1147 495 LINE SMOOTH",
"1147 680 OFFCURVE",
"1097 780 OFFCURVE",
"945 780 CURVE SMOOTH",
"866 780 OFFCURVE",
"784 755 OFFCURVE",
"690 654 CURVE",
"666 720 OFFCURVE",
"604 780 OFFCURVE",
"506 780 CURVE SMOOTH",
"420 780 OFFCURVE",
"344 754 OFFCURVE",
"252 648 CURVE",
"247 684 OFFCURVE",
"240 733 OFFCURVE",
"228 765 CURVE",
"93 765 LINE",
"109 713 OFFCURVE",
"131 608 OFFCURVE",
"131 461 CURVE SMOOTH",
"131 0 LINE",
"270 0 LINE",
"270 495 LINE",
"309 585 OFFCURVE",
"387 648 OFFCURVE",
"461 648 CURVE SMOOTH",
"545 648 OFFCURVE",
"570 613 OFFCURVE",
"570 427 CURVE SMOOTH",
"570 0 LINE",
"708 0 LINE",
"708 495 LINE"
);
}
);
width = 1263;
},
{
anchors = (
{
name = H;
position = "{667, 0}";
},
{
name = L;
position = "{667, -75}";
},
{
name = U;
position = "{667, 825}";
}
);
layerId = "58C4FD73-E369-47FC-BB2E-BA826F97CEB5";
paths = (
{
closed = 1;
nodes = (
"102 713 OFFCURVE",
"123 608 OFFCURVE",
"123 461 CURVE SMOOTH",
"123 0 LINE",
"333 0 LINE",
"333 480 LINE",
"363 548 OFFCURVE",
"420 596 OFFCURVE",
"476 596 CURVE SMOOTH",
"542 596 OFFCURVE",
"562 569 OFFCURVE",
"562 427 CURVE SMOOTH",
"562 0 LINE",
"772 0 LINE",
"772 495 LINE",
"804 556 OFFCURVE",
"860 596 OFFCURVE",
"915 596 CURVE SMOOTH",
"982 596 OFFCURVE",
"1001 563 OFFCURVE",
"1001 412 CURVE SMOOTH",
"1001 0 LINE",
"1211 0 LINE",
"1211 495 LINE SMOOTH",
"1211 680 OFFCURVE",
"1161 780 OFFCURVE",
"1008 780 CURVE SMOOTH",
"930 780 OFFCURVE",
"848 755 OFFCURVE",
"754 654 CURVE",
"729 720 OFFCURVE",
"668 780 OFFCURVE",
"570 780 CURVE SMOOTH",
"483 780 OFFCURVE",
"408 756 OFFCURVE",
"316 656 CURVE",
"309 690 OFFCURVE",
"297 735 OFFCURVE",
"281 765 CURVE",
"86 765 LINE"
);
}
);
width = 1320;
}
);
unicode = 006D;
},
{
glyphname = n;
layers = (
{
anchors = (
{
name = H;
position = "{727, 0}";
},
{
name = L;
position = "{450, -75}";
},
{
name = U;
position = "{450, 825}";
}
);
layerId = UUID0;
paths = (
{
closed = 1;
nodes = (
"787 0 OFFCURVE",
"787 344 OFFCURVE",
"787 468 CURVE SMOOTH",
"787 675 OFFCURVE",
"699 780 OFFCURVE",
"540 780 CURVE SMOOTH",
"434 780 OFFCURVE",
"339 732 OFFCURVE",
"243 618 CURVE",
"238 654 OFFCURVE",
"225 733 OFFCURVE",
"213 765 CURVE",
"78 765 LINE",
"95 713 OFFCURVE",
"116 608 OFFCURVE",
"116 461 CURVE SMOOTH",
"116 315 OFFCURVE",
"116 0 OFFCURVE",
"116 0 CURVE",
"255 0 LINE",
"255 435 LINE",
"288 537 OFFCURVE",
"390 648 OFFCURVE",
"498 648 CURVE SMOOTH",
"600 648 OFFCURVE",
"648 600 OFFCURVE",
"648 412 CURVE SMOOTH",
"648 309 OFFCURVE",
"648 0 OFFCURVE",
"648 0 CURVE",
"787 0 LINE"
);
}
);
width = 888;
},
{
anchors = (
{
name = H;
position = "{465, 0}";
},
{
name = L;
position = "{465, -75}";
},
{
name = U;
position = "{465, 825}";
}
);
layerId = "58C4FD73-E369-47FC-BB2E-BA826F97CEB5";
paths = (
{
closed = 1;
nodes = (
"840 0 OFFCURVE",
"840 344 OFFCURVE",
"840 468 CURVE SMOOTH",
"840 675 OFFCURVE",
"748 780 OFFCURVE",
"596 780 CURVE SMOOTH",
"490 780 OFFCURVE",
"402 735 OFFCURVE",
"307 626 CURVE",
"302 660 OFFCURVE",
"288 735 OFFCURVE",
"277 765 CURVE",
"71 765 LINE",
"87 713 OFFCURVE",
"108 608 OFFCURVE",
"108 461 CURVE SMOOTH",
"108 315 OFFCURVE",
"108 0 OFFCURVE",
"108 0 CURVE",
"318 0 LINE",
"318 435 LINE",
"345 512 OFFCURVE",
"427 596 OFFCURVE",
"513 596 CURVE SMOOTH",
"594 596 OFFCURVE",
"630 550 OFFCURVE",
"630 412 CURVE SMOOTH",
"630 309 OFFCURVE",
"630 0 OFFCURVE",
"630 0 CURVE",
"840 0 LINE"
);
}
);
width = 933;
}
);
unicode = 006E;
},
{
glyphname = o;
layers = (
{
anchors = (
{
name = H;
position = "{427, 0}";
},
{
name = L;
position = "{427, -75}";
},
{
name = O;
position = "{626, 0}";
},
{
name = R;
position = "{855, 750}";
},
{
name = U;
position = "{427, 825}";
}
);
layerId = UUID0;
paths = (
{
closed = 1;
nodes = (
"71 120 OFFCURVE",
"214 -18 OFFCURVE",
"420 -18 CURVE SMOOTH",
"617 -18 OFFCURVE",
"783 120 OFFCURVE",
"783 378 CURVE SMOOTH",
"783 636 OFFCURVE",
"641 780 OFFCURVE",
"435 780 CURVE SMOOTH",
"237 780 OFFCURVE",
"71 636 OFFCURVE",
"71 378 CURVE SMOOTH"
);
},
{
closed = 1;
nodes = (
"210 554 OFFCURVE",
"306 660 OFFCURVE",
"427 660 CURVE SMOOTH",
"556 660 OFFCURVE",
"645 554 OFFCURVE",
"645 378 CURVE SMOOTH",
"645 204 OFFCURVE",
"548 101 OFFCURVE",
"427 101 CURVE SMOOTH",
"298 101 OFFCURVE",
"210 204 OFFCURVE",
"210 378 CURVE SMOOTH"
);
}
);
width = 855;
},
{
anchors = (
{
name = H;
position = "{433, 0}";
},
{
name = L;
position = "{435, -75}";
},
{
name = O;
position = "{592, 0}";
},
{
name = R;
position = "{870, 750}";
},
{
name = U;
position = "{435, 825}";
}
);
layerId = "58C4FD73-E369-47FC-BB2E-BA826F97CEB5";
paths = (
{
closed = 1;
nodes = (
"67 122 OFFCURVE",
"216 -18 OFFCURVE",
"427 -18 CURVE SMOOTH",
"630 -18 OFFCURVE",
"802 122 OFFCURVE",
"802 380 CURVE SMOOTH",
"802 638 OFFCURVE",
"654 780 OFFCURVE",
"442 780 CURVE SMOOTH",
"240 780 OFFCURVE",
"67 638 OFFCURVE",
"67 380 CURVE SMOOTH"
);
},
{
closed = 1;
nodes = (
"277 524 OFFCURVE",
"338 611 OFFCURVE",
"435 611 CURVE SMOOTH",
"537 611 OFFCURVE",
"592 524 OFFCURVE",
"592 380 CURVE SMOOTH",
"592 237 OFFCURVE",
"531 150 OFFCURVE",
"435 150 CURVE SMOOTH",
"332 150 OFFCURVE",
"277 237 OFFCURVE",
"277 380 CURVE SMOOTH"
);
}
);
width = 870;
}
);
unicode = 006F;
},
{
glyphname = p;
layers = (
{
anchors = (
{
name = H;
position = "{198, -326}";
},
{
name = L;
position = "{442, -375}";
},
{
name = R;
position = "{877, 750}";
},
{
name = U;
position = "{442, 825}";
}
);
layerId = UUID0;
paths = (
{
closed = 1;
nodes = (
"112 680 OFFCURVE",
"116 550 OFFCURVE",
"116 363 CURVE SMOOTH",
"116 218 OFFCURVE",
"116 -367 OFFCURVE",
"116 -367 CURVE",
"273 -367 LINE",
"261 -303 OFFCURVE",
"255 -232 OFFCURVE",
"255 -112 CURVE",
"255 63 LINE",
"326 13 OFFCURVE",
"384 -18 OFFCURVE",
"465 -18 CURVE SMOOTH",
"653 -18 OFFCURVE",
"806 144 OFFCURVE",
"806 401 CURVE SMOOTH",
"806 621 OFFCURVE",
"692 780 OFFCURVE",
"521 780 CURVE SMOOTH",
"410 780 OFFCURVE",
"314 715 OFFCURVE",
"243 622 CURVE",
"237 691 OFFCURVE",
"225 739 OFFCURVE",
"213 765 CURVE",
"78 765 LINE"
);
},
{
closed = 1;
nodes = (
"310 576 OFFCURVE",
"408 652 OFFCURVE",
"495 652 CURVE SMOOTH",
"603 652 OFFCURVE",
"667 545 OFFCURVE",
"667 378 CURVE SMOOTH",
"667 209 OFFCURVE",
"570 105 OFFCURVE",
"465 105 CURVE SMOOTH",
"396 105 OFFCURVE",
"357 123 OFFCURVE",
"255 195 CURVE",
"255 431 LINE"
);
}
);
width = 877;
},
{
anchors = (
{
name = H;
position = "{217, -326}";
},
{
name = L;
position = "{480, -375}";
},
{
name = R;
position = "{926, 750}";
},
{
name = U;
position = "{480, 825}";
}
);
layerId = "58C4FD73-E369-47FC-BB2E-BA826F97CEB5";
paths = (
{
closed = 1;
nodes = (
"324 -303 OFFCURVE",
"318 -232 OFFCURVE",
"318 -112 CURVE SMOOTH",
"318 48 LINE",
"388 7 OFFCURVE",
"445 -18 OFFCURVE",
"524 -18 CURVE SMOOTH",
"708 -18 OFFCURVE",
"858 144 OFFCURVE",
"858 401 CURVE SMOOTH",
"858 621 OFFCURVE",
"747 780 OFFCURVE",
"579 780 CURVE SMOOTH",
"471 780 OFFCURVE",
"376 721 OFFCURVE",
"307 637 CURVE",
"300 699 OFFCURVE",
"288 742 OFFCURVE",
"277 765 CURVE",
"71 765 LINE",
"105 680 OFFCURVE",
"108 550 OFFCURVE",
"108 363 CURVE SMOOTH",
"108 -367 LINE",
"337 -367 LINE"
);
},
{
closed = 1;
nodes = (
"361 544 OFFCURVE",
"437 601 OFFCURVE",
"504 601 CURVE SMOOTH",
"594 601 OFFCURVE",
"648 514 OFFCURVE",
"648 378 CURVE SMOOTH",
"648 240 OFFCURVE",
"566 154 OFFCURVE",
"474 154 CURVE SMOOTH",
"423 154 OFFCURVE",
"395 168 OFFCURVE",
"318 225 CURVE",
"318 438 LINE"
);
}
);
width = 926;
}
);
unicode = 0070;
},
{
glyphname = q;
layers = (
{
anchors = (
{
name = L;
position = "{416, -375}";
},
{
name = R;
position = "{847, 750}";
},
{
name = U;
position = "{416, 825}";
}
);
layerId = UUID0;
paths = (
{
closed = 1;
nodes = (
"753 -367 LINE",
"741 -303 OFFCURVE",
"735 -232 OFFCURVE",
"735 -112 CURVE SMOOTH",
"735 -19 OFFCURVE",
"735 723 OFFCURVE",
"735 723 CURVE",
"654 750 OFFCURVE",
"559 780 OFFCURVE",
"468 780 CURVE SMOOTH",
"195 780 OFFCURVE",
"78 556 OFFCURVE",
"78 326 CURVE SMOOTH",
"78 87 OFFCURVE",
"240 -18 OFFCURVE",
"378 -18 CURVE SMOOTH",
"448 -18 OFFCURVE",
"518 14 OFFCURVE",
"596 105 CURVE",
"596 -367 LINE"
);
},
{
closed = 1;
nodes = (
"534 164 OFFCURVE",
"459 108 OFFCURVE",
"390 108 CURVE SMOOTH",
"309 108 OFFCURVE",
"217 177 OFFCURVE",
"217 363 CURVE SMOOTH",
"217 505 OFFCURVE",
"282 652 OFFCURVE",
"446 652 CURVE SMOOTH",
"492 652 OFFCURVE",
"551 639 OFFCURVE",
"596 622 CURVE",
"596 273 LINE"
);
}
);
width = 847;
},
{
anchors = (
{
name = L;
position = "{450, -375}";
},
{
name = R;
position = "{907, 750}";
},
{
name = U;
position = "{450, 825}";
}
);
layerId = "58C4FD73-E369-47FC-BB2E-BA826F97CEB5";
paths = (
{
closed = 1;
nodes = (
"821 -367 LINE",
"808 -303 OFFCURVE",
"802 -232 OFFCURVE",
"802 -112 CURVE SMOOTH",
"802 -19 OFFCURVE",
"802 723 OFFCURVE",
"802 723 CURVE",
"700 750 OFFCURVE",
"579 780 OFFCURVE",
"465 780 CURVE SMOOTH",
"191 780 OFFCURVE",
"75 556 OFFCURVE",
"75 326 CURVE SMOOTH",
"75 87 OFFCURVE",
"237 -18 OFFCURVE",
"375 -18 CURVE SMOOTH",
"444 -18 OFFCURVE",
"514 10 OFFCURVE",
"592 90 CURVE",
"592 -367 LINE"
);
},
{
closed = 1;
nodes = (
"545 193 OFFCURVE",
"487 152 OFFCURVE",
"435 152 CURVE SMOOTH",
"356 152 OFFCURVE",
"285 215 OFFCURVE",
"285 363 CURVE SMOOTH",
"285 480 OFFCURVE",
"342 601 OFFCURVE",
"491 601 CURVE SMOOTH",
"522 601 OFFCURVE",
"561 591 OFFCURVE",
"592 577 CURVE",
"592 276 LINE"
);
}
);
width = 907;
}
);
unicode = 0071;
},
{
glyphname = r;
layers = (
{
anchors = (
{
name = H;
position = "{202, 0}";
},
{
name = L;
position = "{191, -75}";
},
{
name = U;
position = "{341, 825}";
}
);
layerId = UUID0;
paths = (
{
closed = 1;
nodes = (
"255 435 LINE",
"288 537 OFFCURVE",
"390 645 OFFCURVE",
"453 645 CURVE SMOOTH",
"513 645 OFFCURVE",
"540 577 OFFCURVE",
"540 502 CURVE",
"660 528 LINE",
"660 660 OFFCURVE",
"612 780 OFFCURVE",
"487 780 CURVE SMOOTH",
"419 780 OFFCURVE",
"316 723 OFFCURVE",
"243 618 CURVE",
"238 654 OFFCURVE",
"225 733 OFFCURVE",
"213 765 CURVE",
"78 765 LINE",
"95 713 OFFCURVE",
"116 608 OFFCURVE",
"116 461 CURVE SMOOTH",
"116 0 LINE",
"255 0 LINE"
);
}
);
width = 667;
},
{
anchors = (
{
name = H;
position = "{213, 0}";
},
{
name = L;
position = "{206, -75}";
},
{
name = U;
position = "{412, 825}";
}
);
layerId = "58C4FD73-E369-47FC-BB2E-BA826F97CEB5";
paths = (
{
closed = 1;
nodes = (
"318 397 LINE",
"345 490 OFFCURVE",
"427 585 OFFCURVE",
"477 585 CURVE SMOOTH",
"541 585 OFFCURVE",
"566 540 OFFCURVE",
"571 472 CURVE",
"738 498 LINE",
"738 651 OFFCURVE",
"684 780 OFFCURVE",
"543 780 CURVE SMOOTH",
"475 780 OFFCURVE",
"380 723 OFFCURVE",
"307 618 CURVE",
"302 654 OFFCURVE",
"288 733 OFFCURVE",
"277 765 CURVE",
"71 765 LINE",
"87 713 OFFCURVE",
"108 608 OFFCURVE",
"108 461 CURVE SMOOTH",
"108 0 LINE",
"318 0 LINE"
);
}
);
width = 746;
}
);
unicode = 0072;
},
{
glyphname = s;
layers = (
{
anchors = (
{
name = H;
position = "{371, 0}";
},
{
name = L;
position = "{371, -75}";
},
{
name = U;
position = "{371, 825}";
}
);
layerId = UUID0;
paths = (
{
closed = 1;
nodes = (
"574 748 OFFCURVE",
"495 780 OFFCURVE",
"386 780 CURVE SMOOTH",
"158 780 OFFCURVE",
"97 624 OFFCURVE",
"97 555 CURVE SMOOTH",
"97 462 OFFCURVE",
"136 385 OFFCURVE",
"318 341 CURVE SMOOTH",
"486 300 OFFCURVE",
"525 258 OFFCURVE",
"525 202 CURVE SMOOTH",
"525 150 OFFCURVE",
"462 101 OFFCURVE",
"375 101 CURVE SMOOTH",
"295 101 OFFCURVE",
"187 141 OFFCURVE",
"120 202 CURVE",
"82 67 LINE",
"141 21 OFFCURVE",
"249 -18 OFFCURVE",
"371 -18 CURVE SMOOTH",
"532 -18 OFFCURVE",
"660 86 OFFCURVE",
"660 221 CURVE SMOOTH",
"660 360 OFFCURVE",
"548 419 OFFCURVE",
"412 450 CURVE SMOOTH",
"255 486 OFFCURVE",
"232 510 OFFCURVE",
"232 562 CURVE SMOOTH",
"232 607 OFFCURVE",
"268 660 OFFCURVE",
"378 660 CURVE SMOOTH",
"471 660 OFFCURVE",
"549 618 OFFCURVE",
"600 588 CURVE",
"626 720 LINE"
);
}
);
width = 723;
},
{
anchors = (
{
name = H;
position = "{386, 0}";
},
{
name = L;
position = "{386, -75}";
},
{
name = U;
position = "{397, 825}";
}
);
layerId = "58C4FD73-E369-47FC-BB2E-BA826F97CEB5";
paths = (
{
closed = 1;
nodes = (
"620 748 OFFCURVE",
"531 780 OFFCURVE",
"408 780 CURVE SMOOTH",
"151 780 OFFCURVE",
"82 613 OFFCURVE",
"82 540 CURVE SMOOTH",
"82 445 OFFCURVE",
"128 369 OFFCURVE",
"341 324 CURVE SMOOTH",
"484 293 OFFCURVE",
"517 261 OFFCURVE",
"517 217 CURVE SMOOTH",
"517 182 OFFCURVE",
"468 150 OFFCURVE",
"397 150 CURVE SMOOTH",
"309 150 OFFCURVE",
"190 190 OFFCURVE",
"116 251 CURVE",
"75 67 LINE",
"140 21 OFFCURVE",
"259 -18 OFFCURVE",
"393 -18 CURVE SMOOTH",
"576 -18 OFFCURVE",
"720 92 OFFCURVE",
"720 236 CURVE SMOOTH",
"720 378 OFFCURVE",
"591 438 OFFCURVE",
"435 468 CURVE SMOOTH",
"303 495 OFFCURVE",
"285 510 OFFCURVE",
"285 547 CURVE SMOOTH",
"285 577 OFFCURVE",
"313 615 OFFCURVE",
"401 615 CURVE SMOOTH",
"505 615 OFFCURVE",
"593 573 OFFCURVE",
"649 543 CURVE",
"678 720 LINE"
);
}
);
width = 776;
}
);
unicode = 0073;
},
{
glyphname = t;
layers = (
{
anchors = (
{
name = H;
position = "{356, 0}";
},
{
name = L;
position = "{356, -75}";
},
{
name = R;
position = "{626, 750}";
},
{
name = U;
position = "{243, 1020}";
}
);
layerId = UUID0;
paths = (
{
closed = 1;
nodes = (
"504 124 OFFCURVE",
"450 105 OFFCURVE",
"407 105 CURVE SMOOTH",
"339 105 OFFCURVE",
"311 138 OFFCURVE",
"311 292 CURVE SMOOTH",
"311 396 OFFCURVE",
"311 990 OFFCURVE",
"311 990 CURVE",
"172 990 LINE",
"172 990 OFFCURVE",
"172 326 OFFCURVE",
"172 202 CURVE SMOOTH",
"172 29 OFFCURVE",
"267 -18 OFFCURVE",
"384 -18 CURVE SMOOTH",
"436 -18 OFFCURVE",
"501 -3 OFFCURVE",
"570 41 CURVE",
"570 161 LINE"
);
},
{
closed = 1;
nodes = (
"555 637 LINE",
"555 746 LINE",
"22 746 LINE",
"22 637 LINE"
);
}
);
width = 626;
},
{
anchors = (
{
name = H;
position = "{397, 0}";
},
{
name = L;
position = "{397, -75}";
},
{
name = R;
position = "{663, 750}";
},
{
name = U;
position = "{270, 1020}";
}
);
layerId = "58C4FD73-E369-47FC-BB2E-BA826F97CEB5";
paths = (
{
closed = 1;
nodes = (
"165 29 OFFCURVE",
"280 -18 OFFCURVE",
"422 -18 CURVE SMOOTH",
"476 -18 OFFCURVE",
"543 -2 OFFCURVE",
"615 42 CURVE",
"615 210 LINE",
"555 174 OFFCURVE",
"508 154 OFFCURVE",
"470 154 CURVE SMOOTH",
"402 154 OFFCURVE",
"375 176 OFFCURVE",
"375 346 CURVE SMOOTH",
"375 990 LINE",
"165 990 LINE",
"165 202 LINE"
);
},
{
closed = 1;
nodes = (
"603 753 LINE",
"22 753 LINE",
"22 603 LINE",
"603 603 LINE"
);
}
);
width = 663;
}
);
unicode = 0074;
},
{
glyphname = u;
layers = (
{
anchors = (
{
name = H;
position = "{441, 0}";
},
{
name = L;
position = "{441, -75}";
},
{
name = O;
position = "{894, 0}";
},
{
name = R;
position = "{888, 750}";
},
{
name = U;
position = "{441, 825}";
}
);
layerId = UUID0;
paths = (
{
closed = 1;
nodes = (
"786 84 OFFCURVE",
"768 192 OFFCURVE",
"768 337 CURVE SMOOTH",
"768 484 OFFCURVE",
"768 765 OFFCURVE",
"768 765 CURVE",
"615 765 LINE",
"628 673 OFFCURVE",
"630 624 OFFCURVE",
"630 525 CURVE SMOOTH",
"630 315 LINE",
"590 223 OFFCURVE",
"471 105 OFFCURVE",
"382 105 CURVE SMOOTH",
"287 105 OFFCURVE",
"255 178 OFFCURVE",
"255 348 CURVE SMOOTH",
"255 452 OFFCURVE",
"255 765 OFFCURVE",
"255 765 CURVE",
"101 765 LINE",
"114 675 OFFCURVE",
"116 620 OFFCURVE",
"116 525 CURVE SMOOTH",
"116 510 OFFCURVE",
"116 318 OFFCURVE",
"116 303 CURVE SMOOTH",
"116 90 OFFCURVE",
"196 -18 OFFCURVE",
"356 -18 CURVE SMOOTH",
"461 -18 OFFCURVE",
"558 39 OFFCURVE",
"648 150 CURVE",
"656 93 OFFCURVE",
"675 34 OFFCURVE",
"690 0 CURVE",
"817 0 LINE"
);
}
);
width = 888;
},
{
anchors = (
{
name = H;
position = "{386, 0}";
},
{
name = L;
position = "{461, -75}";
},
{
name = O;
position = "{517, 0}";
},
{
name = R;
position = "{943, 750}";
},
{
name = U;
position = "{461, 825}";
}
);
layerId = "58C4FD73-E369-47FC-BB2E-BA826F97CEB5";
paths = (
{
closed = 1;
nodes = (
"838 84 OFFCURVE",
"821 192 OFFCURVE",
"821 337 CURVE SMOOTH",
"821 484 OFFCURVE",
"821 765 OFFCURVE",
"821 765 CURVE",
"596 765 LINE",
"609 673 OFFCURVE",
"611 624 OFFCURVE",
"611 525 CURVE SMOOTH",
"611 313 LINE",
"580 244 OFFCURVE",
"488 154 OFFCURVE",
"420 154 CURVE SMOOTH",
"343 154 OFFCURVE",
"318 213 OFFCURVE",
"318 348 CURVE SMOOTH",
"318 452 OFFCURVE",
"318 765 OFFCURVE",
"318 765 CURVE",
"93 765 LINE",
"107 675 OFFCURVE",
"108 620 OFFCURVE",
"108 525 CURVE SMOOTH",
"108 510 OFFCURVE",
"108 318 OFFCURVE",
"108 303 CURVE SMOOTH",
"108 90 OFFCURVE",
"187 -18 OFFCURVE",
"343 -18 CURVE SMOOTH",
"446 -18 OFFCURVE",
"541 36 OFFCURVE",
"630 138 CURVE",
"637 87 OFFCURVE",
"657 32 OFFCURVE",
"671 0 CURVE",
"870 0 LINE"
);
}
);
width = 933;
}
);
unicode = 0075;
},
{
glyphname = v;
layers = (
{
anchors = (
{
name = H;
position = "{411, 0}";
},
{
name = L;
position = "{401, -75}";
},
{
name = O;
position = "{543, 0}";
},
{
name = U;
position = "{401, 825}";
}
);
layerId = UUID0;
paths = (
{
closed = 1;
nodes = (
"401 150 LINE",
"172 765 LINE",
"15 765 LINE",
"56 678 OFFCURVE",
"107 559 OFFCURVE",
"131 498 CURVE SMOOTH",
"177 382 OFFCURVE",
"330 0 OFFCURVE",
"330 0 CURVE",
"472 0 LINE",
"472 0 OFFCURVE",
"631 402 OFFCURVE",
"671 498 CURVE SMOOTH",
"696 558 OFFCURVE",
"744 678 OFFCURVE",
"787 765 CURVE",
"630 765 LINE"
);
}
);
width = 802;
},
{
anchors = (
{
name = H;
position = "{423, 0}";
},
{
name = L;
position = "{423, -75}";
},
{
name = O;
position = "{562, 0}";
},
{
name = U;
position = "{423, 825}";
}
);
layerId = "58C4FD73-E369-47FC-BB2E-BA826F97CEB5";
paths = (
{
closed = 1;
nodes = (
"417 217 LINE",
"241 765 LINE",
"7 765 LINE",
"48 678 OFFCURVE",
"99 559 OFFCURVE",
"123 498 CURVE SMOOTH",
"170 382 OFFCURVE",
"322 0 OFFCURVE",
"322 0 CURVE",
"506 0 LINE",
"506 0 OFFCURVE",
"664 402 OFFCURVE",
"704 498 CURVE SMOOTH",
"729 558 OFFCURVE",
"777 678 OFFCURVE",
"820 765 CURVE",
"589 765 LINE"
);
}
);
width = 828;
}
);
unicode = 0076;
},
{
glyphname = w;
layers = (
{
anchors = (
{
name = L;
position = "{581, -75}";
},
{
name = U;
position = "{581, 825}";
}
);
layerId = UUID0;
paths = (
{
closed = 1;
nodes = (
"330 161 LINE",
"172 765 LINE",
"33 765 LINE",
"69 650 OFFCURVE",
"90 578 OFFCURVE",
"112 498 CURVE SMOOTH",
"251 0 LINE",
"393 0 LINE",
"581 588 LINE",
"768 0 LINE",
"911 0 LINE",
"1050 498 LINE SMOOTH",
"1075 588 OFFCURVE",
"1093 651 OFFCURVE",
"1128 765 CURVE",
"990 765 LINE",
"832 161 LINE",
"637 765 LINE",
"525 765 LINE"
);
}
);
width = 1162;
},
{
anchors = (
{
name = L;
position = "{588, -75}";
},
{
name = U;
position = "{588, 825}";
}
);
layerId = "58C4FD73-E369-47FC-BB2E-BA826F97CEB5";
paths = (
{
closed = 1;
nodes = (
"360 213 LINE",
"242 765 LINE",
"26 765 LINE",
"61 650 OFFCURVE",
"82 578 OFFCURVE",
"105 498 CURVE SMOOTH",
"243 0 LINE",
"461 0 LINE",
"588 521 LINE",
"716 0 LINE",
"933 0 LINE",
"1072 498 LINE SMOOTH",
"1098 588 OFFCURVE",
"1116 651 OFFCURVE",
"1151 765 CURVE",
"935 765 LINE",
"817 213 LINE",
"678 765 LINE",
"498 765 LINE"
);
}
);
width = 1177;
}
);
unicode = 0077;
},
{
glyphname = x;
layers = (
{
anchors = (
{
name = H;
position = "{675, 0}";
},
{
name = L;
position = "{406, -75}";
},
{
name = U;
position = "{406, 825}";
}
);
layerId = UUID0;
paths = (
{
closed = 1;
nodes = (
"776 0 LINE",
"695 106 OFFCURVE",
"676 127 OFFCURVE",
"622 202 CURVE SMOOTH",
"217 765 LINE",
"45 765 LINE",
"126 665 OFFCURVE",
"152 632 OFFCURVE",
"202 562 CURVE",
"603 0 LINE"
);
},
{
closed = 1;
nodes = (
"187 202 LINE SMOOTH",
"141 136 OFFCURVE",
"120 107 OFFCURVE",
"37 0 CURVE",
"206 0 LINE",
"417 303 LINE",
"366 462 LINE"
);
},
{
closed = 1;
nodes = (
"615 562 LINE SMOOTH",
"662 631 OFFCURVE",
"687 664 OFFCURVE",
"765 765 CURVE",
"596 765 LINE",
"390 461 LINE",
"438 303 LINE"
);
}
);
width = 813;
},
{
anchors = (
{
name = H;
position = "{720, 0}";
},
{
name = L;
position = "{442, -75}";
},
{
name = U;
position = "{461, 825}";
}
);
layerId = "58C4FD73-E369-47FC-BB2E-BA826F97CEB5";
paths = (
{
closed = 1;
nodes = (
"858 0 LINE",
"777 96 OFFCURVE",
"741 142 OFFCURVE",
"697 202 CURVE SMOOTH",
"285 765 LINE",
"37 765 LINE",
"118 665 OFFCURVE",
"144 631 OFFCURVE",
"195 562 CURVE SMOOTH",
"611 0 LINE"
);
},
{
closed = 1;
nodes = (
"183 202 LINE SMOOTH",
"146 150 OFFCURVE",
"112 107 OFFCURVE",
"30 0 CURVE",
"258 0 LINE",
"438 269 LINE",
"374 462 LINE"
);
},
{
closed = 1;
nodes = (
"693 562 LINE SMOOTH",
"735 619 OFFCURVE",
"770 664 OFFCURVE",
"847 765 CURVE",
"618 765 LINE",
"446 501 LINE",
"506 303 LINE"
);
}
);
width = 888;
}
);
unicode = 0078;
},
{
glyphname = y;
layers = (
{
anchors = (
{
name = L;
position = "{596, -75}";
},
{
name = R;
position = "{840, 750}";
},
{
name = U;
position = "{401, 825}";
}
);
layerId = UUID0;
paths = (
{
closed = 1;
nodes = (
"172 765 LINE",
"22 765 LINE",
"80 648 OFFCURVE",
"114 567 OFFCURVE",
"142 498 CURVE SMOOTH",
"393 -123 LINE",
"457 45 LINE"
);
},
{
closed = 1;
nodes = (
"696 568 OFFCURVE",
"728 648 OFFCURVE",
"780 765 CURVE",
"630 765 LINE",
"630 765 OFFCURVE",
"423 172 OFFCURVE",
"375 41 CURVE SMOOTH",
"293 -186 OFFCURVE",
"236 -225 OFFCURVE",
"168 -225 CURVE SMOOTH",
"119 -225 OFFCURVE",
"61 -195 OFFCURVE",
"30 -168 CURVE",
"-15 -288 LINE",
"39 -329 OFFCURVE",
"100 -352 OFFCURVE",
"168 -352 CURVE SMOOTH",
"296 -352 OFFCURVE",
"387 -287 OFFCURVE",
"491 0 CURVE",
"671 498 LINE"
);
}
);
width = 795;
},
{
anchors = (
{
name = L;
position = "{633, -75}";
},
{
name = R;
position = "{866, 750}";
},
{
name = U;
position = "{423, 825}";
}
);
layerId = "58C4FD73-E369-47FC-BB2E-BA826F97CEB5";
paths = (
{
closed = 1;
nodes = (
"733 568 OFFCURVE",
"765 648 OFFCURVE",
"817 765 CURVE",
"582 765 LINE",
"582 765 OFFCURVE",
"484 411 OFFCURVE",
"429 219 CURVE",
"249 765 LINE",
"15 765 LINE",
"72 648 OFFCURVE",
"108 567 OFFCURVE",
"135 498 CURVE SMOOTH",
"333 -13 LINE",
"274 -156 OFFCURVE",
"228 -181 OFFCURVE",
"183 -181 CURVE SMOOTH",
"134 -181 OFFCURVE",
"76 -151 OFFCURVE",
"45 -125 CURVE",
"-7 -288 LINE",
"47 -329 OFFCURVE",
"115 -352 OFFCURVE",
"183 -352 CURVE SMOOTH",
"320 -352 OFFCURVE",
"423 -290 OFFCURVE",
"528 0 CURVE SMOOTH",
"708 498 LINE SMOOTH"
);
}
);
width = 825;
}
);
unicode = 0079;
},
{
glyphname = z;
layers = (
{
anchors = (
{
name = H;
position = "{393, 0}";
},
{
name = L;
position = "{393, -75}";
},
{
name = U;
position = "{393, 825}";
}
);
layerId = UUID0;
paths = (
{
closed = 1;
nodes = (
"101 641 LINE",
"129 652 OFFCURVE",
"173 652 OFFCURVE",
"217 652 CURVE SMOOTH",
"510 652 LINE",
"78 82 LINE",
"78 0 LINE",
"708 0 LINE",
"708 123 LINE",
"663 112 OFFCURVE",
"617 112 OFFCURVE",
"573 112 CURVE SMOOTH",
"251 112 LINE",
"697 693 LINE",
"697 765 LINE",
"101 765 LINE"
);
}
);
width = 780;
},
{
anchors = (
{
name = H;
position = "{405, 0}";
},
{
name = L;
position = "{405, -75}";
},
{
name = U;
position = "{405, 825}";
}
);
layerId = "58C4FD73-E369-47FC-BB2E-BA826F97CEB5";
paths = (
{
closed = 1;
nodes = (
"93 592 LINE",
"121 603 OFFCURVE",
"165 603 OFFCURVE",
"210 603 CURVE SMOOTH",
"461 603 LINE",
"71 119 LINE",
"71 0 LINE",
"731 0 LINE",
"731 172 LINE",
"676 161 OFFCURVE",
"619 161 OFFCURVE",
"566 161 CURVE SMOOTH",
"322 161 LINE",
"720 657 LINE",
"720 765 LINE",
"93 765 LINE"
);
}
);
width = 795;
}
);
unicode = 007A;
},
{
glyphname = braceleft;
layers = (
{
layerId = UUID0;
paths = (
{
closed = 1;
nodes = (
"157 437 OFFCURVE",
"287 364 OFFCURVE",
"307 337 CURVE SMOOTH",
"325 313 OFFCURVE",
"318 -153 OFFCURVE",
"371 -213 CURVE SMOOTH",
"401 -247 OFFCURVE",
"522 -287 OFFCURVE",
"600 -307 CURVE",
"630 -202 LINE",
"579 -185 OFFCURVE",
"487 -148 OFFCURVE",
"472 -127 CURVE SMOOTH",
"447 -92 OFFCURVE",
"457 335 OFFCURVE",
"442 363 CURVE SMOOTH",
"428 390 OFFCURVE",
"325 444 OFFCURVE",
"322 461 CURVE",
"325 477 OFFCURVE",
"428 531 OFFCURVE",
"442 558 CURVE SMOOTH",
"457 587 OFFCURVE",
"447 1014 OFFCURVE",
"472 1050 CURVE SMOOTH",
"487 1071 OFFCURVE",
"579 1107 OFFCURVE",
"630 1125 CURVE",
"600 1230 LINE",
"522 1209 OFFCURVE",
"401 1170 OFFCURVE",
"371 1136 CURVE SMOOTH",
"318 1076 OFFCURVE",
"325 609 OFFCURVE",
"307 585 CURVE SMOOTH",
"287 558 OFFCURVE",
"157 485 OFFCURVE",
"157 461 CURVE SMOOTH"
);
}
);
width = 750;
},
{
layerId = "58C4FD73-E369-47FC-BB2E-BA826F97CEB5";
paths = (
{
closed = 1;
nodes = (
"621 -120 OFFCURVE",
"528 -91 OFFCURVE",
"513 -75 CURVE SMOOTH",
"487 -45 OFFCURVE",
"497 308 OFFCURVE",
"483 333 CURVE SMOOTH",
"465 368 OFFCURVE",
"362 435 OFFCURVE",
"362 461 CURVE SMOOTH",
"362 487 OFFCURVE",
"465 555 OFFCURVE",
"482 588 CURVE SMOOTH",
"495 615 OFFCURVE",
"487 966 OFFCURVE",
"513 997 CURVE SMOOTH",
"526 1013 OFFCURVE",
"605 1042 OFFCURVE",
"652 1056 CURVE",
"615 1230 LINE",
"519 1209 OFFCURVE",
"376 1171 OFFCURVE",
"341 1136 CURVE SMOOTH",
"285 1081 OFFCURVE",
"294 639 OFFCURVE",
"277 615 CURVE SMOOTH",
"255 582 OFFCURVE",
"127 502 OFFCURVE",
"127 461 CURVE SMOOTH",
"127 420 OFFCURVE",
"255 339 OFFCURVE",
"277 307 CURVE SMOOTH",
"294 283 OFFCURVE",
"285 -159 OFFCURVE",
"341 -213 CURVE SMOOTH",
"378 -249 OFFCURVE",
"531 -287 OFFCURVE",
"633 -307 CURVE",
"671 -134 LINE"
);
}
);
width = 780;
}
);
unicode = 007B;
},
{
glyphname = braceright;
layers = (
{
layerId = UUID0;
paths = (
{
closed = 1;
nodes = (
"592 485 OFFCURVE",
"462 558 OFFCURVE",
"442 585 CURVE SMOOTH",
"424 609 OFFCURVE",
"432 1076 OFFCURVE",
"378 1136 CURVE SMOOTH",
"348 1170 OFFCURVE",
"228 1209 OFFCURVE",
"150 1230 CURVE",
"120 1125 LINE",
"170 1107 OFFCURVE",
"262 1071 OFFCURVE",
"277 1050 CURVE SMOOTH",
"302 1014 OFFCURVE",
"292 587 OFFCURVE",
"307 558 CURVE SMOOTH",
"321 531 OFFCURVE",
"424 477 OFFCURVE",
"427 461 CURVE",
"424 444 OFFCURVE",
"321 390 OFFCURVE",
"307 363 CURVE SMOOTH",
"292 335 OFFCURVE",
"302 -92 OFFCURVE",
"277 -127 CURVE SMOOTH",
"262 -148 OFFCURVE",
"170 -185 OFFCURVE",
"120 -202 CURVE",
"150 -307 LINE",
"228 -287 OFFCURVE",
"348 -247 OFFCURVE",
"378 -213 CURVE SMOOTH",
"432 -153 OFFCURVE",
"424 313 OFFCURVE",
"442 337 CURVE SMOOTH",
"462 364 OFFCURVE",
"592 437 OFFCURVE",
"592 461 CURVE SMOOTH"
);
}
);
width = 750;
},
{
layerId = "58C4FD73-E369-47FC-BB2E-BA826F97CEB5";
paths = (
{
closed = 1;
nodes = (
"237 -287 OFFCURVE",
"390 -249 OFFCURVE",
"427 -213 CURVE SMOOTH",
"483 -159 OFFCURVE",
"474 283 OFFCURVE",
"491 307 CURVE SMOOTH",
"513 339 OFFCURVE",
"641 420 OFFCURVE",
"641 461 CURVE SMOOTH",
"641 502 OFFCURVE",
"513 582 OFFCURVE",
"491 615 CURVE SMOOTH",
"474 639 OFFCURVE",
"483 1081 OFFCURVE",
"427 1136 CURVE SMOOTH",
"392 1171 OFFCURVE",
"249 1209 OFFCURVE",
"153 1230 CURVE",
"116 1056 LINE",
"163 1042 OFFCURVE",
"242 1013 OFFCURVE",
"255 997 CURVE SMOOTH",
"281 966 OFFCURVE",
"273 615 OFFCURVE",
"286 588 CURVE SMOOTH",
"303 555 OFFCURVE",
"406 487 OFFCURVE",
"406 461 CURVE SMOOTH",
"406 435 OFFCURVE",
"303 368 OFFCURVE",
"285 333 CURVE SMOOTH",
"271 308 OFFCURVE",
"281 -45 OFFCURVE",
"255 -75 CURVE SMOOTH",
"240 -91 OFFCURVE",
"147 -120 OFFCURVE",
"97 -134 CURVE",
"135 -307 LINE"
);
}
);
width = 780;
}
);
unicode = 007D;
},
{
glyphname = bar;
layers = (
{
layerId = UUID0;
paths = (
{
closed = 1;
nodes = (
"202 -292 LINE",
"315 -292 LINE",
"315 1200 LINE",
"202 1200 LINE"
);
}
);
width = 517;
},
{
layerId = "58C4FD73-E369-47FC-BB2E-BA826F97CEB5";
paths = (
{
closed = 1;
nodes = (
"180 -292 LINE",
"337 -292 LINE",
"337 1200 LINE",
"180 1200 LINE"
);
}
);
width = 517;
}
);
unicode = 007C;
},
{
glyphname = asciitilde;
layers = (
{
components = (
{
name = CombTildeOverlay.Lrg;
}
);
layerId = UUID0;
width = 836;
},
{
layerId = "58C4FD73-E369-47FC-BB2E-BA826F97CEB5";
paths = (
{
closed = 1;
nodes = (
"127 295 OFFCURVE",
"151 326 OFFCURVE",
"210 326 CURVE SMOOTH",
"326 326 OFFCURVE",
"461 247 OFFCURVE",
"618 247 CURVE SMOOTH",
"738 247 OFFCURVE",
"810 384 OFFCURVE",
"810 480 CURVE",
"701 480 LINE",
"696 445 OFFCURVE",
"673 405 OFFCURVE",
"611 405 CURVE SMOOTH",
"449 405 OFFCURVE",
"345 483 OFFCURVE",
"195 483 CURVE SMOOTH",
"78 483 OFFCURVE",
"15 350 OFFCURVE",
"15 258 CURVE",
"123 258 LINE"
);
}
);
width = 836;
}
);
unicode = 007E;
},
{
glyphname = exclamdown;
layers = (
{
layerId = UUID0;
paths = (
{
closed = 1;
nodes = (
"203 277 OFFCURVE",
"203 18 OFFCURVE",
"174 -307 CURVE",
"366 -307 LINE",
"336 18 OFFCURVE",
"336 277 OFFCURVE",
"332 495 CURVE",
"208 495 LINE"
);
},
{
closed = 1;
nodes = (
"170 678 OFFCURVE",
"215 633 OFFCURVE",
"270 633 CURVE SMOOTH",
"326 633 OFFCURVE",
"371 678 OFFCURVE",
"371 733 CURVE SMOOTH",
"371 789 OFFCURVE",
"326 834 OFFCURVE",
"270 834 CURVE SMOOTH",
"215 834 OFFCURVE",
"170 789 OFFCURVE",
"170 733 CURVE SMOOTH"
);
}
);
width = 573;
},
{
layerId = "58C4FD73-E369-47FC-BB2E-BA826F97CEB5";
paths = (
{
closed = 1;
nodes = (
"178 221 OFFCURVE",
"182 6 OFFCURVE",
"153 -318 CURVE",
"405 -318 LINE",
"375 6 OFFCURVE",
"379 221 OFFCURVE",
"375 438 CURVE",
"183 438 LINE"
);
},
{
closed = 1;
nodes = (
"150 624 OFFCURVE",
"205 570 OFFCURVE",
"281 570 CURVE SMOOTH",
"357 570 OFFCURVE",
"412 624 OFFCURVE",
"412 701 CURVE SMOOTH",
"412 779 OFFCURVE",
"357 832 OFFCURVE",
"281 832 CURVE SMOOTH",
"205 832 OFFCURVE",
"150 779 OFFCURVE",
"150 701 CURVE SMOOTH"
);
}
);
width = 585;
}
);
unicode = 00A1;
},
{
glyphname = cent;
layers = (
{
layerId = UUID0;
paths = (
{
closed = 1;
nodes = (
"297 796 OFFCURVE",
"153 619 OFFCURVE",
"153 405 CURVE SMOOTH",
"153 177 OFFCURVE",
"308 37 OFFCURVE",
"499 37 CURVE SMOOTH",
"606 37 OFFCURVE",
"673 62 OFFCURVE",
"745 116 CURVE",
"731 240 LINE",
"669 186 OFFCURVE",
"599 155 OFFCURVE",
"513 155 CURVE SMOOTH",
"375 155 OFFCURVE",
"289 258 OFFCURVE",
"289 411 CURVE SMOOTH",
"289 579 OFFCURVE",
"387 678 OFFCURVE",
"513 678 CURVE SMOOTH",
"587 678 OFFCURVE",
"648 654 OFFCURVE",
"713 607 CURVE",
"738 735 LINE",
"686 771 OFFCURVE",
"619 796 OFFCURVE",
"524 796 CURVE SMOOTH"
);
},
{
closed = 1;
nodes = (
"453 -157 LINE",
"551 -157 LINE",
"551 990 LINE",
"453 990 LINE"
);
}
);
width = 900;
},
{
layerId = "58C4FD73-E369-47FC-BB2E-BA826F97CEB5";
paths = (
{
closed = 1;
nodes = (
"629 230 OFFCURVE",
"573 201 OFFCURVE",
"488 201 CURVE SMOOTH",
"381 201 OFFCURVE",
"312 286 OFFCURVE",
"312 411 CURVE SMOOTH",
"312 549 OFFCURVE",
"389 632 OFFCURVE",
"488 632 CURVE SMOOTH",
"561 632 OFFCURVE",
"609 610 OFFCURVE",
"674 566 CURVE",
"705 746 LINE",
"653 773 OFFCURVE",
"578 796 OFFCURVE",
"484 796 CURVE SMOOTH",
"258 796 OFFCURVE",
"112 627 OFFCURVE",
"112 404 CURVE SMOOTH",
"112 170 OFFCURVE",
"268 37 OFFCURVE",
"460 37 CURVE SMOOTH",
"566 37 OFFCURVE",
"640 60 OFFCURVE",
"712 105 CURVE",
"691 279 LINE"
);
},
{
closed = 1;
nodes = (
"422 -157 LINE",
"564 -157 LINE",
"564 990 LINE",
"422 990 LINE"
);
}
);
width = 817;
}
);
unicode = 00A2;
},
{
glyphname = sterling;
layers = (
{
layerId = UUID0;
paths = (
{
closed = 1;
nodes = (
"339 182 OFFCURVE",
"359 255 OFFCURVE",
"359 348 CURVE SMOOTH",
"359 476 OFFCURVE",
"333 673 OFFCURVE",
"333 806 CURVE SMOOTH",
"333 942 OFFCURVE",
"398 993 OFFCURVE",
"491 993 CURVE SMOOTH",
"534 993 OFFCURVE",
"605 976 OFFCURVE",
"642 948 CURVE",
"677 1061 LINE",
"630 1094 OFFCURVE",
"549 1113 OFFCURVE",
"491 1113 CURVE SMOOTH",
"314 1113 OFFCURVE",
"195 1001 OFFCURVE",
"195 776 CURVE SMOOTH",
"195 636 OFFCURVE",
"220 448 OFFCURVE",
"220 294 CURVE SMOOTH",
"220 210 OFFCURVE",
"168 141 OFFCURVE",
"108 97 CURVE",
"108 0 LINE",
"761 0 LINE",
"761 135 LINE",
"701 124 OFFCURVE",
"582 123 OFFCURVE",
"434 123 CURVE SMOOTH",
"282 123 LINE"
);
},
{
closed = 1;
nodes = (
"573 517 LINE",
"573 626 LINE",
"116 626 LINE",
"116 517 LINE"
);
}
);
width = 900;
},
{
layerId = "58C4FD73-E369-47FC-BB2E-BA826F97CEB5";
paths = (
{
closed = 1;
nodes = (
"112 652 LINE",
"112 502 LINE",
"639 502 LINE",
"639 652 LINE"
);
},
{
closed = 1;
nodes = (
"750 173 OFFCURVE",
"641 172 OFFCURVE",
"506 172 CURVE SMOOTH",
"359 172 LINE",
"417 242 OFFCURVE",
"434 323 OFFCURVE",
"434 431 CURVE SMOOTH",
"434 543 OFFCURVE",
"405 674 OFFCURVE",
"405 791 CURVE SMOOTH",
"405 899 OFFCURVE",
"456 941 OFFCURVE",
"533 941 CURVE SMOOTH",
"581 941 OFFCURVE",
"658 924 OFFCURVE",
"699 896 CURVE",
"734 1061 LINE",
"684 1094 OFFCURVE",
"596 1113 OFFCURVE",
"533 1113 CURVE SMOOTH",
"321 1113 OFFCURVE",
"192 999 OFFCURVE",
"192 768 CURVE SMOOTH",
"192 642 OFFCURVE",
"224 514 OFFCURVE",
"224 376 CURVE SMOOTH",
"224 277 OFFCURVE",
"172 193 OFFCURVE",
"112 142 CURVE",
"112 0 LINE",
"805 0 LINE",
"805 183 LINE"
);
}
);
width = 930;
}
);
unicode = 00A3;
},
{
glyphname = currency;
layers = (
{
layerId = UUID0;
paths = (
{
closed = 1;
nodes = (
"714 466 LINE",
"756 522 OFFCURVE",
"777 585 OFFCURVE",
"777 657 CURVE SMOOTH",
"777 729 OFFCURVE",
"751 798 OFFCURVE",
"712 852 CURVE",
"872 1012 LINE",
"801 1083 LINE",
"639 920 LINE",
"586 960 OFFCURVE",
"523 985 OFFCURVE",
"453 985 CURVE SMOOTH",
"381 985 OFFCURVE",
"314 962 OFFCURVE",
"259 921 CURVE",
"98 1083 LINE",
"27 1012 LINE",
"189 851 LINE",
"143 797 OFFCURVE",
"122 726 OFFCURVE",
"122 655 CURVE SMOOTH",
"122 583 OFFCURVE",
"144 522 OFFCURVE",
"186 466 CURVE",
"27 308 LINE",
"98 238 LINE",
"256 396 LINE",
"312 351 OFFCURVE",
"376 327 OFFCURVE",
"453 327 CURVE SMOOTH",
"523 327 OFFCURVE",
"588 352 OFFCURVE",
"643 396 CURVE",
"801 238 LINE",
"872 308 LINE"
);
},
{
closed = 1;
nodes = (
"678 528 OFFCURVE",
"583 426 OFFCURVE",
"453 426 CURVE SMOOTH",
"321 426 OFFCURVE",
"220 523 OFFCURVE",
"220 655 CURVE SMOOTH",
"220 789 OFFCURVE",
"319 886 OFFCURVE",
"453 886 CURVE SMOOTH",
"582 886 OFFCURVE",
"678 785 OFFCURVE",
"678 657 CURVE SMOOTH"
);
}
);
width = 900;
},
{
layerId = "58C4FD73-E369-47FC-BB2E-BA826F97CEB5";
paths = (
{
closed = 1;
nodes = (
"743 473 LINE",
"784 528 OFFCURVE",
"800 585 OFFCURVE",
"800 657 CURVE SMOOTH",
"800 729 OFFCURVE",
"780 792 OFFCURVE",
"741 846 CURVE",
"900 1006 LINE",
"811 1096 LINE",
"648 933 LINE",
"596 974 OFFCURVE",
"538 993 OFFCURVE",
"468 993 CURVE SMOOTH",
"396 993 OFFCURVE",
"335 975 OFFCURVE",
"280 935 CURVE",
"119 1096 LINE",
"29 1007 LINE",
"190 846 LINE",
"145 792 OFFCURVE",
"129 726 OFFCURVE",
"129 655 CURVE SMOOTH",
"129 583 OFFCURVE",
"146 528 OFFCURVE",
"187 472 CURVE",
"29 314 LINE",
"119 225 LINE",
"277 383 LINE",
"334 337 OFFCURVE",
"391 320 OFFCURVE",
"468 320 CURVE SMOOTH",
"538 320 OFFCURVE",
"597 339 OFFCURVE",
"652 384 CURVE",
"811 225 LINE",
"900 315 LINE"
);
},
{
closed = 1;
nodes = (
"678 536 OFFCURVE",
"590 441 OFFCURVE",
"468 441 CURVE SMOOTH",
"343 441 OFFCURVE",
"251 531 OFFCURVE",
"251 655 CURVE SMOOTH",
"251 782 OFFCURVE",
"342 871 OFFCURVE",
"468 871 CURVE SMOOTH",
"589 871 OFFCURVE",
"678 777 OFFCURVE",
"678 657 CURVE SMOOTH"
);
}
);
width = 930;
}
);
unicode = 00A4;
},
{
glyphname = yen;
layers = (
{
layerId = UUID0;
paths = (
{
closed = 1;
nodes = (
"525 506 LINE",
"172 1095 LINE",
"0 1095 LINE",
"84 983 OFFCURVE",
"133 897 OFFCURVE",
"191 798 CURVE SMOOTH",
"412 420 LINE"
);
},
{
closed = 1;
nodes = (
"712 798 LINE SMOOTH",
"769 896 OFFCURVE",
"811 968 OFFCURVE",
"900 1095 CURVE",
"727 1095 LINE",
"393 506 LINE",
"491 420 LINE"
);
},
{
closed = 1;
nodes = (
"378 326 LINE SMOOTH",
"378 178 OFFCURVE",
"378 60 OFFCURVE",
"367 0 CURVE",
"532 0 LINE",
"521 60 OFFCURVE",
"521 178 OFFCURVE",
"521 326 CURVE SMOOTH",
"521 521 LINE",
"378 521 LINE"
);
},
{
closed = 1;
nodes = (
"756 468 LINE",
"756 577 LINE",
"150 577 LINE",
"150 468 LINE"
);
},
{
closed = 1;
nodes = (
"756 281 LINE",
"756 390 LINE",
"150 390 LINE",
"150 281 LINE"
);
}
);
width = 900;
},
{
layerId = "58C4FD73-E369-47FC-BB2E-BA826F97CEB5";
paths = (
{
closed = 1;
nodes = (
"571 491 LINE",
"252 1095 LINE",
"3 1095 LINE",
"87 983 OFFCURVE",
"137 897 OFFCURVE",
"195 798 CURVE SMOOTH",
"416 420 LINE"
);
},
{
closed = 1;
nodes = (
"738 798 LINE SMOOTH",
"795 896 OFFCURVE",
"837 968 OFFCURVE",
"926 1095 CURVE",
"684 1095 LINE",
"369 491 LINE",
"514 420 LINE"
);
},
{
closed = 1;
nodes = (
"358 326 LINE SMOOTH",
"358 178 OFFCURVE",
"358 60 OFFCURVE",
"347 0 CURVE",
"583 0 LINE",
"572 60 OFFCURVE",
"572 178 OFFCURVE",
"572 326 CURVE SMOOTH",
"572 521 LINE",
"358 521 LINE"
);
},
{
closed = 1;
nodes = (
"825 265 LINE",
"825 423 LINE",
"105 423 LINE",
"105 265 LINE"
);
},
{
closed = 1;
nodes = (
"825 502 LINE",
"825 660 LINE",
"105 660 LINE",
"105 502 LINE"
);
}
);
width = 930;
}
);
unicode = 00A5;
},
{
glyphname = brokenbar;
layers = (
{
layerId = UUID0;
paths = (
{
closed = 1;
nodes = (
"330 -292 LINE",
"442 -292 LINE",
"442 333 LINE",
"330 333 LINE"
);
},
{
closed = 1;
nodes = (
"442 1200 LINE",
"330 1200 LINE",
"330 581 LINE",
"442 581 LINE"
);
}
);
width = 768;
},
{
layerId = "58C4FD73-E369-47FC-BB2E-BA826F97CEB5";
paths = (
{
closed = 1;
nodes = (
"322 -292 LINE",
"480 -292 LINE",
"480 333 LINE",
"322 333 LINE"
);
},
{
closed = 1;
nodes = (
"480 1200 LINE",
"322 1200 LINE",
"322 581 LINE",
"480 581 LINE"
);
}
);
width = 798;
}
);
unicode = 00A6;
},
{
glyphname = section;
layers = (
{
layerId = UUID0;
paths = (
{
closed = 1;
nodes = (
"540 112 OFFCURVE",
"660 226 OFFCURVE",
"660 384 CURVE SMOOTH",
"660 496 OFFCURVE",
"588 566 OFFCURVE",
"453 663 CURVE SMOOTH",
"321 759 OFFCURVE",
"232 813 OFFCURVE",
"232 890 CURVE SMOOTH",
"232 941 OFFCURVE",
"276 993 OFFCURVE",
"378 993 CURVE SMOOTH",
"471 993 OFFCURVE",
"549 951 OFFCURVE",
"600 922 CURVE",
"626 1053 LINE",
"574 1082 OFFCURVE",
"495 1113 OFFCURVE",
"386 1113 CURVE SMOOTH",
"173 1113 OFFCURVE",
"97 980 OFFCURVE",
"97 858 CURVE SMOOTH",
"97 765 OFFCURVE",
"169 681 OFFCURVE",
"328 582 CURVE SMOOTH",
"481 486 OFFCURVE",
"525 423 OFFCURVE",
"525 360 CURVE SMOOTH",
"525 290 OFFCURVE",
"462 232 OFFCURVE",
"375 232 CURVE",
"371 112 LINE"
);
},
{
closed = 1;
nodes = (
"225 671 OFFCURVE",
"97 581 OFFCURVE",
"97 428 CURVE SMOOTH",
"97 296 OFFCURVE",
"168 221 OFFCURVE",
"303 127 CURVE SMOOTH",
"436 35 OFFCURVE",
"525 -27 OFFCURVE",
"525 -123 CURVE SMOOTH",
"525 -175 OFFCURVE",
"462 -232 OFFCURVE",
"375 -232 CURVE SMOOTH",
"295 -232 OFFCURVE",
"187 -192 OFFCURVE",
"120 -131 CURVE",
"82 -266 LINE",
"141 -312 OFFCURVE",
"249 -352 OFFCURVE",
"371 -352 CURVE SMOOTH",
"532 -352 OFFCURVE",
"660 -240 OFFCURVE",
"660 -105 CURVE SMOOTH",
"660 8 OFFCURVE",
"588 109 OFFCURVE",
"429 209 CURVE SMOOTH",
"276 305 OFFCURVE",
"232 364 OFFCURVE",
"232 431 CURVE SMOOTH",
"232 504 OFFCURVE",
"294 551 OFFCURVE",
"382 551 CURVE",
"386 671 LINE"
);
}
);
width = 768;
},
{
layerId = "58C4FD73-E369-47FC-BB2E-BA826F97CEB5";
paths = (
{
closed = 1;
nodes = (
"140 -312 OFFCURVE",
"259 -352 OFFCURVE",
"393 -352 CURVE SMOOTH",
"576 -352 OFFCURVE",
"720 -228 OFFCURVE",
"720 -69 CURVE SMOOTH",
"720 72 OFFCURVE",
"644 144 OFFCURVE",
"502 240 CURVE SMOOTH",
"386 319 OFFCURVE",
"276 393 OFFCURVE",
"276 450 CURVE SMOOTH",
"276 508 OFFCURVE",
"323 541 OFFCURVE",
"429 541 CURVE",
"429 713 LINE",
"170 713 OFFCURVE",
"82 556 OFFCURVE",
"82 442 CURVE SMOOTH",
"82 345 OFFCURVE",
"156 251 OFFCURVE",
"324 143 CURVE SMOOTH",
"460 54 OFFCURVE",
"520 -8 OFFCURVE",
"520 -73 CURVE SMOOTH",
"520 -150 OFFCURVE",
"458 -184 OFFCURVE",
"397 -184 CURVE SMOOTH",
"309 -184 OFFCURVE",
"190 -144 OFFCURVE",
"116 -83 CURVE",
"75 -266 LINE"
);
},
{
closed = 1;
nodes = (
"620 1082 OFFCURVE",
"531 1113 OFFCURVE",
"408 1113 CURVE SMOOTH",
"151 1113 OFFCURVE",
"82 939 OFFCURVE",
"82 866 CURVE SMOOTH",
"82 759 OFFCURVE",
"168 671 OFFCURVE",
"339 574 CURVE SMOOTH",
"483 493 OFFCURVE",
"525 452 OFFCURVE",
"525 408 CURVE SMOOTH",
"525 343 OFFCURVE",
"468 310 OFFCURVE",
"366 310 CURVE",
"366 142 LINE",
"623 142 OFFCURVE",
"720 276 OFFCURVE",
"720 420 CURVE SMOOTH",
"720 519 OFFCURVE",
"654 591 OFFCURVE",
"501 685 CURVE SMOOTH",
"351 778 OFFCURVE",
"281 822 OFFCURVE",
"281 873 CURVE SMOOTH",
"281 903 OFFCURVE",
"313 945 OFFCURVE",
"401 945 CURVE SMOOTH",
"505 945 OFFCURVE",
"593 903 OFFCURVE",
"649 874 CURVE",
"678 1053 LINE"
);
}
);
width = 821;
}
);
unicode = 00A7;
},
{
glyphname = copyright;
layers = (
{
layerId = UUID0;
paths = (
{
closed = 1;
nodes = (
"790 1023 OFFCURVE",
"1005 858 OFFCURVE",
"1005 547 CURVE SMOOTH",
"1005 236 OFFCURVE",
"790 71 OFFCURVE",
"566 71 CURVE SMOOTH",
"342 71 OFFCURVE",
"131 236 OFFCURVE",
"131 547 CURVE SMOOTH",
"131 858 OFFCURVE",
"342 1023 OFFCURVE",
"566 1023 CURVE SMOOTH"
);
},
{
closed = 1;
nodes = (
"297 1113 OFFCURVE",
"37 922 OFFCURVE",
"37 547 CURVE SMOOTH",
"37 165 OFFCURVE",
"297 -18 OFFCURVE",
"566 -18 CURVE SMOOTH",
"827 -18 OFFCURVE",
"1098 165 OFFCURVE",
"1098 547 CURVE SMOOTH",
"1098 922 OFFCURVE",
"827 1113 OFFCURVE",
"566 1113 CURVE SMOOTH"
);
},
{
closed = 1;
nodes = (
"705 325 OFFCURVE",
"639 288 OFFCURVE",
"570 288 CURVE SMOOTH",
"442 288 OFFCURVE",
"360 418 OFFCURVE",
"360 551 CURVE SMOOTH",
"360 720 OFFCURVE",
"457 813 OFFCURVE",
"573 813 CURVE SMOOTH",
"631 813 OFFCURVE",
"682 793 OFFCURVE",
"742 738 CURVE",
"772 828 LINE",
"704 879 OFFCURVE",
"642 896 OFFCURVE",
"573 896 CURVE SMOOTH",
"420 896 OFFCURVE",
"266 771 OFFCURVE",
"266 540 CURVE SMOOTH",
"266 339 OFFCURVE",
"384 202 OFFCURVE",
"562 202 CURVE SMOOTH",
"635 202 OFFCURVE",
"720 229 OFFCURVE",
"776 281 CURVE",
"757 378 LINE"
);
}
);
width = 1136;
},
{
layerId = "58C4FD73-E369-47FC-BB2E-BA826F97CEB5";
paths = (
{
closed = 1;
nodes = (
"787 993 OFFCURVE",
"992 838 OFFCURVE",
"992 547 CURVE SMOOTH",
"992 256 OFFCURVE",
"787 102 OFFCURVE",
"573 102 CURVE SMOOTH",
"360 102 OFFCURVE",
"159 256 OFFCURVE",
"159 547 CURVE SMOOTH",
"159 838 OFFCURVE",
"360 993 OFFCURVE",
"573 993 CURVE SMOOTH"
);
},
{
closed = 1;
nodes = (
"299 1113 OFFCURVE",
"33 922 OFFCURVE",
"33 547 CURVE SMOOTH",
"33 165 OFFCURVE",
"299 -18 OFFCURVE",
"573 -18 CURVE SMOOTH",
"840 -18 OFFCURVE",
"1117 165 OFFCURVE",
"1117 547 CURVE SMOOTH",
"1117 922 OFFCURVE",
"840 1113 OFFCURVE",
"573 1113 CURVE SMOOTH"
);
},
{
closed = 1;
nodes = (
"717 357 OFFCURVE",
"644 324 OFFCURVE",
"579 324 CURVE SMOOTH",
"470 324 OFFCURVE",
"405 408 OFFCURVE",
"405 548 CURVE SMOOTH",
"405 696 OFFCURVE",
"481 770 OFFCURVE",
"584 770 CURVE SMOOTH",
"640 770 OFFCURVE",
"693 752 OFFCURVE",
"750 708 CURVE",
"779 823 LINE",
"717 870 OFFCURVE",
"657 885 OFFCURVE",
"577 885 CURVE SMOOTH",
"414 885 OFFCURVE",
"273 768 OFFCURVE",
"273 537 CURVE SMOOTH",
"273 335 OFFCURVE",
"384 207 OFFCURVE",
"564 207 CURVE SMOOTH",
"638 207 OFFCURVE",
"732 236 OFFCURVE",
"786 280 CURVE",
"764 407 LINE"
);
}
);
width = 1151;
}
);
unicode = 00A9;
},
{
glyphname = registered;
layers = (
{
layerId = UUID0;
paths = (
{
closed = 1;
nodes = (
"372 1113 OFFCURVE",
"112 922 OFFCURVE",
"112 547 CURVE SMOOTH",
"112 165 OFFCURVE",
"372 -18 OFFCURVE",
"641 -18 CURVE SMOOTH",
"902 -18 OFFCURVE",
"1173 165 OFFCURVE",
"1173 547 CURVE SMOOTH",
"1173 922 OFFCURVE",
"902 1113 OFFCURVE",
"641 1113 CURVE SMOOTH"
);
},
{
closed = 1;
nodes = (
"865 1023 OFFCURVE",
"1080 858 OFFCURVE",
"1080 547 CURVE SMOOTH",
"1080 236 OFFCURVE",
"865 71 OFFCURVE",
"641 71 CURVE SMOOTH",
"417 71 OFFCURVE",
"206 236 OFFCURVE",
"206 547 CURVE SMOOTH",
"206 858 OFFCURVE",
"417 1023 OFFCURVE",
"641 1023 CURVE SMOOTH"
);
},
{
closed = 1;
nodes = (
"599 501 LINE",
"795 217 LINE",
"911 217 LINE",
"885 246 OFFCURVE",
"741 440 OFFCURVE",
"690 510 CURVE",
"764 529 OFFCURVE",
"843 583 OFFCURVE",
"843 693 CURVE SMOOTH",
"843 825 OFFCURVE",
"739 885 OFFCURVE",
"596 885 CURVE SMOOTH",
"484 885 OFFCURVE",
"408 877 OFFCURVE",
"408 877 CURVE",
"414 839 OFFCURVE",
"414 767 OFFCURVE",
"414 673 CURVE SMOOTH",
"414 411 LINE SMOOTH",
"414 317 OFFCURVE",
"414 255 OFFCURVE",
"408 217 CURVE",
"513 217 LINE",
"507 255 OFFCURVE",
"506 317 OFFCURVE",
"506 411 CURVE",
"506 501 LINE"
);
},
{
closed = 1;
nodes = (
"531 805 OFFCURVE",
"559 807 OFFCURVE",
"592 807 CURVE SMOOTH",
"702 807 OFFCURVE",
"750 761 OFFCURVE",
"750 686 CURVE SMOOTH",
"750 615 OFFCURVE",
"693 575 OFFCURVE",
"592 575 CURVE",
"506 575 LINE",
"506 804 LINE"
);
}
);
width = 1211;
},
{
layerId = "58C4FD73-E369-47FC-BB2E-BA826F97CEB5";
paths = (
{
closed = 1;
nodes = (
"795 993 OFFCURVE",
"999 838 OFFCURVE",
"999 547 CURVE SMOOTH",
"999 256 OFFCURVE",
"795 102 OFFCURVE",
"581 102 CURVE SMOOTH",
"363 102 OFFCURVE",
"159 256 OFFCURVE",
"159 547 CURVE SMOOTH",
"159 838 OFFCURVE",
"363 993 OFFCURVE",
"581 993 CURVE SMOOTH"
);
},
{
closed = 1;
nodes = (
"303 1113 OFFCURVE",
"33 922 OFFCURVE",
"33 547 CURVE SMOOTH",
"33 165 OFFCURVE",
"303 -18 OFFCURVE",
"581 -18 CURVE SMOOTH",
"847 -18 OFFCURVE",
"1125 165 OFFCURVE",
"1125 547 CURVE SMOOTH",
"1125 922 OFFCURVE",
"847 1113 OFFCURVE",
"581 1113 CURVE SMOOTH"
);
},
{
closed = 1;
nodes = (
"528 486 LINE",
"692 225 LINE",
"849 225 LINE",
"825 252 OFFCURVE",
"702 434 OFFCURVE",
"653 503 CURVE",
"731 531 OFFCURVE",
"788 582 OFFCURVE",
"788 687 CURVE SMOOTH",
"788 824 OFFCURVE",
"693 880 OFFCURVE",
"555 880 CURVE SMOOTH",
"451 880 OFFCURVE",
"332 876 OFFCURVE",
"332 876 CURVE",
"339 840 OFFCURVE",
"339 757 OFFCURVE",
"339 670 CURVE SMOOTH",
"339 419 LINE SMOOTH",
"339 331 OFFCURVE",
"339 261 OFFCURVE",
"332 225 CURVE",
"472 225 LINE",
"466 260 OFFCURVE",
"466 331 OFFCURVE",
"466 419 CURVE SMOOTH",
"466 486 LINE"
);
},
{
closed = 1;
nodes = (
"492 775 OFFCURVE",
"505 776 OFFCURVE",
"538 776 CURVE SMOOTH",
"615 776 OFFCURVE",
"657 751 OFFCURVE",
"657 685 CURVE SMOOTH",
"657 609 OFFCURVE",
"609 585 OFFCURVE",
"535 585 CURVE SMOOTH",
"468 585 LINE",
"468 774 LINE"
);
}
);
width = 1158;
}
);
unicode = 00AE;
},
{
glyphname = ordfeminine;
layers = (
{
layerId = UUID0;
paths = (
{
closed = 1;
nodes = (
"577 375 LINE",
"577 450 LINE",
"58 450 LINE",
"58 375 LINE"
);
},
{
closed = 1;
nodes = (
"454 647 OFFCURVE",
"463 540 OFFCURVE",
"478 510 CURVE",
"570 510 LINE",
"549 564 OFFCURVE",
"536 645 OFFCURVE",
"536 768 CURVE SMOOTH",
"536 995 LINE",
"483 1008 OFFCURVE",
"412 1017 OFFCURVE",
"344 1017 CURVE SMOOTH",
"148 1017 OFFCURVE",
"60 864 OFFCURVE",
"60 709 CURVE SMOOTH",
"60 572 OFFCURVE",
"130 498 OFFCURVE",
"218 498 CURVE SMOOTH",
"328 498 OFFCURVE",
"411 628 OFFCURVE",
"454 738 CURVE",
"454 690 LINE"
);
},
{
closed = 1;
nodes = (
"389 939 OFFCURVE",
"421 933 OFFCURVE",
"438 929 CURVE",
"438 897 LINE SMOOTH",
"438 828 OFFCURVE",
"327 580 OFFCURVE",
"234 580 CURVE SMOOTH",
"192 580 OFFCURVE",
"158 634 OFFCURVE",
"158 709 CURVE SMOOTH",
"158 827 OFFCURVE",
"199 939 OFFCURVE",
"336 939 CURVE SMOOTH"
);
}
);
width = 606;
},
{
layerId = "58C4FD73-E369-47FC-BB2E-BA826F97CEB5";
paths = (
{
closed = 1;
nodes = (
"419 624 OFFCURVE",
"431 540 OFFCURVE",
"445 516 CURVE",
"575 516 LINE",
"556 570 OFFCURVE",
"544 652 OFFCURVE",
"544 776 CURVE SMOOTH",
"544 1002 LINE",
"489 1014 OFFCURVE",
"414 1023 OFFCURVE",
"345 1023 CURVE SMOOTH",
"142 1023 OFFCURVE",
"53 872 OFFCURVE",
"53 716 CURVE SMOOTH",
"53 579 OFFCURVE",
"117 504 OFFCURVE",
"200 504 CURVE SMOOTH",
"294 504 OFFCURVE",
"378 615 OFFCURVE",
"419 710 CURVE",
"419 659 LINE"
);
},
{
closed = 1;
nodes = (
"404 829 OFFCURVE",
"316 621 OFFCURVE",
"243 621 CURVE SMOOTH",
"215 621 OFFCURVE",
"190 659 OFFCURVE",
"190 716 CURVE SMOOTH",
"190 817 OFFCURVE",
"222 914 OFFCURVE",
"324 914 CURVE SMOOTH",
"365 914 OFFCURVE",
"390 909 OFFCURVE",
"404 905 CURVE",
"404 888 LINE SMOOTH"
);
},
{
closed = 1;
nodes = (
"577 338 LINE",
"577 450 LINE",
"60 450 LINE",
"60 338 LINE"
);
}
);
width = 607;
}
);
unicode = 00AA;
},
{
glyphname = guillemetleft;
layers = (
{
layerId = UUID0;
paths = (
{
closed = 1;
nodes = (
"228 384 LINE",
"521 765 LINE",
"382 765 LINE",
"56 384 LINE",
"384 0 LINE",
"521 0 LINE"
);
},
{
closed = 1;
nodes = (
"596 384 LINE",
"888 765 LINE",
"750 765 LINE",
"423 384 LINE",
"752 0 LINE",
"888 0 LINE"
);
}
);
width = 975;
},
{
layerId = "58C4FD73-E369-47FC-BB2E-BA826F97CEB5";
paths = (
{
closed = 1;
nodes = (
"285 382 LINE",
"562 765 LINE",
"378 765 LINE",
"52 382 LINE",
"378 0 LINE",
"562 0 LINE"
);
},
{
closed = 1;
nodes = (
"664 382 LINE",
"942 765 LINE",
"758 765 LINE",
"432 382 LINE",
"758 0 LINE",
"942 0 LINE"
);
}
);
width = 979;
}
);
unicode = 00AB;
},
{
glyphname = logicalnot;
layers = (
{
layerId = UUID0;
paths = (
{
closed = 1;
nodes = (
"798 600 LINE",
"82 600 LINE",
"82 487 LINE",
"686 487 LINE",
"686 255 LINE",
"798 255 LINE"
);
}
);
width = 900;
},
{
layerId = "58C4FD73-E369-47FC-BB2E-BA826F97CEB5";
paths = (
{
closed = 1;
nodes = (
"810 622 LINE",
"71 622 LINE",
"71 465 LINE",
"652 465 LINE",
"652 255 LINE",
"810 255 LINE"
);
}
);
width = 900;
}
);
unicode = 00AC;
},
{
glyphname = degree;
layers = (
{
layerId = UUID0;
paths = (
{
closed = 1;
nodes = (
"341 870 OFFCURVE",
"296 825 OFFCURVE",
"240 825 CURVE SMOOTH",
"183 825 OFFCURVE",
"138 870 OFFCURVE",
"138 926 CURVE SMOOTH",
"138 982 OFFCURVE",
"183 1027 OFFCURVE",
"240 1027 CURVE SMOOTH",
"296 1027 OFFCURVE",
"341 982 OFFCURVE",
"341 926 CURVE"
);
},
{
closed = 1;
nodes = (
"52 821 OFFCURVE",
"135 738 OFFCURVE",
"240 738 CURVE SMOOTH",
"345 738 OFFCURVE",
"427 821 OFFCURVE",
"427 926 CURVE SMOOTH",
"427 1031 OFFCURVE",
"345 1113 OFFCURVE",
"240 1113 CURVE SMOOTH",
"135 1113 OFFCURVE",
"52 1031 OFFCURVE",
"52 926 CURVE"
);
}
);
width = 480;
},
{
layerId = "58C4FD73-E369-47FC-BB2E-BA826F97CEB5";
paths = (
{
closed = 1;
nodes = (
"378 831 OFFCURVE",
"330 780 OFFCURVE",
"270 780 CURVE SMOOTH",
"209 780 OFFCURVE",
"157 831 OFFCURVE",
"157 892 CURVE SMOOTH",
"157 954 OFFCURVE",
"209 1001 OFFCURVE",
"270 1001 CURVE SMOOTH",
"330 1001 OFFCURVE",
"378 954 OFFCURVE",
"378 892 CURVE SMOOTH"
);
},
{
closed = 1;
nodes = (
"45 765 OFFCURVE",
"143 667 OFFCURVE",
"270 667 CURVE SMOOTH",
"396 667 OFFCURVE",
"491 765 OFFCURVE",
"491 892 CURVE SMOOTH",
"491 1019 OFFCURVE",
"396 1113 OFFCURVE",
"270 1113 CURVE SMOOTH",
"143 1113 OFFCURVE",
"45 1019 OFFCURVE",
"45 892 CURVE SMOOTH"
);
}
);
width = 536;
}
);
unicode = 00B0;
},
{
glyphname = plusminus;
layers = (
{
layerId = UUID0;
paths = (
{
closed = 1;
nodes = (
"393 626 LINE",
"393 352 LINE",
"506 352 LINE",
"506 626 LINE",
"783 626 LINE",
"783 738 LINE",
"506 738 LINE",
"506 1023 LINE",
"393 1023 LINE",
"393 738 LINE",
"116 738 LINE",
"116 626 LINE"
);
},
{
closed = 1;
nodes = (
"783 150 LINE",
"783 262 LINE",
"116 262 LINE",
"116 150 LINE"
);
}
);
width = 900;
},
{
layerId = "58C4FD73-E369-47FC-BB2E-BA826F97CEB5";
paths = (
{
closed = 1;
nodes = (
"371 352 LINE",
"528 352 LINE",
"528 1023 LINE",
"371 1023 LINE"
);
},
{
closed = 1;
nodes = (
"783 603 LINE",
"783 761 LINE",
"116 761 LINE",
"116 603 LINE"
);
},
{
closed = 1;
nodes = (
"783 127 LINE",
"783 277 LINE",
"116 277 LINE",
"116 127 LINE"
);
}
);
width = 900;
}
);
unicode = 00B1;
},
{
glyphname = asciicircum;
layers = (
{
anchors = (
{
name = U;
position = "{318, 1226}";
}
);
components = (
{
name = CombCircum;
transform = "{1, 0, 0, 1, 746, 0}";
}
);
layerId = UUID0;
width = 637;
},
{
anchors = (
{
name = U;
position = "{330, 1226}";
}
);
layerId = "58C4FD73-E369-47FC-BB2E-BA826F97CEB5";
paths = (
{
closed = 1;
nodes = (
"448 1200 LINE",
"223 1200 LINE",
"6 900 LINE",
"186 900 LINE",
"336 1072 LINE",
"486 900 LINE",
"666 900 LINE"
);
}
);
width = 660;
}
);
unicode = 005E;
},
{
glyphname = micro;
layers = (
{
layerId = UUID0;
paths = (
{
closed = 1;
nodes = (
"786 84 OFFCURVE",
"768 192 OFFCURVE",
"768 337 CURVE SMOOTH",
"768 484 OFFCURVE",
"768 765 OFFCURVE",
"768 765 CURVE",
"615 765 LINE",
"628 673 OFFCURVE",
"630 624 OFFCURVE",
"630 525 CURVE SMOOTH",
"630 315 LINE",
"597 221 OFFCURVE",
"498 105 OFFCURVE",
"423 105 CURVE SMOOTH",
"339 105 OFFCURVE",
"255 178 OFFCURVE",
"255 348 CURVE SMOOTH",
"255 452 OFFCURVE",
"255 765 OFFCURVE",
"255 765 CURVE",
"101 765 LINE",
"114 675 OFFCURVE",
"116 620 OFFCURVE",
"116 525 CURVE SMOOTH",
"116 510 OFFCURVE",
"116 318 OFFCURVE",
"116 303 CURVE SMOOTH",
"116 -367 LINE",
"273 -367 LINE",
"261 -303 OFFCURVE",
"255 -232 OFFCURVE",
"255 -112 CURVE",
"255 60 LINE",
"282 20 OFFCURVE",
"339 -18 OFFCURVE",
"408 -18 CURVE SMOOTH",
"505 -18 OFFCURVE",
"601 75 OFFCURVE",
"648 150 CURVE",
"656 93 OFFCURVE",
"675 34 OFFCURVE",
"690 0 CURVE",
"817 0 LINE"
);
}
);
width = 888;
},
{
layerId = "58C4FD73-E369-47FC-BB2E-BA826F97CEB5";
paths = (
{
closed = 1;
nodes = (
"838 84 OFFCURVE",
"821 192 OFFCURVE",
"821 337 CURVE SMOOTH",
"821 474 OFFCURVE",
"821 765 OFFCURVE",
"821 765 CURVE",
"596 765 LINE",
"609 673 OFFCURVE",
"611 624 OFFCURVE",
"611 525 CURVE SMOOTH",
"611 313 LINE",
"586 244 OFFCURVE",
"506 154 OFFCURVE",
"450 154 CURVE SMOOTH",
"349 154 OFFCURVE",
"318 213 OFFCURVE",
"318 348 CURVE SMOOTH",
"318 464 OFFCURVE",
"318 765 OFFCURVE",
"318 765 CURVE",
"93 765 LINE",
"107 675 OFFCURVE",
"108 620 OFFCURVE",
"108 525 CURVE SMOOTH",
"108 -367 LINE",
"337 -367 LINE",
"324 -303 OFFCURVE",
"318 -232 OFFCURVE",
"318 -112 CURVE",
"318 18 LINE",
"353 -14 OFFCURVE",
"390 -18 OFFCURVE",
"433 -18 CURVE SMOOTH",
"491 -18 OFFCURVE",
"568 36 OFFCURVE",
"630 138 CURVE",
"637 87 OFFCURVE",
"657 32 OFFCURVE",
"671 0 CURVE",
"870 0 LINE"
);
}
);
width = 933;
}
);
unicode = 00B5;
},
{
glyphname = paragraph;
layers = (
{
layerId = UUID0;
paths = (
{
closed = 1;
nodes = (
"723 1095 LINE",
"330 1095 LINE SMOOTH",
"211 1095 OFFCURVE",
"37 1036 OFFCURVE",
"37 834 CURVE SMOOTH",
"37 633 OFFCURVE",
"212 573 OFFCURVE",
"315 573 CURVE",
"315 0 LINE",
"416 0 LINE",
"416 1008 LINE",
"536 1008 LINE",
"536 0 LINE",
"637 0 LINE",
"637 1008 LINE",
"723 1008 LINE"
);
}
);
width = 768;
},
{
layerId = "58C4FD73-E369-47FC-BB2E-BA826F97CEB5";
paths = (
{
closed = 1;
nodes = (
"783 1095 LINE",
"345 1095 LINE SMOOTH",
"211 1095 OFFCURVE",
"37 1036 OFFCURVE",
"37 827 CURVE SMOOTH",
"37 618 OFFCURVE",
"212 558 OFFCURVE",
"330 558 CURVE",
"330 0 LINE",
"453 0 LINE",
"453 986 LINE",
"573 986 LINE",
"573 0 LINE",
"697 0 LINE",
"697 986 LINE",
"783 986 LINE"
);
}
);
width = 828;
}
);
unicode = 00B6;
},
{
glyphname = periodcentered;
layers = (
{
layerId = UUID0;
paths = (
{
closed = 1;
nodes = (
"153 476 OFFCURVE",
"198 431 OFFCURVE",
"254 431 CURVE SMOOTH",
"309 431 OFFCURVE",
"354 476 OFFCURVE",
"354 531 CURVE SMOOTH",
"354 587 OFFCURVE",
"309 632 OFFCURVE",
"254 632 CURVE SMOOTH",
"198 632 OFFCURVE",
"153 587 OFFCURVE",
"153 531 CURVE SMOOTH"
);
}
);
width = 509;
},
{
layerId = "58C4FD73-E369-47FC-BB2E-BA826F97CEB5";
paths = (
{
closed = 1;
nodes = (
"150 454 OFFCURVE",
"205 401 OFFCURVE",
"281 401 CURVE SMOOTH",
"357 401 OFFCURVE",
"412 454 OFFCURVE",
"412 532 CURVE SMOOTH",
"412 609 OFFCURVE",
"357 663 OFFCURVE",
"281 663 CURVE SMOOTH",
"205 663 OFFCURVE",
"150 609 OFFCURVE",
"150 532 CURVE SMOOTH"
);
}
);
width = 562;
}
);
unicode = 00B7;
},
{
glyphname = ordmasculine;
layers = (
{
layerId = UUID0;
paths = (
{
closed = 1;
nodes = (
"53 588 OFFCURVE",
"153 498 OFFCURVE",
"297 498 CURVE SMOOTH",
"435 498 OFFCURVE",
"552 588 OFFCURVE",
"552 756 CURVE SMOOTH",
"552 924 OFFCURVE",
"452 1017 OFFCURVE",
"308 1017 CURVE SMOOTH",
"170 1017 OFFCURVE",
"53 924 OFFCURVE",
"53 756 CURVE SMOOTH"
);
},
{
closed = 1;
nodes = (
"150 870 OFFCURVE",
"218 939 OFFCURVE",
"303 939 CURVE SMOOTH",
"393 939 OFFCURVE",
"455 870 OFFCURVE",
"455 756 CURVE SMOOTH",
"455 642 OFFCURVE",
"387 576 OFFCURVE",
"303 576 CURVE SMOOTH",
"213 576 OFFCURVE",
"150 642 OFFCURVE",
"150 756 CURVE SMOOTH"
);
},
{
closed = 1;
nodes = (
"552 375 LINE",
"552 450 LINE",
"53 450 LINE",
"53 375 LINE"
);
}
);
width = 598;
},
{
layerId = "58C4FD73-E369-47FC-BB2E-BA826F97CEB5";
paths = (
{
closed = 1;
nodes = (
"49 589 OFFCURVE",
"153 498 OFFCURVE",
"299 498 CURVE SMOOTH",
"439 498 OFFCURVE",
"559 589 OFFCURVE",
"559 756 CURVE SMOOTH",
"559 924 OFFCURVE",
"456 1017 OFFCURVE",
"309 1017 CURVE SMOOTH",
"169 1017 OFFCURVE",
"49 924 OFFCURVE",
"49 756 CURVE SMOOTH"
);
},
{
closed = 1;
nodes = (
"195 851 OFFCURVE",
"237 906 OFFCURVE",
"305 906 CURVE SMOOTH",
"375 906 OFFCURVE",
"414 851 OFFCURVE",
"414 756 CURVE SMOOTH",
"414 664 OFFCURVE",
"372 607 OFFCURVE",
"305 607 CURVE SMOOTH",
"233 607 OFFCURVE",
"195 664 OFFCURVE",
"195 756 CURVE SMOOTH"
);
},
{
closed = 1;
nodes = (
"557 338 LINE",
"557 450 LINE",
"51 450 LINE",
"51 338 LINE"
);
}
);
width = 600;
}
);
unicode = 00BA;
},
{
glyphname = guillemetright;
layers = (
{
layerId = UUID0;
paths = (
{
closed = 1;
nodes = (
"918 384 LINE",
"592 765 LINE",
"453 765 LINE",
"746 384 LINE",
"453 0 LINE",
"590 0 LINE"
);
},
{
closed = 1;
nodes = (
"551 384 LINE",
"225 765 LINE",
"86 765 LINE",
"378 384 LINE",
"86 0 LINE",
"222 0 LINE"
);
}
);
width = 975;
},
{
layerId = "58C4FD73-E369-47FC-BB2E-BA826F97CEB5";
paths = (
{
closed = 1;
nodes = (
"927 382 LINE",
"600 765 LINE",
"417 765 LINE",
"694 382 LINE",
"417 0 LINE",
"600 0 LINE"
);
},
{
closed = 1;
nodes = (
"547 382 LINE",
"221 765 LINE",
"37 765 LINE",
"315 382 LINE",
"37 0 LINE",
"221 0 LINE"
);
}
);
width = 979;
}
);
unicode = 00BB;
},
{
glyphname = onesuperior;
layers = (
{
anchors = (
{
name = L;
position = "{314, 461}";
},
{
name = U;
position = "{314, 1256}";
}
);
components = (
{
name = one;
transform = "{0.7, 0, 0, 0.65, -13, 510}";
}
);
layerId = UUID0;
width = 630;
},
{
anchors = (
{
name = L;
position = "{315, 461}";
},
{
name = U;
position = "{315, 1256}";
}
);
layerId = "58C4FD73-E369-47FC-BB2E-BA826F97CEB5";
paths = (
{
closed = 1;
nodes = (
"551 624 LINE",
"389 624 LINE",
"389 1221 LINE",
"244 1221 LINE",
"79 1133 LINE",
"97 1006 LINE",
"244 1080 LINE",
"244 624 LINE",
"83 624 LINE",
"83 510 LINE",
"551 510 LINE"
);
}
);
width = 630;
}
);
unicode = 00B9;
},
